%TF.GenerationSoftware,KiCad,Pcbnew,8.0.7-8.0.7-0~ubuntu22.04.1*%
%TF.CreationDate,2025-01-07T12:13:10+01:00*%
%TF.ProjectId,mcu_board,6d63755f-626f-4617-9264-2e6b69636164,rev?*%
%TF.SameCoordinates,Original*%
%TF.FileFunction,Copper,L1,Top*%
%TF.FilePolarity,Positive*%
%FSLAX46Y46*%
G04 Gerber Fmt 4.6, Leading zero omitted, Abs format (unit mm)*
G04 Created by KiCad (PCBNEW 8.0.7-8.0.7-0~ubuntu22.04.1) date 2025-01-07 12:13:10*
%MOMM*%
%LPD*%
G01*
G04 APERTURE LIST*
G04 Aperture macros list*
%AMRoundRect*
0 Rectangle with rounded corners*
0 $1 Rounding radius*
0 $2 $3 $4 $5 $6 $7 $8 $9 X,Y pos of 4 corners*
0 Add a 4 corners polygon primitive as box body*
4,1,4,$2,$3,$4,$5,$6,$7,$8,$9,$2,$3,0*
0 Add four circle primitives for the rounded corners*
1,1,$1+$1,$2,$3*
1,1,$1+$1,$4,$5*
1,1,$1+$1,$6,$7*
1,1,$1+$1,$8,$9*
0 Add four rect primitives between the rounded corners*
20,1,$1+$1,$2,$3,$4,$5,0*
20,1,$1+$1,$4,$5,$6,$7,0*
20,1,$1+$1,$6,$7,$8,$9,0*
20,1,$1+$1,$8,$9,$2,$3,0*%
G04 Aperture macros list end*
%TA.AperFunction,SMDPad,CuDef*%
%ADD10RoundRect,0.237500X-0.237500X0.250000X-0.237500X-0.250000X0.237500X-0.250000X0.237500X0.250000X0*%
%TD*%
%TA.AperFunction,SMDPad,CuDef*%
%ADD11RoundRect,0.237500X-0.300000X-0.237500X0.300000X-0.237500X0.300000X0.237500X-0.300000X0.237500X0*%
%TD*%
%TA.AperFunction,SMDPad,CuDef*%
%ADD12RoundRect,0.237500X0.237500X-0.250000X0.237500X0.250000X-0.237500X0.250000X-0.237500X-0.250000X0*%
%TD*%
%TA.AperFunction,SMDPad,CuDef*%
%ADD13RoundRect,0.237500X0.237500X-0.300000X0.237500X0.300000X-0.237500X0.300000X-0.237500X-0.300000X0*%
%TD*%
%TA.AperFunction,SMDPad,CuDef*%
%ADD14RoundRect,0.381000X-0.762000X-0.381000X0.762000X-0.381000X0.762000X0.381000X-0.762000X0.381000X0*%
%TD*%
%TA.AperFunction,SMDPad,CuDef*%
%ADD15RoundRect,0.237500X-0.287500X-0.237500X0.287500X-0.237500X0.287500X0.237500X-0.287500X0.237500X0*%
%TD*%
%TA.AperFunction,SMDPad,CuDef*%
%ADD16R,1.500000X2.000000*%
%TD*%
%TA.AperFunction,SMDPad,CuDef*%
%ADD17R,3.800000X2.000000*%
%TD*%
%TA.AperFunction,SMDPad,CuDef*%
%ADD18RoundRect,0.250000X-0.412500X-0.650000X0.412500X-0.650000X0.412500X0.650000X-0.412500X0.650000X0*%
%TD*%
%TA.AperFunction,SMDPad,CuDef*%
%ADD19R,1.200000X1.400000*%
%TD*%
%TA.AperFunction,ComponentPad*%
%ADD20R,1.700000X1.700000*%
%TD*%
%TA.AperFunction,ComponentPad*%
%ADD21O,1.700000X1.700000*%
%TD*%
%TA.AperFunction,SMDPad,CuDef*%
%ADD22RoundRect,0.075000X-0.662500X-0.075000X0.662500X-0.075000X0.662500X0.075000X-0.662500X0.075000X0*%
%TD*%
%TA.AperFunction,SMDPad,CuDef*%
%ADD23RoundRect,0.075000X-0.075000X-0.662500X0.075000X-0.662500X0.075000X0.662500X-0.075000X0.662500X0*%
%TD*%
%TA.AperFunction,SMDPad,CuDef*%
%ADD24RoundRect,0.237500X0.250000X0.237500X-0.250000X0.237500X-0.250000X-0.237500X0.250000X-0.237500X0*%
%TD*%
%TA.AperFunction,SMDPad,CuDef*%
%ADD25RoundRect,0.250000X-0.650000X0.412500X-0.650000X-0.412500X0.650000X-0.412500X0.650000X0.412500X0*%
%TD*%
%TA.AperFunction,SMDPad,CuDef*%
%ADD26RoundRect,0.237500X-0.237500X0.300000X-0.237500X-0.300000X0.237500X-0.300000X0.237500X0.300000X0*%
%TD*%
%TA.AperFunction,SMDPad,CuDef*%
%ADD27RoundRect,0.237500X0.300000X0.237500X-0.300000X0.237500X-0.300000X-0.237500X0.300000X-0.237500X0*%
%TD*%
%TA.AperFunction,ViaPad*%
%ADD28C,0.600000*%
%TD*%
%TA.AperFunction,Conductor*%
%ADD29C,0.200000*%
%TD*%
%TA.AperFunction,Conductor*%
%ADD30C,0.500000*%
%TD*%
%TA.AperFunction,Conductor*%
%ADD31C,0.300000*%
%TD*%
G04 APERTURE END LIST*
D10*
%TO.P,R13,1*%
%TO.N,DISP_BLK*%
X141800000Y-86687500D03*
%TO.P,R13,2*%
%TO.N,Net-(Q1-B)*%
X141800000Y-88512500D03*
%TD*%
D11*
%TO.P,C9,1*%
%TO.N,+3.3V*%
X148937500Y-65100000D03*
%TO.P,C9,2*%
%TO.N,GND*%
X150662500Y-65100000D03*
%TD*%
D12*
%TO.P,R9,1*%
%TO.N,Net-(U2-PB8_SCL1_PWM)*%
X148900000Y-63125000D03*
%TO.P,R9,2*%
%TO.N,GND*%
X148900000Y-61300000D03*
%TD*%
%TO.P,R6,1*%
%TO.N,Net-(U2-PB5_MOSI1)*%
X153400000Y-63125000D03*
%TO.P,R6,2*%
%TO.N,GND*%
X153400000Y-61300000D03*
%TD*%
D13*
%TO.P,C10,1*%
%TO.N,+3.3V*%
X157500000Y-66940625D03*
%TO.P,C10,2*%
%TO.N,GND*%
X157500000Y-65215625D03*
%TD*%
D14*
%TO.P,J2,1,Pin_1*%
%TO.N,GND*%
X142200000Y-59550000D03*
X157800000Y-59550001D03*
X157800000Y-80649999D03*
X142200000Y-80650000D03*
%TD*%
D12*
%TO.P,R8,1*%
%TO.N,Net-(U2-PB7_RX1_SDA1_PWM)*%
X150400000Y-63125000D03*
%TO.P,R8,2*%
%TO.N,GND*%
X150400000Y-61300000D03*
%TD*%
D15*
%TO.P,FB1,1*%
%TO.N,Net-(U2-3V3A)*%
X146825000Y-76778125D03*
%TO.P,FB1,2*%
%TO.N,+3.3V*%
X148575000Y-76778125D03*
%TD*%
D16*
%TO.P,U3,1,GND*%
%TO.N,Net-(U3-GND)*%
X152300000Y-86850000D03*
%TO.P,U3,2,VO*%
%TO.N,+3.3V*%
X150000000Y-86850000D03*
D17*
X150000000Y-93150000D03*
D16*
%TO.P,U3,3,VI*%
%TO.N,Net-(J1-Pin_2)*%
X147700000Y-86850000D03*
%TD*%
D18*
%TO.P,C1,1*%
%TO.N,GND*%
X142037500Y-77300000D03*
%TO.P,C1,2*%
%TO.N,Net-(U2-3V3A)*%
X145162500Y-77300000D03*
%TD*%
D11*
%TO.P,C8,1*%
%TO.N,GND*%
X142556250Y-73221875D03*
%TO.P,C8,2*%
%TO.N,Net-(U2-OSC_8M_B)*%
X144281250Y-73221875D03*
%TD*%
D12*
%TO.P,R7,1*%
%TO.N,Net-(U2-PB6_TX1_SCL1_PWM)*%
X151900000Y-63125000D03*
%TO.P,R7,2*%
%TO.N,GND*%
X151900000Y-61300000D03*
%TD*%
D19*
%TO.P,Y1,1,1*%
%TO.N,Net-(U2-OSC_8M_B)*%
X144268750Y-71312500D03*
%TO.P,Y1,2,2*%
%TO.N,GND*%
X144268750Y-69112500D03*
%TO.P,Y1,3,3*%
%TO.N,Net-(U2-OSC_8M_A)*%
X142568750Y-69112500D03*
%TO.P,Y1,4,4*%
%TO.N,GND*%
X142568750Y-71312500D03*
%TD*%
D20*
%TO.P,J7,1,Pin_1*%
%TO.N,+3.3V*%
X141100000Y-54200000D03*
D21*
%TO.P,J7,2,Pin_2*%
%TO.N,TX2*%
X143640000Y-54200000D03*
%TO.P,J7,3,Pin_3*%
%TO.N,RX2*%
X146180000Y-54200000D03*
%TO.P,J7,4,Pin_4*%
%TO.N,~{RESET}*%
X148720000Y-54200000D03*
%TO.P,J7,5,Pin_5*%
%TO.N,GND*%
X151260000Y-54200000D03*
%TO.P,J7,6,Pin_6*%
%TO.N,unconnected-(J7-Pin_6-Pad6)*%
X153800000Y-54200000D03*
%TO.P,J7,7,Pin_7*%
%TO.N,SWDIO*%
X156340000Y-54200000D03*
%TO.P,J7,8,Pin_8*%
%TO.N,SWCLK*%
X158880000Y-54200000D03*
%TD*%
D12*
%TO.P,R11,1*%
%TO.N,Net-(U2-OSC_8M_B)*%
X146800000Y-71212500D03*
%TO.P,R11,2*%
%TO.N,Net-(U2-OSC_8M_A)*%
X146800000Y-69387500D03*
%TD*%
D22*
%TO.P,U2,1,VBAT*%
%TO.N,+3.3V*%
X148693750Y-68578125D03*
%TO.P,U2,2,PC13*%
%TO.N,unconnected-(U2-PC13-Pad2)*%
X148693750Y-69078125D03*
%TO.P,U2,3,OSC32K_A*%
%TO.N,unconnected-(U2-OSC32K_A-Pad3)*%
X148693750Y-69578125D03*
%TO.P,U2,4,OSC32K_B*%
%TO.N,unconnected-(U2-OSC32K_B-Pad4)*%
X148693750Y-70078125D03*
%TO.P,U2,5,OSC_8M_A*%
%TO.N,Net-(U2-OSC_8M_A)*%
X148693750Y-70578125D03*
%TO.P,U2,6,OSC_8M_B*%
%TO.N,Net-(U2-OSC_8M_B)*%
X148693750Y-71078125D03*
%TO.P,U2,7,~{RST}*%
%TO.N,~{RESET}*%
X148693750Y-71578125D03*
%TO.P,U2,8,GNDA*%
%TO.N,GND*%
X148693750Y-72078125D03*
%TO.P,U2,9,3V3A*%
%TO.N,Net-(U2-3V3A)*%
X148693750Y-72578125D03*
%TO.P,U2,10,PA0_ADC0_PWM*%
%TO.N,unconnected-(U2-PA0_ADC0_PWM-Pad10)*%
X148693750Y-73078125D03*
%TO.P,U2,11,PA1_ADC1_PWM*%
%TO.N,unconnected-(U2-PA1_ADC1_PWM-Pad11)*%
X148693750Y-73578125D03*
%TO.P,U2,12,PA2_ADC2_TX2_PWM*%
%TO.N,TX2*%
X148693750Y-74078125D03*
D23*
%TO.P,U2,13,PA3_ADC3_RX2_PWM*%
%TO.N,RX2*%
X150106250Y-75490625D03*
%TO.P,U2,14,PA4_ADC4_SS1*%
%TO.N,DISP_CS*%
X150606250Y-75490625D03*
%TO.P,U2,15,PA5_ADC5_SCK1*%
%TO.N,DISP_SCL*%
X151106250Y-75490625D03*
%TO.P,U2,16,PA6_ADC6_MISO1_PWM*%
%TO.N,unconnected-(U2-PA6_ADC6_MISO1_PWM-Pad16)*%
X151606250Y-75490625D03*
%TO.P,U2,17,PA7_ADC7_MOSI1_PWM*%
%TO.N,DISP_SDA*%
X152106250Y-75490625D03*
%TO.P,U2,18,PB0_ADC8_PWM*%
%TO.N,DISP_BLK*%
X152606250Y-75490625D03*
%TO.P,U2,19,PB1_ADC9_PWM*%
%TO.N,AGC_INV*%
X153106250Y-75490625D03*
%TO.P,U2,20,PB2*%
%TO.N,DISP_RST*%
X153606250Y-75490625D03*
%TO.P,U2,21,PB10_SCL2_TX3*%
%TO.N,EN*%
X154106250Y-75490625D03*
%TO.P,U2,22,PB11_SDA2_RX3*%
%TO.N,DISP_DC*%
X154606250Y-75490625D03*
%TO.P,U2,23,GND*%
%TO.N,GND*%
X155106250Y-75490625D03*
%TO.P,U2,24,3V3*%
%TO.N,+3.3V*%
X155606250Y-75490625D03*
D22*
%TO.P,U2,25,PB12_SS2*%
%TO.N,unconnected-(U2-PB12_SS2-Pad25)*%
X157018750Y-74078125D03*
%TO.P,U2,26,PB13_SCK2*%
%TO.N,unconnected-(U2-PB13_SCK2-Pad26)*%
X157018750Y-73578125D03*
%TO.P,U2,27,PB14_MISO2*%
%TO.N,unconnected-(U2-PB14_MISO2-Pad27)*%
X157018750Y-73078125D03*
%TO.P,U2,28,PB15_MOSI2*%
%TO.N,unconnected-(U2-PB15_MOSI2-Pad28)*%
X157018750Y-72578125D03*
%TO.P,U2,29,PA8_PWM*%
%TO.N,unconnected-(U2-PA8_PWM-Pad29)*%
X157018750Y-72078125D03*
%TO.P,U2,30,PA9_TX1_PWM*%
%TO.N,unconnected-(U2-PA9_TX1_PWM-Pad30)*%
X157018750Y-71578125D03*
%TO.P,U2,31,PA10_RX1_PWM*%
%TO.N,unconnected-(U2-PA10_RX1_PWM-Pad31)*%
X157018750Y-71078125D03*
%TO.P,U2,32,PA11_USB-*%
%TO.N,unconnected-(U2-PA11_USB--Pad32)*%
X157018750Y-70578125D03*
%TO.P,U2,33,PA12_USB+*%
%TO.N,unconnected-(U2-PA12_USB+-Pad33)*%
X157018750Y-70078125D03*
%TO.P,U2,34,PA13_SWDIO*%
%TO.N,SWDIO*%
X157018750Y-69578125D03*
%TO.P,U2,35,GND*%
%TO.N,GND*%
X157018750Y-69078125D03*
%TO.P,U2,36,3V3*%
%TO.N,+3.3V*%
X157018750Y-68578125D03*
D23*
%TO.P,U2,37,PA14_SWCLK*%
%TO.N,SWCLK*%
X155606250Y-67165625D03*
%TO.P,U2,38,PA15*%
%TO.N,JTDI*%
X155106250Y-67165625D03*
%TO.P,U2,39,PB3_SCK1*%
%TO.N,JTDO*%
X154606250Y-67165625D03*
%TO.P,U2,40,PB4_MISO1*%
%TO.N,JNTRST*%
X154106250Y-67165625D03*
%TO.P,U2,41,PB5_MOSI1*%
%TO.N,Net-(U2-PB5_MOSI1)*%
X153606250Y-67165625D03*
%TO.P,U2,42,PB6_TX1_SCL1_PWM*%
%TO.N,Net-(U2-PB6_TX1_SCL1_PWM)*%
X153106250Y-67165625D03*
%TO.P,U2,43,PB7_RX1_SDA1_PWM*%
%TO.N,Net-(U2-PB7_RX1_SDA1_PWM)*%
X152606250Y-67165625D03*
%TO.P,U2,44,BOOT0*%
%TO.N,GND*%
X152106250Y-67165625D03*
%TO.P,U2,45,PB8_SCL1_PWM*%
%TO.N,Net-(U2-PB8_SCL1_PWM)*%
X151606250Y-67165625D03*
%TO.P,U2,46,PB9_SDA1_PWM*%
%TO.N,unconnected-(U2-PB9_SDA1_PWM-Pad46)*%
X151106250Y-67165625D03*
%TO.P,U2,47,GND*%
%TO.N,GND*%
X150606250Y-67165625D03*
%TO.P,U2,48,3V3*%
%TO.N,+3.3V*%
X150106250Y-67165625D03*
%TD*%
D24*
%TO.P,R4,1*%
%TO.N,~{RESET}*%
X144312500Y-74800000D03*
%TO.P,R4,2*%
%TO.N,+3.3V*%
X142487500Y-74800000D03*
%TD*%
D25*
%TO.P,C5,1*%
%TO.N,Net-(J1-Pin_2)*%
X144800000Y-86537500D03*
%TO.P,C5,2*%
%TO.N,GND*%
X144800000Y-89662500D03*
%TD*%
D26*
%TO.P,C11,1*%
%TO.N,+3.3V*%
X157518750Y-75737500D03*
%TO.P,C11,2*%
%TO.N,GND*%
X157518750Y-77462500D03*
%TD*%
D13*
%TO.P,C3,1*%
%TO.N,GND*%
X146800000Y-74725000D03*
%TO.P,C3,2*%
%TO.N,Net-(U2-3V3A)*%
X146800000Y-73000000D03*
%TD*%
D12*
%TO.P,R5,1*%
%TO.N,+3.3V*%
X154800000Y-90425000D03*
%TO.P,R5,2*%
%TO.N,Net-(U3-GND)*%
X154800000Y-88600000D03*
%TD*%
%TO.P,R10,1*%
%TO.N,Net-(U3-GND)*%
X154800000Y-86912500D03*
%TO.P,R10,2*%
%TO.N,GND*%
X154800000Y-85087500D03*
%TD*%
D27*
%TO.P,C7,1*%
%TO.N,GND*%
X144281250Y-67221875D03*
%TO.P,C7,2*%
%TO.N,Net-(U2-OSC_8M_A)*%
X142556250Y-67221875D03*
%TD*%
D18*
%TO.P,C6,1*%
%TO.N,+3.3V*%
X148237500Y-84200000D03*
%TO.P,C6,2*%
%TO.N,GND*%
X151362500Y-84200000D03*
%TD*%
D20*
%TO.P,J1,1,Pin_1*%
%TO.N,unconnected-(J1-Pin_1-Pad1)*%
X144960000Y-97000000D03*
D21*
%TO.P,J1,2,Pin_2*%
%TO.N,Net-(J1-Pin_2)*%
X147500000Y-97000000D03*
%TO.P,J1,3,Pin_3*%
%TO.N,GND*%
X150040000Y-97000000D03*
%TO.P,J1,4,Pin_4*%
%TO.N,/AGC*%
X152580000Y-97000000D03*
%TO.P,J1,5,Pin_5*%
%TO.N,EN*%
X155120000Y-97000000D03*
%TD*%
D28*
%TO.N,GND*%
X147800000Y-74700000D03*
X142200000Y-60900000D03*
X157800000Y-60900000D03*
X156600000Y-77450000D03*
X154500000Y-51900000D03*
X150100000Y-84600000D03*
X142100000Y-75800000D03*
X149950000Y-72350000D03*
X157800000Y-79300000D03*
X144800000Y-90800000D03*
X147250000Y-64000000D03*
X142900000Y-51800000D03*
X144268750Y-68053125D03*
X148900000Y-60400000D03*
X142200000Y-79300000D03*
X154848042Y-74195248D03*
X142556250Y-72400000D03*
X143000000Y-78500000D03*
X152100000Y-68300000D03*
X153500000Y-71000000D03*
X158250000Y-68850000D03*
X150606250Y-66000000D03*
X151900000Y-60400000D03*
X157500000Y-64100000D03*
X150100000Y-83800000D03*
X152700000Y-80100000D03*
X146400000Y-67300000D03*
X158500000Y-70500000D03*
X149500000Y-78750000D03*
%TO.N,+3.3V*%
X152400000Y-91900000D03*
X148500000Y-90600000D03*
%TO.N,AGC_INV*%
X155500000Y-83900000D03*
%TO.N,TX2*%
X148600003Y-74700000D03*
X145700000Y-69400000D03*
%TO.N,JTDI*%
X153800000Y-58600000D03*
%TO.N,~{RESET}*%
X144300000Y-58500000D03*
%TO.N,RX2*%
X145400000Y-68600000D03*
X149500000Y-76100000D03*
%TO.N,SWDIO*%
X156334556Y-58630516D03*
%TO.N,DISP_SCL*%
X151281612Y-79568301D03*
%TO.N,DISP_RST*%
X153706250Y-78743505D03*
%TO.N,DISP_CS*%
X149800000Y-80300000D03*
%TO.N,DISP_SDA*%
X152135696Y-79529983D03*
%TO.N,DISP_DC*%
X155000000Y-79805099D03*
%TO.N,Net-(Q1-B)*%
X142200000Y-91800000D03*
%TO.N,JTDO*%
X151300000Y-58600000D03*
%TO.N,JNTRST*%
X148900000Y-58600000D03*
%TO.N,DISP_BLK*%
X149500000Y-81700000D03*
X147800000Y-81700000D03*
%TD*%
D29*
%TO.N,GND*%
X151900000Y-61300000D02*
X151900000Y-60400000D01*
X147800000Y-74700000D02*
X147775000Y-74725000D01*
X157500000Y-64100000D02*
X157500000Y-65215625D01*
X142556250Y-72400000D02*
X142556250Y-73221875D01*
X157518750Y-77462500D02*
X156612500Y-77462500D01*
X153900000Y-84200000D02*
X154900000Y-85200000D01*
X150487500Y-65881250D02*
X150487500Y-65234375D01*
X150100000Y-84600000D02*
X151000000Y-84600000D01*
X157800000Y-80649999D02*
X157800000Y-79300000D01*
D30*
X144800000Y-89662500D02*
X144800000Y-90800000D01*
D29*
X150606250Y-68193750D02*
X150712500Y-68300000D01*
X142200000Y-59550000D02*
X142200000Y-60900000D01*
X151900000Y-61300000D02*
X153400000Y-61300000D01*
X155106250Y-74453456D02*
X155106250Y-75490625D01*
X157800000Y-59550001D02*
X157800000Y-60900000D01*
X152106250Y-67165625D02*
X152106250Y-68293750D01*
X158021875Y-69078125D02*
X158250000Y-68850000D01*
X144268750Y-68053125D02*
X144268750Y-69112500D01*
X150606250Y-66000000D02*
X150487500Y-65881250D01*
X150100000Y-83800000D02*
X151000000Y-83800000D01*
D30*
X151362500Y-84200000D02*
X151300000Y-84137500D01*
D29*
X142556250Y-72400000D02*
X142556250Y-71325000D01*
X142618750Y-71734375D02*
X142618750Y-71634375D01*
X149678125Y-72078125D02*
X149950000Y-72350000D01*
X147775000Y-74725000D02*
X146800000Y-74725000D01*
X151362500Y-84200000D02*
X153900000Y-84200000D01*
X142556250Y-71325000D02*
X142568750Y-71312500D01*
X150606250Y-67165625D02*
X150606250Y-65234375D01*
X142100000Y-75800000D02*
X142287500Y-75800000D01*
X150712500Y-68300000D02*
X152100000Y-68300000D01*
X142100000Y-77600000D02*
X142100000Y-75800000D01*
X152106250Y-68293750D02*
X152100000Y-68300000D01*
X142200000Y-80650000D02*
X142200000Y-79300000D01*
X148900000Y-61300000D02*
X148900000Y-60400000D01*
X154848042Y-74195248D02*
X155106250Y-74453456D01*
X156612500Y-77462500D02*
X156600000Y-77450000D01*
X144268750Y-68053125D02*
X144268750Y-67234375D01*
X157018750Y-69078125D02*
X158021875Y-69078125D01*
X143000000Y-78500000D02*
X142100000Y-77600000D01*
X150400000Y-61300000D02*
X148900000Y-61300000D01*
X148693750Y-72078125D02*
X149678125Y-72078125D01*
X144268750Y-67234375D02*
X144281250Y-67221875D01*
X150606250Y-67165625D02*
X150606250Y-68193750D01*
D31*
%TO.N,+3.3V*%
X149831250Y-73518750D02*
X150300000Y-73050000D01*
D30*
X148537500Y-84937500D02*
X149900000Y-86300000D01*
D31*
X155600000Y-74100000D02*
X155450000Y-73950000D01*
D29*
X143600000Y-77600000D02*
X144800000Y-78800000D01*
D31*
X155450000Y-72900000D02*
X155450000Y-68750000D01*
D29*
X155606250Y-75490625D02*
X156296875Y-74800000D01*
D31*
X148575000Y-75975000D02*
X149534370Y-75015630D01*
X149534370Y-75015630D02*
X149534370Y-74578125D01*
X148937500Y-65178125D02*
X148937500Y-67487500D01*
X148700000Y-67700000D02*
X148700000Y-68500000D01*
D29*
X140757000Y-73957000D02*
X141600000Y-74800000D01*
D31*
X155300000Y-73050000D02*
X155450000Y-72900000D01*
X149534370Y-74578125D02*
X149831250Y-74281245D01*
D29*
X140757000Y-54543000D02*
X140757000Y-73957000D01*
D31*
X157237500Y-75737500D02*
X156300000Y-74800000D01*
X155450000Y-73950000D02*
X155450000Y-72900000D01*
X150750000Y-69300000D02*
X150750000Y-72850000D01*
D29*
X141600000Y-74800000D02*
X142400000Y-74800000D01*
D30*
X148575000Y-78800000D02*
X148575000Y-76778125D01*
D31*
X157259375Y-66940625D02*
X157500000Y-66940625D01*
X148575000Y-76778125D02*
X148575000Y-75975000D01*
D29*
X148937500Y-65237500D02*
X148937500Y-65178125D01*
D31*
X148700000Y-84625000D02*
X148575000Y-84500000D01*
X148937500Y-67487500D02*
X150750000Y-69300000D01*
D29*
X157040625Y-68600000D02*
X157600000Y-68600000D01*
D31*
X157518750Y-75737500D02*
X157237500Y-75737500D01*
X150300000Y-73050000D02*
X150550000Y-73050000D01*
X155450000Y-68750000D02*
X157259375Y-66940625D01*
D29*
X142487500Y-74700000D02*
X143600000Y-75812500D01*
D30*
X149900000Y-86300000D02*
X150000000Y-86300000D01*
D29*
X156296875Y-74800000D02*
X156300000Y-74800000D01*
D31*
X156300000Y-74800000D02*
X155600000Y-74100000D01*
X149831250Y-74281245D02*
X149831250Y-73518750D01*
X148912500Y-67487500D02*
X148700000Y-67700000D01*
D30*
X148575000Y-84500000D02*
X148575000Y-78800000D01*
D31*
X148937500Y-67487500D02*
X148912500Y-67487500D01*
D29*
X157018750Y-68578125D02*
X157040625Y-68600000D01*
X150106250Y-67165625D02*
X150106250Y-66406250D01*
X141100000Y-54200000D02*
X140757000Y-54543000D01*
D30*
X148537500Y-84200000D02*
X148537500Y-84937500D01*
D31*
X150550000Y-73050000D02*
X155300000Y-73050000D01*
D29*
X144800000Y-78800000D02*
X148575000Y-78800000D01*
X150106250Y-66406250D02*
X148937500Y-65237500D01*
X143600000Y-75812500D02*
X143600000Y-77600000D01*
X157600000Y-68600000D02*
X157600000Y-67100000D01*
%TO.N,Net-(U2-3V3A)*%
X146825000Y-76778125D02*
X146000000Y-75953125D01*
X146000000Y-75953125D02*
X146000000Y-73800000D01*
X146825000Y-76778125D02*
X145421875Y-76778125D01*
X145421875Y-76778125D02*
X145200000Y-77000000D01*
X148693750Y-72578125D02*
X147221875Y-72578125D01*
X147221875Y-72578125D02*
X146800000Y-73000000D01*
X146000000Y-73800000D02*
X146800000Y-73000000D01*
%TO.N,AGC_INV*%
X155500000Y-83900000D02*
X155500000Y-83800000D01*
X155500000Y-83800000D02*
X153700000Y-82000000D01*
X153700000Y-79685785D02*
X153106250Y-79092035D01*
X153106250Y-79092035D02*
X153106250Y-75490625D01*
X153700000Y-82000000D02*
X153700000Y-79685785D01*
%TO.N,Net-(U2-OSC_8M_A)*%
X142568750Y-69112500D02*
X142568750Y-67234375D01*
X148693750Y-70578125D02*
X147419847Y-70578125D01*
X143378125Y-70121875D02*
X142568750Y-69312500D01*
X147419847Y-70578125D02*
X146941722Y-70100000D01*
X145221875Y-70100000D02*
X145200000Y-70121875D01*
X146800000Y-69387500D02*
X146800000Y-70100000D01*
X146800000Y-70100000D02*
X145221875Y-70100000D01*
X146941722Y-70100000D02*
X146800000Y-70100000D01*
X142568750Y-69312500D02*
X142568750Y-69112500D01*
X145200000Y-70121875D02*
X143378125Y-70121875D01*
X142568750Y-67234375D02*
X142556250Y-67221875D01*
%TO.N,Net-(U2-OSC_8M_B)*%
X144281250Y-71325000D02*
X144268750Y-71312500D01*
X146934375Y-71078125D02*
X146800000Y-71212500D01*
X146309375Y-71312500D02*
X144268750Y-71312500D01*
X148693750Y-71078125D02*
X146934375Y-71078125D01*
X144281250Y-73221875D02*
X144281250Y-71325000D01*
%TO.N,TX2*%
X147500000Y-53200000D02*
X146800000Y-52500000D01*
X145800000Y-59000000D02*
X147500000Y-57300000D01*
X146000000Y-68200000D02*
X145800000Y-68000000D01*
X145700000Y-69400000D02*
X146000000Y-69100000D01*
X145400000Y-52500000D02*
X143600000Y-54300000D01*
X145800000Y-68000000D02*
X145800000Y-59000000D01*
X146000000Y-69100000D02*
X146000000Y-68200000D01*
X147500000Y-57300000D02*
X147500000Y-53200000D01*
X148693750Y-74606250D02*
X148600003Y-74699997D01*
X146800000Y-52500000D02*
X145400000Y-52500000D01*
X148693750Y-74078125D02*
X148693750Y-74606250D01*
X148600003Y-74699997D02*
X148600003Y-74700000D01*
%TO.N,JTDI*%
X155106250Y-60506250D02*
X153800000Y-59200000D01*
X155106250Y-60506250D02*
X155106250Y-67165625D01*
X153800000Y-59200000D02*
X153800000Y-58600000D01*
%TO.N,~{RESET}*%
X142490000Y-53723654D02*
X144113654Y-52100000D01*
X147688597Y-71578125D02*
X147166722Y-72100000D01*
X148800000Y-53900000D02*
X148800000Y-54300000D01*
X141925000Y-74025000D02*
X141668750Y-73768750D01*
X145200000Y-73295778D02*
X145200000Y-73800000D01*
X147000000Y-52100000D02*
X148800000Y-53900000D01*
X142490000Y-57733920D02*
X142490000Y-53723654D01*
X143856080Y-58943920D02*
X143700000Y-58943920D01*
X148693750Y-71578125D02*
X147688597Y-71578125D01*
X147166722Y-72100000D02*
X146395778Y-72100000D01*
X141668750Y-73768750D02*
X141668750Y-63431250D01*
X145200000Y-73800000D02*
X144300000Y-74700000D01*
X143700000Y-61400000D02*
X141668750Y-63431250D01*
X146395778Y-72100000D02*
X145200000Y-73295778D01*
X144300000Y-58500000D02*
X143856080Y-58943920D01*
X143537500Y-74025000D02*
X141925000Y-74025000D01*
X143700000Y-58943920D02*
X142490000Y-57733920D01*
X144113654Y-52100000D02*
X147000000Y-52100000D01*
X143700000Y-58943920D02*
X143700000Y-61400000D01*
X144312500Y-74800000D02*
X143537500Y-74025000D01*
%TO.N,RX2*%
X146200000Y-58034314D02*
X146200000Y-54400000D01*
X145400000Y-58834314D02*
X146200000Y-58034314D01*
X149500000Y-76100000D02*
X150106250Y-75493750D01*
X145400000Y-68600000D02*
X145400000Y-58834314D01*
X150106250Y-75493750D02*
X150106250Y-75490625D01*
%TO.N,SWCLK*%
X155900000Y-52500000D02*
X157200000Y-52500000D01*
X155100000Y-55000000D02*
X155100000Y-53300000D01*
X155606250Y-67165625D02*
X155606250Y-55506250D01*
X155606250Y-55506250D02*
X155100000Y-55000000D01*
X155100000Y-53300000D02*
X155900000Y-52500000D01*
X157200000Y-52500000D02*
X158900000Y-54200000D01*
%TO.N,SWDIO*%
X156725000Y-60725000D02*
X156357000Y-60357000D01*
X156357000Y-54743000D02*
X156400000Y-54700000D01*
X157018750Y-69578125D02*
X158571875Y-69578125D01*
X156725000Y-65744847D02*
X156725000Y-60725000D01*
X158950000Y-69200000D02*
X158950000Y-67086403D01*
X157966722Y-66103125D02*
X157083278Y-66103125D01*
X156357000Y-60357000D02*
X156357000Y-54743000D01*
X156375000Y-53925000D02*
X156325000Y-53925000D01*
X157083278Y-66103125D02*
X156725000Y-65744847D01*
X158571875Y-69578125D02*
X158950000Y-69200000D01*
X158950000Y-67086403D02*
X157966722Y-66103125D01*
%TO.N,DISP_SCL*%
X151300000Y-76454285D02*
X151106250Y-76260535D01*
X151300000Y-79549913D02*
X151300000Y-76454285D01*
X151106250Y-76260535D02*
X151106250Y-75490625D01*
X151281612Y-79568301D02*
X151300000Y-79549913D01*
%TO.N,DISP_RST*%
X153700000Y-76354285D02*
X153606250Y-76260535D01*
X153700000Y-78737255D02*
X153700000Y-76354285D01*
X153706250Y-78743505D02*
X153700000Y-78737255D01*
X153606250Y-76260535D02*
X153606250Y-75490625D01*
%TO.N,DISP_CS*%
X149800000Y-80300000D02*
X150606250Y-79493750D01*
X150606250Y-79493750D02*
X150606250Y-75490625D01*
%TO.N,DISP_SDA*%
X152106250Y-79500537D02*
X152106250Y-75490625D01*
X152135696Y-79529983D02*
X152106250Y-79500537D01*
%TO.N,DISP_DC*%
X155000000Y-76853185D02*
X154606250Y-76459435D01*
X154606250Y-76459435D02*
X154606250Y-75490625D01*
X155000000Y-79805099D02*
X155000000Y-76853185D01*
%TO.N,Net-(Q1-B)*%
X141887500Y-88512500D02*
X141800000Y-88600000D01*
X141800000Y-91400000D02*
X142200000Y-91800000D01*
X141800000Y-88600000D02*
X141800000Y-91400000D01*
D30*
%TO.N,Net-(J1-Pin_2)*%
X145200000Y-95700000D02*
X143100000Y-93600000D01*
X146200000Y-95700000D02*
X145200000Y-95700000D01*
X147475000Y-87075000D02*
X147700000Y-86850000D01*
X147500000Y-97000000D02*
X146200000Y-95700000D01*
X144500000Y-86600000D02*
X147700000Y-86600000D01*
X147600000Y-96800000D02*
X147475000Y-96675000D01*
X143100000Y-93600000D02*
X143100000Y-88000000D01*
X143100000Y-88000000D02*
X144500000Y-86600000D01*
D29*
%TO.N,EN*%
X158200000Y-94100000D02*
X155200000Y-97100000D01*
X154400000Y-81951471D02*
X158200000Y-85751471D01*
X154106250Y-78294976D02*
X154400000Y-78588726D01*
X154106250Y-75490625D02*
X154106250Y-78294976D01*
X154400000Y-78588726D02*
X154400000Y-81951471D01*
X158200000Y-85751471D02*
X158200000Y-94100000D01*
%TO.N,Net-(U3-GND)*%
X154800000Y-86900000D02*
X154800000Y-88800000D01*
X152300000Y-86850000D02*
X154750000Y-86850000D01*
X154750000Y-86850000D02*
X154800000Y-86900000D01*
%TO.N,JTDO*%
X154606250Y-60640564D02*
X152565686Y-58600000D01*
X152565686Y-58600000D02*
X151300000Y-58600000D01*
X154606250Y-67165625D02*
X154606250Y-60640564D01*
%TO.N,JNTRST*%
X149700000Y-59400000D02*
X152800000Y-59400000D01*
X154106250Y-66395715D02*
X154106250Y-67165625D01*
X152800000Y-59400000D02*
X154175000Y-60775000D01*
X154175000Y-60775000D02*
X154175000Y-66326965D01*
X154175000Y-66326965D02*
X154106250Y-66395715D01*
X148900000Y-58600000D02*
X149700000Y-59400000D01*
%TO.N,Net-(U2-PB7_RX1_SDA1_PWM)*%
X150557407Y-63125000D02*
X152556250Y-65123843D01*
X150400000Y-63125000D02*
X150557407Y-63125000D01*
X152556250Y-65123843D02*
X152556250Y-67200000D01*
%TO.N,DISP_BLK*%
X152606250Y-75490625D02*
X152606250Y-79157721D01*
X143200000Y-81700000D02*
X141900000Y-83000000D01*
X147800000Y-81700000D02*
X143200000Y-81700000D01*
X141900000Y-83000000D02*
X141900000Y-86800000D01*
X153300000Y-79851471D02*
X153300000Y-80348529D01*
X151948529Y-81700000D02*
X149400000Y-81700000D01*
X152606250Y-79157721D02*
X153300000Y-79851471D01*
X153300000Y-80348529D02*
X151948529Y-81700000D01*
%TO.N,Net-(U2-PB8_SCL1_PWM)*%
X148900000Y-63125000D02*
X150100000Y-64325000D01*
X151600000Y-64733278D02*
X151600000Y-67100000D01*
X151191722Y-64325000D02*
X151600000Y-64733278D01*
X148800000Y-63133278D02*
X148800000Y-63100000D01*
X150100000Y-64325000D02*
X151191722Y-64325000D01*
%TO.N,Net-(U2-PB5_MOSI1)*%
X153400000Y-64400000D02*
X153600000Y-64600000D01*
X153600000Y-64600000D02*
X153600000Y-67200000D01*
X153406250Y-63206250D02*
X153400000Y-63200000D01*
X153400000Y-63125000D02*
X153400000Y-64400000D01*
%TO.N,Net-(U2-PB6_TX1_SCL1_PWM)*%
X153100000Y-65000000D02*
X153100000Y-67543750D01*
X151900000Y-63800000D02*
X153100000Y-65000000D01*
X151900000Y-63125000D02*
X151900000Y-63800000D01*
X153100000Y-67543750D02*
X153156250Y-67600000D01*
%TD*%
%TA.AperFunction,Conductor*%
%TO.N,TX2*%
G36*
X144497935Y-53266831D02*
G01*
X144498808Y-53267620D01*
X144631958Y-53400770D01*
X144635385Y-53409043D01*
X144635192Y-53411161D01*
X144491762Y-54190426D01*
X144486894Y-54197942D01*
X144480265Y-54200008D01*
X143651012Y-54200697D01*
X143642736Y-54197277D01*
X143639302Y-54189008D01*
X143639991Y-53360568D01*
X143643425Y-53352299D01*
X143650515Y-53348938D01*
X144489361Y-53264252D01*
X144497935Y-53266831D01*
G37*
%TD.AperFunction*%
%TD*%
%TA.AperFunction,Conductor*%
%TO.N,EN*%
G36*
X156026319Y-96139003D02*
G01*
X156026452Y-96139134D01*
X156159700Y-96272382D01*
X156163127Y-96280655D01*
X156162785Y-96283462D01*
X155908559Y-97312086D01*
X155903247Y-97319295D01*
X155894394Y-97320637D01*
X155892735Y-97320093D01*
X155126533Y-97003696D01*
X155120194Y-96997371D01*
X155119299Y-96992874D01*
X155119990Y-96161503D01*
X155123424Y-96153235D01*
X155131501Y-96149816D01*
X156017995Y-96135708D01*
X156026319Y-96139003D01*
G37*
%TD.AperFunction*%
%TD*%
%TA.AperFunction,Conductor*%
%TO.N,~{RESET}*%
G36*
X148123951Y-53078081D02*
G01*
X149033827Y-53410517D01*
X149040422Y-53416574D01*
X149040801Y-53425521D01*
X149040626Y-53425972D01*
X148723696Y-54193466D01*
X148717371Y-54199805D01*
X148712872Y-54200700D01*
X147883011Y-54200010D01*
X147874741Y-54196576D01*
X147871321Y-54188300D01*
X147871387Y-54187077D01*
X147975080Y-53221045D01*
X147978439Y-53214024D01*
X148111666Y-53080797D01*
X148119938Y-53077371D01*
X148123951Y-53078081D01*
G37*
%TD.AperFunction*%
%TD*%
%TA.AperFunction,Conductor*%
%TO.N,GND*%
G36*
X140405703Y-74063175D02*
G01*
X140431887Y-74094888D01*
X140476527Y-74172208D01*
X140476529Y-74172211D01*
X140476530Y-74172212D01*
X141384788Y-75080470D01*
X141384790Y-75080471D01*
X141384794Y-75080474D01*
X141428122Y-75105489D01*
X141428124Y-75105490D01*
X141428128Y-75105492D01*
X141464712Y-75126614D01*
X141553856Y-75150500D01*
X141672713Y-75150500D01*
X141739752Y-75170185D01*
X141785507Y-75222989D01*
X141788895Y-75231168D01*
X141804785Y-75273773D01*
X141804787Y-75273777D01*
X141804788Y-75273778D01*
X141888884Y-75386116D01*
X142001222Y-75470212D01*
X142093594Y-75504665D01*
X142132700Y-75519251D01*
X142190809Y-75525499D01*
X142190826Y-75525500D01*
X142765956Y-75525500D01*
X142832995Y-75545185D01*
X142853637Y-75561819D01*
X143213181Y-75921363D01*
X143246666Y-75982686D01*
X143249500Y-76009044D01*
X143249500Y-76089477D01*
X143229815Y-76156516D01*
X143177011Y-76202271D01*
X143107853Y-76212215D01*
X143044297Y-76183190D01*
X143037819Y-76177158D01*
X142918345Y-76057684D01*
X142769124Y-75965643D01*
X142769119Y-75965641D01*
X142602697Y-75910494D01*
X142602690Y-75910493D01*
X142499986Y-75900000D01*
X142287500Y-75900000D01*
X142287500Y-78699999D01*
X142499972Y-78699999D01*
X142499986Y-78699998D01*
X142602697Y-78689505D01*
X142769119Y-78634358D01*
X142769124Y-78634356D01*
X142918345Y-78542315D01*
X143042315Y-78418345D01*
X143134356Y-78269124D01*
X143134358Y-78269119D01*
X143189505Y-78102697D01*
X143189506Y-78102690D01*
X143199999Y-77999986D01*
X143199999Y-77995058D01*
X143219675Y-77928016D01*
X143272474Y-77882255D01*
X143341631Y-77872303D01*
X143405190Y-77901320D01*
X143411680Y-77907362D01*
X143993999Y-78489680D01*
X144519531Y-79015212D01*
X144584788Y-79080469D01*
X144584791Y-79080470D01*
X144584794Y-79080473D01*
X144664706Y-79126611D01*
X144664707Y-79126611D01*
X144664712Y-79126614D01*
X144753856Y-79150500D01*
X147950500Y-79150500D01*
X148017539Y-79170185D01*
X148063294Y-79222989D01*
X148074500Y-79274500D01*
X148074500Y-80876000D01*
X148054815Y-80943039D01*
X148002011Y-80988794D01*
X147950500Y-81000000D01*
X143967000Y-81000000D01*
X143899961Y-80980315D01*
X143854206Y-80927511D01*
X143843000Y-80876000D01*
X143842999Y-80192394D01*
X143842998Y-80192390D01*
X143840082Y-80149367D01*
X143840082Y-80149365D01*
X143793834Y-79963397D01*
X143708692Y-79791724D01*
X143588634Y-79642366D01*
X143573416Y-79630133D01*
X143573415Y-79630133D01*
X142464456Y-80739094D01*
X142403133Y-80772579D01*
X142333441Y-80767595D01*
X142289094Y-80739094D01*
X142200000Y-80650000D01*
X142110905Y-80739095D01*
X142049582Y-80772580D01*
X141979890Y-80767596D01*
X141935543Y-80739095D01*
X140826581Y-79630133D01*
X140811370Y-79642362D01*
X140811362Y-79642369D01*
X140691307Y-79791724D01*
X140606165Y-79963397D01*
X140559918Y-80149359D01*
X140557000Y-80192395D01*
X140557001Y-80876000D01*
X140537317Y-80943039D01*
X140484513Y-80988794D01*
X140433001Y-81000000D01*
X140324500Y-81000000D01*
X140257461Y-80980315D01*
X140211706Y-80927511D01*
X140200500Y-80876000D01*
X140200500Y-79395676D01*
X141299228Y-79395676D01*
X142199999Y-80296447D01*
X143100770Y-79395676D01*
X143100769Y-79395675D01*
X143081643Y-79390919D01*
X143081638Y-79390918D01*
X143038604Y-79388000D01*
X141361394Y-79388000D01*
X141361390Y-79388001D01*
X141318370Y-79390917D01*
X141318367Y-79390917D01*
X141299228Y-79395676D01*
X140200500Y-79395676D01*
X140200500Y-77999986D01*
X140875001Y-77999986D01*
X140885494Y-78102697D01*
X140940641Y-78269119D01*
X140940643Y-78269124D01*
X141032684Y-78418345D01*
X141156654Y-78542315D01*
X141305875Y-78634356D01*
X141305880Y-78634358D01*
X141472302Y-78689505D01*
X141472309Y-78689506D01*
X141575019Y-78699999D01*
X141787499Y-78699999D01*
X141787500Y-78699998D01*
X141787500Y-77550000D01*
X140875001Y-77550000D01*
X140875001Y-77999986D01*
X140200500Y-77999986D01*
X140200500Y-76600013D01*
X140875000Y-76600013D01*
X140875000Y-77050000D01*
X141787500Y-77050000D01*
X141787500Y-75900000D01*
X141575029Y-75900000D01*
X141575012Y-75900001D01*
X141472302Y-75910494D01*
X141305880Y-75965641D01*
X141305875Y-75965643D01*
X141156654Y-76057684D01*
X141032684Y-76181654D01*
X140940643Y-76330875D01*
X140940641Y-76330880D01*
X140885494Y-76497302D01*
X140885493Y-76497309D01*
X140875000Y-76600013D01*
X140200500Y-76600013D01*
X140200500Y-74156888D01*
X140220185Y-74089849D01*
X140272989Y-74044094D01*
X140342147Y-74034150D01*
X140405703Y-74063175D01*
G37*
%TD.AperFunction*%
%TA.AperFunction,Conductor*%
G36*
X152779014Y-79826167D02*
G01*
X152913181Y-79960334D01*
X152946666Y-80021657D01*
X152949500Y-80048015D01*
X152949500Y-80151985D01*
X152929815Y-80219024D01*
X152913181Y-80239666D01*
X152189166Y-80963681D01*
X152127843Y-80997166D01*
X152101485Y-81000000D01*
X150157330Y-81000000D01*
X150090291Y-80980315D01*
X150044536Y-80927511D01*
X150034592Y-80858353D01*
X150063617Y-80794797D01*
X150081843Y-80777625D01*
X150132055Y-80739095D01*
X150192621Y-80692621D01*
X150280861Y-80577625D01*
X150336330Y-80443709D01*
X150355250Y-80300000D01*
X150355250Y-80299999D01*
X150355250Y-80291871D01*
X150359049Y-80291871D01*
X150366388Y-80240418D01*
X150391556Y-80204124D01*
X150678630Y-79917050D01*
X150739951Y-79883567D01*
X150809643Y-79888551D01*
X150864683Y-79929245D01*
X150887715Y-79959259D01*
X150888991Y-79960922D01*
X151003987Y-80049162D01*
X151137903Y-80104631D01*
X151264892Y-80121349D01*
X151281611Y-80123551D01*
X151281612Y-80123551D01*
X151281613Y-80123551D01*
X151296589Y-80121579D01*
X151425321Y-80104631D01*
X151559237Y-80049162D01*
X151658136Y-79973273D01*
X151723304Y-79948079D01*
X151791749Y-79962117D01*
X151809109Y-79973274D01*
X151858069Y-80010843D01*
X151858070Y-80010843D01*
X151858071Y-80010844D01*
X151991987Y-80066313D01*
X152116616Y-80082721D01*
X152135695Y-80085233D01*
X152135696Y-80085233D01*
X152135697Y-80085233D01*
X152154776Y-80082721D01*
X152279405Y-80066313D01*
X152413321Y-80010844D01*
X152528317Y-79922604D01*
X152592960Y-79838359D01*
X152649384Y-79797159D01*
X152719130Y-79793004D01*
X152779014Y-79826167D01*
G37*
%TD.AperFunction*%
%TA.AperFunction,Conductor*%
G36*
X157070495Y-52870185D02*
G01*
X157091137Y-52886819D01*
X157646861Y-53442543D01*
X157680346Y-53503866D01*
X157682122Y-53514061D01*
X157775223Y-54222224D01*
X157775227Y-54222256D01*
X157775334Y-54223075D01*
X157776404Y-54228040D01*
X157775860Y-54228157D01*
X157778780Y-54243122D01*
X157793603Y-54403082D01*
X157849417Y-54599247D01*
X157849422Y-54599260D01*
X157940327Y-54781821D01*
X158063237Y-54944581D01*
X158194829Y-55064542D01*
X158211972Y-55080170D01*
X158213958Y-55081980D01*
X158213960Y-55081982D01*
X158257879Y-55109175D01*
X158387363Y-55189348D01*
X158577544Y-55263024D01*
X158778024Y-55300500D01*
X158778026Y-55300500D01*
X158981974Y-55300500D01*
X158981976Y-55300500D01*
X159182456Y-55263024D01*
X159372637Y-55189348D01*
X159546041Y-55081981D01*
X159591962Y-55040118D01*
X159654765Y-55009501D01*
X159724152Y-55017698D01*
X159778092Y-55062107D01*
X159799461Y-55128629D01*
X159799500Y-55131755D01*
X159799500Y-80876000D01*
X159779815Y-80943039D01*
X159727011Y-80988794D01*
X159675500Y-81000000D01*
X159567000Y-81000000D01*
X159499961Y-80980315D01*
X159454206Y-80927511D01*
X159443000Y-80876000D01*
X159442999Y-80192393D01*
X159442998Y-80192389D01*
X159440082Y-80149366D01*
X159440082Y-80149364D01*
X159393834Y-79963396D01*
X159308692Y-79791723D01*
X159188634Y-79642365D01*
X159173415Y-79630132D01*
X158064456Y-80739093D01*
X158003133Y-80772578D01*
X157933441Y-80767594D01*
X157889094Y-80739093D01*
X157800000Y-80649999D01*
X157710905Y-80739094D01*
X157649582Y-80772579D01*
X157579890Y-80767595D01*
X157535543Y-80739094D01*
X156426581Y-79630132D01*
X156411370Y-79642361D01*
X156411362Y-79642368D01*
X156291307Y-79791723D01*
X156206165Y-79963396D01*
X156159918Y-80149358D01*
X156157000Y-80192394D01*
X156157001Y-80876000D01*
X156137317Y-80943039D01*
X156084513Y-80988794D01*
X156033001Y-81000000D01*
X154874500Y-81000000D01*
X154807461Y-80980315D01*
X154761706Y-80927511D01*
X154750500Y-80876000D01*
X154750500Y-80468896D01*
X154770185Y-80401857D01*
X154822989Y-80356102D01*
X154890685Y-80345957D01*
X154964320Y-80355651D01*
X154999999Y-80360349D01*
X155000000Y-80360349D01*
X155000001Y-80360349D01*
X155014977Y-80358377D01*
X155143709Y-80341429D01*
X155277625Y-80285960D01*
X155392621Y-80197720D01*
X155480861Y-80082724D01*
X155536330Y-79948808D01*
X155555250Y-79805099D01*
X155536330Y-79661390D01*
X155480861Y-79527474D01*
X155392621Y-79412478D01*
X155392619Y-79412476D01*
X155392615Y-79412471D01*
X155386871Y-79406727D01*
X155389387Y-79404210D01*
X155383159Y-79395675D01*
X156899228Y-79395675D01*
X157799999Y-80296446D01*
X158700770Y-79395675D01*
X158700769Y-79395674D01*
X158681643Y-79390918D01*
X158681638Y-79390917D01*
X158638604Y-79387999D01*
X156961394Y-79387999D01*
X156961390Y-79388000D01*
X156918370Y-79390916D01*
X156918367Y-79390916D01*
X156899228Y-79395675D01*
X155383159Y-79395675D01*
X155357797Y-79360916D01*
X155350500Y-79319007D01*
X155350500Y-77811654D01*
X156543751Y-77811654D01*
X156554069Y-77912652D01*
X156608296Y-78076300D01*
X156608301Y-78076311D01*
X156698802Y-78223034D01*
X156698805Y-78223038D01*
X156820711Y-78344944D01*
X156820715Y-78344947D01*
X156967438Y-78435448D01*
X156967449Y-78435453D01*
X157131097Y-78489680D01*
X157232102Y-78499999D01*
X157268750Y-78499999D01*
X157768750Y-78499999D01*
X157805390Y-78499999D01*
X157805404Y-78499998D01*
X157906402Y-78489680D01*
X158070050Y-78435453D01*
X158070061Y-78435448D01*
X158216784Y-78344947D01*
X158216788Y-78344944D01*
X158338694Y-78223038D01*
X158338697Y-78223034D01*
X158429198Y-78076311D01*
X158429203Y-78076300D01*
X158483430Y-77912652D01*
X158493749Y-77811654D01*
X158493750Y-77811641D01*
X158493750Y-77712500D01*
X157768750Y-77712500D01*
X157768750Y-78499999D01*
X157268750Y-78499999D01*
X157268750Y-77712500D01*
X156543751Y-77712500D01*
X156543751Y-77811654D01*
X155350500Y-77811654D01*
X155350500Y-76807042D01*
X155350230Y-76804993D01*
X155350500Y-76803261D01*
X155350500Y-76798914D01*
X155351178Y-76798914D01*
X155360992Y-76735957D01*
X155407368Y-76683699D01*
X155425716Y-76674240D01*
X155471229Y-76655388D01*
X155471231Y-76655386D01*
X155591345Y-76563219D01*
X155619032Y-76527138D01*
X155675459Y-76485935D01*
X155715341Y-76478984D01*
X155715335Y-76478890D01*
X155716211Y-76478832D01*
X155717407Y-76478624D01*
X155719388Y-76478624D01*
X155766795Y-76472384D01*
X155870829Y-76423872D01*
X155951997Y-76342704D01*
X156000509Y-76238670D01*
X156006750Y-76191264D01*
X156006749Y-75637167D01*
X156026433Y-75570129D01*
X156043064Y-75549491D01*
X156175400Y-75417154D01*
X156236723Y-75383670D01*
X156306415Y-75388654D01*
X156350762Y-75417155D01*
X156756931Y-75823324D01*
X156790416Y-75884647D01*
X156793250Y-75911005D01*
X156793250Y-76084190D01*
X156799498Y-76142299D01*
X156823334Y-76206204D01*
X156848538Y-76273778D01*
X156848539Y-76273779D01*
X156848540Y-76273782D01*
X156915288Y-76362945D01*
X156939706Y-76428409D01*
X156924855Y-76496682D01*
X156881120Y-76542794D01*
X156820712Y-76580054D01*
X156698805Y-76701961D01*
X156698802Y-76701965D01*
X156608301Y-76848688D01*
X156608296Y-76848699D01*
X156554069Y-77012347D01*
X156543750Y-77113345D01*
X156543750Y-77212500D01*
X158493749Y-77212500D01*
X158493749Y-77113360D01*
X158493748Y-77113345D01*
X158483430Y-77012347D01*
X158429203Y-76848699D01*
X158429198Y-76848688D01*
X158338697Y-76701965D01*
X158338694Y-76701961D01*
X158216787Y-76580054D01*
X158156380Y-76542794D01*
X158109656Y-76490845D01*
X158098435Y-76421883D01*
X158122212Y-76362945D01*
X158188959Y-76273782D01*
X158188958Y-76273782D01*
X158188962Y-76273778D01*
X158238001Y-76142299D01*
X158244249Y-76084190D01*
X158244250Y-76084173D01*
X158244250Y-75390826D01*
X158244249Y-75390809D01*
X158238001Y-75332700D01*
X158223415Y-75293594D01*
X158188962Y-75201222D01*
X158104866Y-75088884D01*
X158037362Y-75038351D01*
X157992530Y-75004789D01*
X157992528Y-75004788D01*
X157958124Y-74991956D01*
X157861049Y-74955748D01*
X157802940Y-74949500D01*
X157802924Y-74949500D01*
X157234576Y-74949500D01*
X157234559Y-74949500D01*
X157176454Y-74955748D01*
X157176450Y-74955749D01*
X157138724Y-74969820D01*
X157069032Y-74974803D01*
X157007711Y-74941318D01*
X156756698Y-74690305D01*
X156723213Y-74628982D01*
X156728197Y-74559290D01*
X156770069Y-74503357D01*
X156835533Y-74478940D01*
X156844379Y-74478624D01*
X157719383Y-74478624D01*
X157719388Y-74478624D01*
X157766795Y-74472384D01*
X157870829Y-74423872D01*
X157951997Y-74342704D01*
X158000509Y-74238670D01*
X158006750Y-74191264D01*
X158006749Y-73964987D01*
X158000509Y-73917580D01*
X157983232Y-73880529D01*
X157972740Y-73811451D01*
X157983230Y-73775724D01*
X158000509Y-73738670D01*
X158006750Y-73691264D01*
X158006749Y-73464987D01*
X158000509Y-73417580D01*
X157983232Y-73380529D01*
X157972740Y-73311451D01*
X157983230Y-73275724D01*
X158000509Y-73238670D01*
X158006750Y-73191264D01*
X158006749Y-72964987D01*
X158000509Y-72917580D01*
X157995712Y-72907294D01*
X157983232Y-72880529D01*
X157972740Y-72811451D01*
X157983230Y-72775724D01*
X158000509Y-72738670D01*
X158006750Y-72691264D01*
X158006749Y-72464987D01*
X158000509Y-72417580D01*
X157983232Y-72380529D01*
X157972740Y-72311451D01*
X157983230Y-72275724D01*
X158000509Y-72238670D01*
X158006750Y-72191264D01*
X158006749Y-71964987D01*
X158000509Y-71917580D01*
X157983232Y-71880529D01*
X157972740Y-71811451D01*
X157983230Y-71775724D01*
X158000509Y-71738670D01*
X158006750Y-71691264D01*
X158006749Y-71464987D01*
X158000509Y-71417580D01*
X157995712Y-71407294D01*
X157983232Y-71380529D01*
X157972740Y-71311451D01*
X157983230Y-71275724D01*
X158000509Y-71238670D01*
X158006750Y-71191264D01*
X158006749Y-70964987D01*
X158000509Y-70917580D01*
X157983232Y-70880529D01*
X157972740Y-70811451D01*
X157983230Y-70775724D01*
X158000509Y-70738670D01*
X158006750Y-70691264D01*
X158006749Y-70464987D01*
X158000509Y-70417580D01*
X157983232Y-70380529D01*
X157972740Y-70311451D01*
X157983230Y-70275724D01*
X158000509Y-70238670D01*
X158006750Y-70191264D01*
X158006749Y-70052624D01*
X158026433Y-69985586D01*
X158079237Y-69939831D01*
X158130749Y-69928625D01*
X158618017Y-69928625D01*
X158618019Y-69928625D01*
X158707163Y-69904739D01*
X158714468Y-69900521D01*
X158741718Y-69884789D01*
X158741719Y-69884788D01*
X158787087Y-69858595D01*
X159230470Y-69415212D01*
X159276614Y-69335288D01*
X159286697Y-69297656D01*
X159300500Y-69246144D01*
X159300500Y-67040259D01*
X159276614Y-66951115D01*
X159276613Y-66951113D01*
X159268868Y-66937698D01*
X159230472Y-66871194D01*
X159230468Y-66871189D01*
X158395186Y-66035907D01*
X158361701Y-65974584D01*
X158366685Y-65904892D01*
X158377329Y-65883127D01*
X158410452Y-65829427D01*
X158410453Y-65829425D01*
X158464680Y-65665777D01*
X158474999Y-65564779D01*
X158475000Y-65564766D01*
X158475000Y-65465625D01*
X157624000Y-65465625D01*
X157556961Y-65445940D01*
X157511206Y-65393136D01*
X157500000Y-65341625D01*
X157500000Y-65215625D01*
X157374000Y-65215625D01*
X157306961Y-65195940D01*
X157261206Y-65143136D01*
X157250000Y-65091625D01*
X157250000Y-64965625D01*
X157750000Y-64965625D01*
X158474999Y-64965625D01*
X158474999Y-64866485D01*
X158474998Y-64866470D01*
X158464680Y-64765472D01*
X158410453Y-64601824D01*
X158410448Y-64601813D01*
X158319947Y-64455090D01*
X158319944Y-64455086D01*
X158198038Y-64333180D01*
X158198034Y-64333177D01*
X158051311Y-64242676D01*
X158051300Y-64242671D01*
X157887652Y-64188444D01*
X157786654Y-64178125D01*
X157750000Y-64178125D01*
X157750000Y-64965625D01*
X157250000Y-64965625D01*
X157250000Y-64178125D01*
X157213361Y-64178125D01*
X157213335Y-64178127D01*
X157212083Y-64178255D01*
X157211813Y-64178204D01*
X157210199Y-64178287D01*
X157210179Y-64177900D01*
X157143392Y-64165475D01*
X157092515Y-64117587D01*
X157075500Y-64054895D01*
X157075500Y-60936000D01*
X157095185Y-60868961D01*
X157147989Y-60823206D01*
X157199500Y-60812000D01*
X158638607Y-60812000D01*
X158638609Y-60811999D01*
X158681634Y-60809083D01*
X158700771Y-60804324D01*
X158700771Y-60804323D01*
X157710905Y-59814457D01*
X157677420Y-59753134D01*
X157682404Y-59683442D01*
X157710905Y-59639094D01*
X157799999Y-59550000D01*
X157799998Y-59549999D01*
X158153551Y-59549999D01*
X158153551Y-59550000D01*
X159173416Y-60569865D01*
X159173417Y-60569865D01*
X159188631Y-60557636D01*
X159308693Y-60408273D01*
X159393834Y-60236603D01*
X159440081Y-60050641D01*
X159442999Y-60007605D01*
X159442999Y-59092395D01*
X159442998Y-59092391D01*
X159440082Y-59049368D01*
X159440082Y-59049366D01*
X159393834Y-58863398D01*
X159308692Y-58691725D01*
X159188634Y-58542367D01*
X159173416Y-58530134D01*
X159173415Y-58530134D01*
X158153551Y-59549999D01*
X157799998Y-59549999D01*
X157710904Y-59460905D01*
X157677419Y-59399582D01*
X157682403Y-59329890D01*
X157710904Y-59285543D01*
X158700770Y-58295677D01*
X158700769Y-58295676D01*
X158681643Y-58290920D01*
X158681638Y-58290919D01*
X158638604Y-58288001D01*
X156961394Y-58288001D01*
X156961390Y-58288002D01*
X156918362Y-58290918D01*
X156870820Y-58302741D01*
X156801012Y-58299816D01*
X156743867Y-58259614D01*
X156742561Y-58257943D01*
X156733121Y-58245642D01*
X156707930Y-58180473D01*
X156707500Y-58170159D01*
X156707500Y-55601204D01*
X156727185Y-55534165D01*
X156730957Y-55528629D01*
X156731560Y-55527794D01*
X157136902Y-54966242D01*
X157153908Y-54947181D01*
X157156764Y-54944579D01*
X157156767Y-54944574D01*
X157156770Y-54944572D01*
X157279671Y-54781824D01*
X157279671Y-54781822D01*
X157279673Y-54781821D01*
X157370582Y-54599250D01*
X157426397Y-54403083D01*
X157445215Y-54200000D01*
X157439115Y-54134174D01*
X157426397Y-53996917D01*
X157370582Y-53800750D01*
X157370159Y-53799901D01*
X157309500Y-53678080D01*
X157279673Y-53618179D01*
X157187766Y-53496474D01*
X157156762Y-53455418D01*
X157006041Y-53318019D01*
X157006039Y-53318017D01*
X156832642Y-53210655D01*
X156832639Y-53210653D01*
X156832637Y-53210652D01*
X156832636Y-53210651D01*
X156832635Y-53210651D01*
X156714046Y-53164710D01*
X156642456Y-53136976D01*
X156441976Y-53099500D01*
X156238024Y-53099500D01*
X156211608Y-53104438D01*
X156088212Y-53127504D01*
X156018697Y-53120472D01*
X155964019Y-53076975D01*
X155941537Y-53010821D01*
X155958390Y-52943014D01*
X155977741Y-52917940D01*
X156008866Y-52886815D01*
X156070188Y-52853333D01*
X156096544Y-52850500D01*
X157003456Y-52850500D01*
X157070495Y-52870185D01*
G37*
%TD.AperFunction*%
%TA.AperFunction,Conductor*%
G36*
X149973823Y-76476085D02*
G01*
X149993111Y-76478625D01*
X150131750Y-76478624D01*
X150198789Y-76498308D01*
X150244544Y-76551112D01*
X150255750Y-76602624D01*
X150255750Y-79297205D01*
X150236065Y-79364244D01*
X150219431Y-79384886D01*
X149895877Y-79708439D01*
X149834554Y-79741924D01*
X149808128Y-79743208D01*
X149808128Y-79744750D01*
X149800000Y-79744750D01*
X149656291Y-79763670D01*
X149656287Y-79763671D01*
X149522377Y-79819137D01*
X149407379Y-79907379D01*
X149319138Y-80022376D01*
X149314061Y-80034635D01*
X149270219Y-80089038D01*
X149203925Y-80111102D01*
X149136225Y-80093822D01*
X149088615Y-80042684D01*
X149075500Y-79987181D01*
X149075500Y-77527832D01*
X149095185Y-77460793D01*
X149125186Y-77428567D01*
X149211116Y-77364241D01*
X149295212Y-77251903D01*
X149344251Y-77120424D01*
X149350499Y-77062315D01*
X149350500Y-77062298D01*
X149350500Y-76776962D01*
X149370185Y-76709923D01*
X149422989Y-76664168D01*
X149490690Y-76654024D01*
X149500000Y-76655250D01*
X149643709Y-76636330D01*
X149777625Y-76580861D01*
X149882157Y-76500649D01*
X149947326Y-76475455D01*
X149973823Y-76476085D01*
G37*
%TD.AperFunction*%
%TA.AperFunction,Conductor*%
G36*
X147900688Y-74451822D02*
G01*
X147909752Y-74455619D01*
X147945705Y-74472384D01*
X147949577Y-74472893D01*
X147953683Y-74474710D01*
X147954816Y-74475040D01*
X147954771Y-74475191D01*
X148013474Y-74501156D01*
X148051948Y-74559478D01*
X148056336Y-74612019D01*
X148044753Y-74699999D01*
X148044753Y-74700000D01*
X148063673Y-74843708D01*
X148063674Y-74843712D01*
X148119140Y-74977622D01*
X148119141Y-74977624D01*
X148119142Y-74977625D01*
X148207382Y-75092621D01*
X148322378Y-75180861D01*
X148456294Y-75236330D01*
X148464127Y-75237361D01*
X148528024Y-75265626D01*
X148566495Y-75323950D01*
X148567328Y-75393815D01*
X148535625Y-75447981D01*
X148254519Y-75729088D01*
X148201793Y-75820411D01*
X148184544Y-75884788D01*
X148174500Y-75922271D01*
X148174500Y-75975837D01*
X148154815Y-76042876D01*
X148102011Y-76088631D01*
X148093836Y-76092018D01*
X148051222Y-76107912D01*
X148051221Y-76107913D01*
X147938884Y-76192009D01*
X147854787Y-76304347D01*
X147816181Y-76407854D01*
X147774310Y-76463788D01*
X147708845Y-76488204D01*
X147640572Y-76473352D01*
X147591167Y-76423946D01*
X147583819Y-76407854D01*
X147545212Y-76304347D01*
X147496046Y-76238670D01*
X147461116Y-76192009D01*
X147366439Y-76121134D01*
X147348780Y-76107914D01*
X147348778Y-76107913D01*
X147306162Y-76092018D01*
X147217299Y-76058873D01*
X147159190Y-76052625D01*
X147159174Y-76052625D01*
X146646544Y-76052625D01*
X146579505Y-76032940D01*
X146558863Y-76016306D01*
X146515209Y-75972652D01*
X146481724Y-75911329D01*
X146486708Y-75841637D01*
X146515208Y-75797290D01*
X146549998Y-75762499D01*
X147050000Y-75762499D01*
X147086640Y-75762499D01*
X147086654Y-75762498D01*
X147187652Y-75752180D01*
X147351300Y-75697953D01*
X147351311Y-75697948D01*
X147498034Y-75607447D01*
X147498038Y-75607444D01*
X147619944Y-75485538D01*
X147619947Y-75485534D01*
X147710448Y-75338811D01*
X147710453Y-75338800D01*
X147764680Y-75175152D01*
X147774999Y-75074154D01*
X147775000Y-75074141D01*
X147775000Y-74975000D01*
X147050000Y-74975000D01*
X147050000Y-75762499D01*
X146549998Y-75762499D01*
X146550000Y-75762497D01*
X146550000Y-74849000D01*
X146569685Y-74781961D01*
X146622489Y-74736206D01*
X146674000Y-74725000D01*
X146800000Y-74725000D01*
X146800000Y-74599000D01*
X146819685Y-74531961D01*
X146872489Y-74486206D01*
X146924000Y-74475000D01*
X147779423Y-74475000D01*
X147830996Y-74446838D01*
X147900688Y-74451822D01*
G37*
%TD.AperFunction*%
%TA.AperFunction,Conductor*%
G36*
X154992539Y-73470185D02*
G01*
X155038294Y-73522989D01*
X155049500Y-73574500D01*
X155049500Y-74002728D01*
X155075805Y-74100903D01*
X155074142Y-74170753D01*
X155034978Y-74228615D01*
X154972217Y-74255934D01*
X154881145Y-74267925D01*
X154881141Y-74267926D01*
X154741271Y-74325861D01*
X154621152Y-74418033D01*
X154593465Y-74454114D01*
X154537036Y-74495315D01*
X154497157Y-74502268D01*
X154497164Y-74502360D01*
X154496311Y-74502415D01*
X154495112Y-74502625D01*
X154493112Y-74502625D01*
X154445709Y-74508865D01*
X154445701Y-74508867D01*
X154408653Y-74526143D01*
X154339575Y-74536634D01*
X154303846Y-74526143D01*
X154281699Y-74515816D01*
X154266795Y-74508866D01*
X154266791Y-74508865D01*
X154219390Y-74502625D01*
X153993118Y-74502625D01*
X153987558Y-74503357D01*
X153945705Y-74508866D01*
X153945703Y-74508867D01*
X153945701Y-74508867D01*
X153908653Y-74526143D01*
X153839575Y-74536634D01*
X153803846Y-74526143D01*
X153781699Y-74515816D01*
X153766795Y-74508866D01*
X153766791Y-74508865D01*
X153719390Y-74502625D01*
X153493118Y-74502625D01*
X153487558Y-74503357D01*
X153445705Y-74508866D01*
X153445703Y-74508867D01*
X153445701Y-74508867D01*
X153408653Y-74526143D01*
X153339575Y-74536634D01*
X153303846Y-74526143D01*
X153281699Y-74515816D01*
X153266795Y-74508866D01*
X153266791Y-74508865D01*
X153219390Y-74502625D01*
X152993118Y-74502625D01*
X152987558Y-74503357D01*
X152945705Y-74508866D01*
X152945703Y-74508867D01*
X152945701Y-74508867D01*
X152908653Y-74526143D01*
X152839575Y-74536634D01*
X152803846Y-74526143D01*
X152781699Y-74515816D01*
X152766795Y-74508866D01*
X152766791Y-74508865D01*
X152719390Y-74502625D01*
X152493118Y-74502625D01*
X152487558Y-74503357D01*
X152445705Y-74508866D01*
X152445703Y-74508867D01*
X152445701Y-74508867D01*
X152408653Y-74526143D01*
X152339575Y-74536634D01*
X152303846Y-74526143D01*
X152281699Y-74515816D01*
X152266795Y-74508866D01*
X152266791Y-74508865D01*
X152219390Y-74502625D01*
X151993118Y-74502625D01*
X151987558Y-74503357D01*
X151945705Y-74508866D01*
X151945703Y-74508867D01*
X151945701Y-74508867D01*
X151908653Y-74526143D01*
X151839575Y-74536634D01*
X151803846Y-74526143D01*
X151781699Y-74515816D01*
X151766795Y-74508866D01*
X151766791Y-74508865D01*
X151719390Y-74502625D01*
X151493118Y-74502625D01*
X151487558Y-74503357D01*
X151445705Y-74508866D01*
X151445703Y-74508867D01*
X151445701Y-74508867D01*
X151408653Y-74526143D01*
X151339575Y-74536634D01*
X151303846Y-74526143D01*
X151281699Y-74515816D01*
X151266795Y-74508866D01*
X151266791Y-74508865D01*
X151219390Y-74502625D01*
X150993118Y-74502625D01*
X150987558Y-74503357D01*
X150945705Y-74508866D01*
X150945703Y-74508867D01*
X150945701Y-74508867D01*
X150908653Y-74526143D01*
X150839575Y-74536634D01*
X150803846Y-74526143D01*
X150781699Y-74515816D01*
X150766795Y-74508866D01*
X150766791Y-74508865D01*
X150719390Y-74502625D01*
X150493118Y-74502625D01*
X150487558Y-74503357D01*
X150445705Y-74508866D01*
X150445703Y-74508867D01*
X150445701Y-74508867D01*
X150408653Y-74526143D01*
X150339575Y-74536634D01*
X150303847Y-74526143D01*
X150288286Y-74518887D01*
X150235846Y-74472715D01*
X150216693Y-74405522D01*
X150220914Y-74374414D01*
X150231751Y-74333972D01*
X150231751Y-74228518D01*
X150231751Y-74220923D01*
X150231750Y-74220905D01*
X150231750Y-73736004D01*
X150251435Y-73668965D01*
X150268069Y-73648323D01*
X150429573Y-73486819D01*
X150490896Y-73453334D01*
X150517254Y-73450500D01*
X154925500Y-73450500D01*
X154992539Y-73470185D01*
G37*
%TD.AperFunction*%
%TA.AperFunction,Conductor*%
G36*
X142761789Y-71332185D02*
G01*
X142807544Y-71384989D01*
X142818750Y-71436500D01*
X142818750Y-72578638D01*
X142806250Y-72621207D01*
X142806250Y-73097875D01*
X142786565Y-73164914D01*
X142733761Y-73210669D01*
X142682250Y-73221875D01*
X142430250Y-73221875D01*
X142363211Y-73202190D01*
X142317456Y-73149386D01*
X142306250Y-73097875D01*
X142306250Y-72180737D01*
X142318750Y-72138167D01*
X142318750Y-71436500D01*
X142338435Y-71369461D01*
X142391239Y-71323706D01*
X142442750Y-71312500D01*
X142694750Y-71312500D01*
X142761789Y-71332185D01*
G37*
%TD.AperFunction*%
%TA.AperFunction,Conductor*%
G36*
X149886951Y-69003790D02*
G01*
X149893430Y-69009823D01*
X150313181Y-69429574D01*
X150346666Y-69490897D01*
X150349500Y-69517255D01*
X150349500Y-72527295D01*
X150329815Y-72594334D01*
X150277011Y-72640089D01*
X150254869Y-72646451D01*
X150255123Y-72647396D01*
X150247275Y-72649499D01*
X150247273Y-72649499D01*
X150158128Y-72673386D01*
X150158127Y-72673385D01*
X150145414Y-72676792D01*
X150145410Y-72676794D01*
X150054085Y-72729521D01*
X150011944Y-72771663D01*
X149979520Y-72804087D01*
X149979518Y-72804089D01*
X149904031Y-72879576D01*
X149861318Y-72922289D01*
X149799995Y-72955773D01*
X149730303Y-72950789D01*
X149674370Y-72908917D01*
X149661254Y-72887011D01*
X149658231Y-72880529D01*
X149658230Y-72880527D01*
X149647740Y-72811450D01*
X149658230Y-72775724D01*
X149675509Y-72738670D01*
X149681750Y-72691264D01*
X149681749Y-72689299D01*
X149681915Y-72688736D01*
X149682015Y-72687213D01*
X149682355Y-72687235D01*
X149701422Y-72622260D01*
X149730265Y-72590905D01*
X149766344Y-72563221D01*
X149858511Y-72443106D01*
X149858513Y-72443104D01*
X149916448Y-72303233D01*
X149916449Y-72303228D01*
X149926338Y-72228125D01*
X149564198Y-72228125D01*
X149511794Y-72216507D01*
X149456035Y-72190506D01*
X149403597Y-72144335D01*
X149384445Y-72077141D01*
X149404661Y-72010260D01*
X149456035Y-71965743D01*
X149511794Y-71939742D01*
X149564198Y-71928125D01*
X149926338Y-71928125D01*
X149926338Y-71928124D01*
X149916449Y-71853021D01*
X149916448Y-71853016D01*
X149858513Y-71713146D01*
X149766343Y-71593028D01*
X149730260Y-71565340D01*
X149689059Y-71508911D01*
X149682109Y-71469033D01*
X149682015Y-71469040D01*
X149681957Y-71468162D01*
X149681749Y-71466966D01*
X149681749Y-71464992D01*
X149681749Y-71464987D01*
X149675509Y-71417580D01*
X149670712Y-71407294D01*
X149658232Y-71380529D01*
X149647740Y-71311451D01*
X149658230Y-71275724D01*
X149675509Y-71238670D01*
X149681750Y-71191264D01*
X149681749Y-70964987D01*
X149675509Y-70917580D01*
X149658232Y-70880529D01*
X149647740Y-70811451D01*
X149658230Y-70775724D01*
X149675509Y-70738670D01*
X149681750Y-70691264D01*
X149681749Y-70464987D01*
X149675509Y-70417580D01*
X149658232Y-70380529D01*
X149647740Y-70311451D01*
X149658230Y-70275724D01*
X149675509Y-70238670D01*
X149681750Y-70191264D01*
X149681749Y-69964987D01*
X149675509Y-69917580D01*
X149660218Y-69884788D01*
X149658232Y-69880529D01*
X149647740Y-69811451D01*
X149658230Y-69775724D01*
X149675509Y-69738670D01*
X149681750Y-69691264D01*
X149681749Y-69464987D01*
X149675509Y-69417580D01*
X149658232Y-69380529D01*
X149647740Y-69311451D01*
X149658230Y-69275724D01*
X149675509Y-69238670D01*
X149681750Y-69191264D01*
X149681749Y-69097503D01*
X149701433Y-69030466D01*
X149754236Y-68984710D01*
X149823395Y-68974766D01*
X149886951Y-69003790D01*
G37*
%TD.AperFunction*%
%TA.AperFunction,Conductor*%
G36*
X152174113Y-67876535D02*
G01*
X152218630Y-67927910D01*
X152244631Y-67983667D01*
X152256250Y-68036073D01*
X152256250Y-68398211D01*
X152256251Y-68398212D01*
X152331348Y-68388326D01*
X152331353Y-68388325D01*
X152471229Y-68330387D01*
X152471231Y-68330386D01*
X152591345Y-68238219D01*
X152619032Y-68202138D01*
X152675459Y-68160935D01*
X152715341Y-68153984D01*
X152715335Y-68153890D01*
X152716211Y-68153832D01*
X152717407Y-68153624D01*
X152719388Y-68153624D01*
X152766795Y-68147384D01*
X152803845Y-68130106D01*
X152872922Y-68119615D01*
X152908654Y-68130106D01*
X152945705Y-68147384D01*
X152993111Y-68153625D01*
X153219388Y-68153624D01*
X153266795Y-68147384D01*
X153303845Y-68130106D01*
X153372922Y-68119615D01*
X153408654Y-68130106D01*
X153445705Y-68147384D01*
X153493111Y-68153625D01*
X153719388Y-68153624D01*
X153766795Y-68147384D01*
X153803845Y-68130106D01*
X153872922Y-68119615D01*
X153908654Y-68130106D01*
X153945705Y-68147384D01*
X153993111Y-68153625D01*
X154219388Y-68153624D01*
X154266795Y-68147384D01*
X154303845Y-68130106D01*
X154372922Y-68119615D01*
X154408654Y-68130106D01*
X154445705Y-68147384D01*
X154493111Y-68153625D01*
X154719388Y-68153624D01*
X154766795Y-68147384D01*
X154803845Y-68130106D01*
X154872922Y-68119615D01*
X154908654Y-68130106D01*
X154945705Y-68147384D01*
X154993111Y-68153625D01*
X155180619Y-68153624D01*
X155247659Y-68173308D01*
X155293414Y-68226112D01*
X155303358Y-68295270D01*
X155274333Y-68358826D01*
X155268302Y-68365305D01*
X155129519Y-68504088D01*
X155094155Y-68565340D01*
X155076793Y-68595412D01*
X155060626Y-68655749D01*
X155060626Y-68655750D01*
X155060625Y-68655749D01*
X155049500Y-68697269D01*
X155049500Y-72525500D01*
X155029815Y-72592539D01*
X154977011Y-72638294D01*
X154925500Y-72649500D01*
X151274500Y-72649500D01*
X151207461Y-72629815D01*
X151161706Y-72577011D01*
X151150500Y-72525500D01*
X151150500Y-69247275D01*
X151150500Y-69247273D01*
X151135492Y-69191263D01*
X151123207Y-69145412D01*
X151070480Y-69054087D01*
X150632149Y-68615756D01*
X150599770Y-68556459D01*
X150551047Y-68534208D01*
X150544569Y-68528176D01*
X150492569Y-68476176D01*
X150459084Y-68414853D01*
X150456250Y-68388495D01*
X150456250Y-68036073D01*
X150467867Y-67983670D01*
X150493868Y-67927909D01*
X150540038Y-67875473D01*
X150607231Y-67856320D01*
X150674113Y-67876535D01*
X150718630Y-67927910D01*
X150744631Y-67983667D01*
X150756250Y-68036073D01*
X150756250Y-68398210D01*
X150831354Y-68388324D01*
X150971229Y-68330387D01*
X150971231Y-68330386D01*
X151091345Y-68238219D01*
X151119032Y-68202138D01*
X151175459Y-68160935D01*
X151215341Y-68153984D01*
X151215335Y-68153890D01*
X151216211Y-68153832D01*
X151217407Y-68153624D01*
X151219388Y-68153624D01*
X151266795Y-68147384D01*
X151303845Y-68130106D01*
X151372922Y-68119615D01*
X151408654Y-68130106D01*
X151445705Y-68147384D01*
X151493111Y-68153625D01*
X151495074Y-68153624D01*
X151495636Y-68153790D01*
X151497162Y-68153890D01*
X151497139Y-68154231D01*
X151562114Y-68173297D01*
X151593467Y-68202137D01*
X151621152Y-68238217D01*
X151741271Y-68330388D01*
X151881146Y-68388325D01*
X151881151Y-68388326D01*
X151956248Y-68398212D01*
X151956250Y-68398211D01*
X151956250Y-68036073D01*
X151967867Y-67983670D01*
X151993868Y-67927909D01*
X152040038Y-67875473D01*
X152107231Y-67856320D01*
X152174113Y-67876535D01*
G37*
%TD.AperFunction*%
%TA.AperFunction,Conductor*%
G36*
X158430703Y-67063234D02*
G01*
X158437181Y-67069266D01*
X158563181Y-67195266D01*
X158596666Y-67256589D01*
X158599500Y-67282947D01*
X158599500Y-69003456D01*
X158579815Y-69070495D01*
X158563181Y-69091137D01*
X158463012Y-69191306D01*
X158401689Y-69224791D01*
X158375331Y-69227625D01*
X157888126Y-69227625D01*
X157835721Y-69216007D01*
X157781035Y-69190506D01*
X157728597Y-69144335D01*
X157709445Y-69077141D01*
X157729661Y-69010260D01*
X157781035Y-68965743D01*
X157836794Y-68939742D01*
X157889198Y-68928125D01*
X158251338Y-68928125D01*
X158251338Y-68928124D01*
X158241449Y-68853021D01*
X158241448Y-68853016D01*
X158183513Y-68713146D01*
X158091343Y-68593028D01*
X158055260Y-68565340D01*
X158014059Y-68508911D01*
X158007109Y-68469033D01*
X158007015Y-68469040D01*
X158006957Y-68468162D01*
X158006749Y-68466966D01*
X158006749Y-68464992D01*
X158006749Y-68464987D01*
X158000509Y-68417580D01*
X157976133Y-68365305D01*
X157962118Y-68335250D01*
X157950500Y-68282845D01*
X157950500Y-67752832D01*
X157970185Y-67685793D01*
X158000186Y-67653567D01*
X158086116Y-67589241D01*
X158170212Y-67476903D01*
X158219251Y-67345424D01*
X158222814Y-67312284D01*
X158225499Y-67287315D01*
X158225500Y-67287298D01*
X158225500Y-67156947D01*
X158245185Y-67089908D01*
X158297989Y-67044153D01*
X158367147Y-67034209D01*
X158430703Y-67063234D01*
G37*
%TD.AperFunction*%
%TA.AperFunction,Conductor*%
G36*
X146670495Y-52870185D02*
G01*
X146691137Y-52886819D01*
X146816982Y-53012664D01*
X146850467Y-53073987D01*
X146845483Y-53143679D01*
X146803611Y-53199612D01*
X146738147Y-53224029D01*
X146678196Y-53212170D01*
X146677982Y-53212723D01*
X146674842Y-53211506D01*
X146674030Y-53211346D01*
X146672641Y-53210654D01*
X146672637Y-53210652D01*
X146482456Y-53136976D01*
X146281976Y-53099500D01*
X146078024Y-53099500D01*
X145877544Y-53136976D01*
X145877541Y-53136976D01*
X145877541Y-53136977D01*
X145687364Y-53210651D01*
X145687357Y-53210655D01*
X145513960Y-53318017D01*
X145513958Y-53318019D01*
X145363237Y-53455418D01*
X145240327Y-53618178D01*
X145149422Y-53800739D01*
X145149417Y-53800752D01*
X145093602Y-53996917D01*
X145074785Y-54199999D01*
X145074785Y-54200000D01*
X145093602Y-54403082D01*
X145149417Y-54599247D01*
X145149422Y-54599260D01*
X145240327Y-54781821D01*
X145363237Y-54944581D01*
X145368051Y-54948969D01*
X145382397Y-54964482D01*
X145383605Y-54966035D01*
X145383606Y-54966037D01*
X145823384Y-55531527D01*
X145849000Y-55596531D01*
X145849500Y-55607650D01*
X145849500Y-57837770D01*
X145829815Y-57904809D01*
X145813181Y-57925451D01*
X145119531Y-58619100D01*
X145119527Y-58619105D01*
X145069322Y-58706065D01*
X145066773Y-58704593D01*
X145060321Y-58712594D01*
X145063499Y-58730201D01*
X145059984Y-58749039D01*
X145049500Y-58788165D01*
X145049500Y-66190880D01*
X145029815Y-66257919D01*
X144977011Y-66303674D01*
X144907853Y-66313618D01*
X144886497Y-66308586D01*
X144731403Y-66257194D01*
X144630404Y-66246875D01*
X144531250Y-66246875D01*
X144531250Y-68263013D01*
X144518750Y-68305582D01*
X144518750Y-68988500D01*
X144499065Y-69055539D01*
X144446261Y-69101294D01*
X144394750Y-69112500D01*
X144142750Y-69112500D01*
X144075711Y-69092815D01*
X144029956Y-69040011D01*
X144018750Y-68988500D01*
X144018750Y-67846362D01*
X144031250Y-67803792D01*
X144031250Y-66246874D01*
X143932110Y-66246875D01*
X143932094Y-66246876D01*
X143831097Y-66257194D01*
X143667449Y-66311421D01*
X143667438Y-66311426D01*
X143520715Y-66401927D01*
X143520711Y-66401930D01*
X143398804Y-66523837D01*
X143361544Y-66584245D01*
X143309595Y-66630969D01*
X143240633Y-66642190D01*
X143181695Y-66618413D01*
X143092532Y-66551665D01*
X143092529Y-66551664D01*
X143092528Y-66551663D01*
X143024892Y-66526436D01*
X142961049Y-66502623D01*
X142902940Y-66496375D01*
X142902924Y-66496375D01*
X142209576Y-66496375D01*
X142209559Y-66496375D01*
X142156506Y-66502080D01*
X142087746Y-66489675D01*
X142036609Y-66442065D01*
X142019250Y-66378791D01*
X142019250Y-63627793D01*
X142038935Y-63560754D01*
X142055569Y-63540112D01*
X142982979Y-62612702D01*
X143980469Y-61615212D01*
X144026614Y-61535288D01*
X144050500Y-61446144D01*
X144050500Y-59296543D01*
X144070185Y-59229504D01*
X144086810Y-59208871D01*
X144204124Y-59091556D01*
X144265443Y-59058074D01*
X144291871Y-59057144D01*
X144291871Y-59055250D01*
X144300000Y-59055250D01*
X144443709Y-59036330D01*
X144577625Y-58980861D01*
X144692621Y-58892621D01*
X144780861Y-58777625D01*
X144825649Y-58669493D01*
X144840973Y-58650477D01*
X144837795Y-58632833D01*
X144838132Y-58630014D01*
X144855250Y-58500000D01*
X144836330Y-58356291D01*
X144790499Y-58245643D01*
X144780862Y-58222377D01*
X144780861Y-58222376D01*
X144780861Y-58222375D01*
X144692621Y-58107379D01*
X144577625Y-58019139D01*
X144577624Y-58019138D01*
X144577622Y-58019137D01*
X144443712Y-57963671D01*
X144443710Y-57963670D01*
X144443709Y-57963670D01*
X144333292Y-57949133D01*
X144300001Y-57944750D01*
X144299999Y-57944750D01*
X144156291Y-57963670D01*
X144156287Y-57963671D01*
X144022377Y-58019137D01*
X143988998Y-58044750D01*
X143907379Y-58107379D01*
X143830681Y-58207334D01*
X143819137Y-58222378D01*
X143789108Y-58294876D01*
X143745267Y-58349280D01*
X143678973Y-58371345D01*
X143611274Y-58354066D01*
X143586866Y-58335105D01*
X143270900Y-58019139D01*
X142876819Y-57625057D01*
X142843334Y-57563734D01*
X142840500Y-57537376D01*
X142840500Y-55221969D01*
X142860185Y-55154930D01*
X142912989Y-55109175D01*
X142982147Y-55099231D01*
X143029775Y-55116541D01*
X143147363Y-55189348D01*
X143337544Y-55263024D01*
X143538024Y-55300500D01*
X143538026Y-55300500D01*
X143741974Y-55300500D01*
X143741976Y-55300500D01*
X143942456Y-55263024D01*
X144132637Y-55189348D01*
X144306041Y-55081981D01*
X144443549Y-54956626D01*
X144456762Y-54944581D01*
X144456769Y-54944572D01*
X144579673Y-54781821D01*
X144670582Y-54599250D01*
X144726397Y-54403083D01*
X144740157Y-54254575D01*
X144742391Y-54242754D01*
X144741937Y-54242671D01*
X144743039Y-54236678D01*
X144743041Y-54236676D01*
X144867801Y-53558841D01*
X144899296Y-53496474D01*
X144902041Y-53493639D01*
X145508862Y-52886819D01*
X145570185Y-52853334D01*
X145596543Y-52850500D01*
X146603456Y-52850500D01*
X146670495Y-52870185D01*
G37*
%TD.AperFunction*%
%TA.AperFunction,Conductor*%
G36*
X149928323Y-54560078D02*
G01*
X149972278Y-54614389D01*
X149977592Y-54629989D01*
X149986567Y-54663485D01*
X149986570Y-54663492D01*
X150086399Y-54877578D01*
X150221894Y-55071082D01*
X150388917Y-55238105D01*
X150582421Y-55373600D01*
X150796507Y-55473429D01*
X150796516Y-55473433D01*
X151010000Y-55530634D01*
X151010000Y-54633012D01*
X151067007Y-54665925D01*
X151194174Y-54700000D01*
X151325826Y-54700000D01*
X151452993Y-54665925D01*
X151510000Y-54633012D01*
X151510000Y-55530633D01*
X151723483Y-55473433D01*
X151723492Y-55473429D01*
X151937578Y-55373600D01*
X152131082Y-55238105D01*
X152298105Y-55071082D01*
X152433600Y-54877578D01*
X152533429Y-54663492D01*
X152533431Y-54663489D01*
X152542406Y-54629992D01*
X152578770Y-54570331D01*
X152641616Y-54539800D01*
X152710992Y-54548094D01*
X152764871Y-54592578D01*
X152773182Y-54606811D01*
X152860327Y-54781821D01*
X152983237Y-54944581D01*
X153114829Y-55064542D01*
X153131972Y-55080170D01*
X153133958Y-55081980D01*
X153133960Y-55081982D01*
X153177879Y-55109175D01*
X153307363Y-55189348D01*
X153497544Y-55263024D01*
X153698024Y-55300500D01*
X153698026Y-55300500D01*
X153901974Y-55300500D01*
X153901976Y-55300500D01*
X154102456Y-55263024D01*
X154292637Y-55189348D01*
X154466041Y-55081981D01*
X154550993Y-55004536D01*
X154613797Y-54973920D01*
X154683184Y-54982117D01*
X154737124Y-55026527D01*
X154754306Y-55064080D01*
X154762189Y-55093499D01*
X154762189Y-55093500D01*
X154773385Y-55135287D01*
X154819527Y-55215208D01*
X154819531Y-55215213D01*
X155219431Y-55615113D01*
X155252916Y-55676436D01*
X155255750Y-55702794D01*
X155255750Y-59860706D01*
X155236065Y-59927745D01*
X155183261Y-59973500D01*
X155114103Y-59983444D01*
X155050547Y-59954419D01*
X155044069Y-59948387D01*
X154224223Y-59128541D01*
X154190738Y-59067218D01*
X154195722Y-58997526D01*
X154213529Y-58965373D01*
X154213885Y-58964910D01*
X154280861Y-58877625D01*
X154336330Y-58743709D01*
X154355250Y-58600000D01*
X154336330Y-58456291D01*
X154280861Y-58322375D01*
X154192621Y-58207379D01*
X154077625Y-58119139D01*
X154077624Y-58119138D01*
X154077622Y-58119137D01*
X153943712Y-58063671D01*
X153943710Y-58063670D01*
X153943709Y-58063670D01*
X153871854Y-58054210D01*
X153800001Y-58044750D01*
X153799999Y-58044750D01*
X153656291Y-58063670D01*
X153656287Y-58063671D01*
X153522377Y-58119137D01*
X153407379Y-58207379D01*
X153319137Y-58322377D01*
X153263671Y-58456287D01*
X153263670Y-58456291D01*
X153256236Y-58512754D01*
X153227968Y-58576650D01*
X153169644Y-58615120D01*
X153099779Y-58615951D01*
X153045616Y-58584248D01*
X152780899Y-58319531D01*
X152780894Y-58319527D01*
X152700977Y-58273387D01*
X152700973Y-58273385D01*
X152695612Y-58271949D01*
X152695612Y-58271948D01*
X152627162Y-58253608D01*
X152611830Y-58249500D01*
X152611829Y-58249500D01*
X151786092Y-58249500D01*
X151719053Y-58229815D01*
X151699587Y-58211913D01*
X151698372Y-58213129D01*
X151692627Y-58207384D01*
X151692621Y-58207379D01*
X151577625Y-58119139D01*
X151577624Y-58119138D01*
X151577622Y-58119137D01*
X151443712Y-58063671D01*
X151443710Y-58063670D01*
X151443709Y-58063670D01*
X151371854Y-58054210D01*
X151300001Y-58044750D01*
X151299999Y-58044750D01*
X151156291Y-58063670D01*
X151156287Y-58063671D01*
X151022377Y-58119137D01*
X150907379Y-58207379D01*
X150819137Y-58322377D01*
X150763671Y-58456287D01*
X150763670Y-58456291D01*
X150744750Y-58599999D01*
X150744750Y-58600000D01*
X150763670Y-58743708D01*
X150763671Y-58743712D01*
X150819314Y-58878048D01*
X150826783Y-58947517D01*
X150795507Y-59009996D01*
X150735418Y-59045648D01*
X150704753Y-59049500D01*
X149896544Y-59049500D01*
X149829505Y-59029815D01*
X149808863Y-59013181D01*
X149491560Y-58695878D01*
X149458075Y-58634555D01*
X149456983Y-58608129D01*
X149455250Y-58608129D01*
X149455250Y-58600000D01*
X149447662Y-58542367D01*
X149436330Y-58456291D01*
X149380861Y-58322375D01*
X149292621Y-58207379D01*
X149177625Y-58119139D01*
X149177624Y-58119138D01*
X149177622Y-58119137D01*
X149043712Y-58063671D01*
X149043710Y-58063670D01*
X149043709Y-58063670D01*
X148971854Y-58054210D01*
X148900001Y-58044750D01*
X148899999Y-58044750D01*
X148756291Y-58063670D01*
X148756287Y-58063671D01*
X148622377Y-58119137D01*
X148507379Y-58207379D01*
X148419137Y-58322377D01*
X148363671Y-58456287D01*
X148363670Y-58456291D01*
X148344750Y-58599999D01*
X148344750Y-58600000D01*
X148363670Y-58743708D01*
X148363671Y-58743712D01*
X148419137Y-58877622D01*
X148419138Y-58877623D01*
X148419139Y-58877625D01*
X148507379Y-58992621D01*
X148622375Y-59080861D01*
X148622376Y-59080861D01*
X148622377Y-59080862D01*
X148650211Y-59092391D01*
X148756291Y-59136330D01*
X148900000Y-59155250D01*
X148908129Y-59155250D01*
X148908129Y-59158828D01*
X148960970Y-59167031D01*
X148995878Y-59191560D01*
X149484788Y-59680470D01*
X149484789Y-59680471D01*
X149484791Y-59680472D01*
X149524750Y-59703542D01*
X149564712Y-59726614D01*
X149653856Y-59750500D01*
X149746144Y-59750500D01*
X152603456Y-59750500D01*
X152670495Y-59770185D01*
X152691137Y-59786819D01*
X153031525Y-60127207D01*
X153065010Y-60188530D01*
X153060026Y-60258222D01*
X153018154Y-60314155D01*
X152982848Y-60332594D01*
X152848699Y-60377046D01*
X152848694Y-60377048D01*
X152715097Y-60459453D01*
X152647705Y-60477893D01*
X152584903Y-60459453D01*
X152451305Y-60377048D01*
X152451300Y-60377046D01*
X152287652Y-60322819D01*
X152186654Y-60312500D01*
X152150000Y-60312500D01*
X152150000Y-61050000D01*
X153276000Y-61050000D01*
X153343039Y-61069685D01*
X153388794Y-61122489D01*
X153400000Y-61174000D01*
X153400000Y-61426000D01*
X153380315Y-61493039D01*
X153327511Y-61538794D01*
X153276000Y-61550000D01*
X147925001Y-61550000D01*
X147925001Y-61599154D01*
X147935319Y-61700152D01*
X147989546Y-61863800D01*
X147989551Y-61863811D01*
X148080052Y-62010534D01*
X148080055Y-62010538D01*
X148201961Y-62132444D01*
X148201965Y-62132447D01*
X148348688Y-62222948D01*
X148348701Y-62222954D01*
X148380147Y-62233374D01*
X148437592Y-62273146D01*
X148464416Y-62337661D01*
X148452102Y-62406437D01*
X148415456Y-62450346D01*
X148313884Y-62526383D01*
X148229789Y-62638719D01*
X148180748Y-62770200D01*
X148174500Y-62828309D01*
X148174500Y-63421690D01*
X148180748Y-63479799D01*
X148229789Y-63611280D01*
X148263351Y-63656112D01*
X148313884Y-63723616D01*
X148426222Y-63807712D01*
X148495049Y-63833383D01*
X148557700Y-63856751D01*
X148615809Y-63862999D01*
X148615826Y-63863000D01*
X149090956Y-63863000D01*
X149157995Y-63882685D01*
X149178637Y-63899319D01*
X149449803Y-64170485D01*
X149483288Y-64231808D01*
X149478304Y-64301500D01*
X149436432Y-64357433D01*
X149370968Y-64381850D01*
X149348866Y-64381455D01*
X149284190Y-64374500D01*
X149284174Y-64374500D01*
X148590826Y-64374500D01*
X148590809Y-64374500D01*
X148532700Y-64380748D01*
X148401219Y-64429789D01*
X148288884Y-64513884D01*
X148204789Y-64626219D01*
X148155748Y-64757700D01*
X148149500Y-64815809D01*
X148149500Y-65384190D01*
X148155748Y-65442299D01*
X148177826Y-65501491D01*
X148204788Y-65573778D01*
X148288884Y-65686116D01*
X148401222Y-65770212D01*
X148456334Y-65790767D01*
X148512266Y-65832636D01*
X148536684Y-65898101D01*
X148537000Y-65906948D01*
X148537000Y-67245245D01*
X148517315Y-67312284D01*
X148500681Y-67332926D01*
X148379522Y-67454084D01*
X148379518Y-67454090D01*
X148326792Y-67545412D01*
X148326793Y-67545413D01*
X148299500Y-67647273D01*
X148299500Y-68053625D01*
X148279815Y-68120664D01*
X148227011Y-68166419D01*
X148175501Y-68177625D01*
X147993117Y-68177625D01*
X147978089Y-68179603D01*
X147945705Y-68183866D01*
X147945703Y-68183867D01*
X147945701Y-68183867D01*
X147841670Y-68232378D01*
X147760503Y-68313545D01*
X147711990Y-68417581D01*
X147705750Y-68464984D01*
X147705750Y-68691256D01*
X147705751Y-68691263D01*
X147711991Y-68738670D01*
X147729268Y-68775721D01*
X147739759Y-68844798D01*
X147729268Y-68880527D01*
X147707982Y-68926177D01*
X147705716Y-68925120D01*
X147675530Y-68972278D01*
X147612027Y-69001417D01*
X147542850Y-68991598D01*
X147489964Y-68945938D01*
X147477981Y-68922053D01*
X147470212Y-68901222D01*
X147386116Y-68788884D01*
X147284943Y-68713146D01*
X147273780Y-68704789D01*
X147273778Y-68704788D01*
X147237497Y-68691256D01*
X147142299Y-68655748D01*
X147084190Y-68649500D01*
X147084174Y-68649500D01*
X146515826Y-68649500D01*
X146515807Y-68649501D01*
X146487755Y-68652517D01*
X146418996Y-68640112D01*
X146367858Y-68592502D01*
X146350500Y-68529228D01*
X146350500Y-68153858D01*
X146350500Y-68153856D01*
X146326614Y-68064712D01*
X146315089Y-68044750D01*
X146315089Y-68044749D01*
X146280474Y-67984794D01*
X146280468Y-67984786D01*
X146186819Y-67891137D01*
X146153334Y-67829814D01*
X146150500Y-67803456D01*
X146150500Y-61000845D01*
X147925000Y-61000845D01*
X147925000Y-61050000D01*
X148650000Y-61050000D01*
X149150000Y-61050000D01*
X150150000Y-61050000D01*
X150650000Y-61050000D01*
X151650000Y-61050000D01*
X151650000Y-60312500D01*
X151613361Y-60312500D01*
X151613343Y-60312501D01*
X151512347Y-60322819D01*
X151348699Y-60377046D01*
X151348694Y-60377048D01*
X151215097Y-60459453D01*
X151147705Y-60477893D01*
X151084903Y-60459453D01*
X150951305Y-60377048D01*
X150951300Y-60377046D01*
X150787652Y-60322819D01*
X150686654Y-60312500D01*
X150650000Y-60312500D01*
X150650000Y-61050000D01*
X150150000Y-61050000D01*
X150150000Y-60312500D01*
X150113361Y-60312500D01*
X150113343Y-60312501D01*
X150012347Y-60322819D01*
X149848699Y-60377046D01*
X149848694Y-60377048D01*
X149715097Y-60459453D01*
X149647705Y-60477893D01*
X149584903Y-60459453D01*
X149451305Y-60377048D01*
X149451300Y-60377046D01*
X149287652Y-60322819D01*
X149186654Y-60312500D01*
X149150000Y-60312500D01*
X149150000Y-61050000D01*
X148650000Y-61050000D01*
X148650000Y-60312500D01*
X148613361Y-60312500D01*
X148613343Y-60312501D01*
X148512347Y-60322819D01*
X148348699Y-60377046D01*
X148348688Y-60377051D01*
X148201965Y-60467552D01*
X148201961Y-60467555D01*
X148080055Y-60589461D01*
X148080052Y-60589465D01*
X147989551Y-60736188D01*
X147989546Y-60736199D01*
X147935319Y-60899847D01*
X147925000Y-61000845D01*
X146150500Y-61000845D01*
X146150500Y-59196544D01*
X146170185Y-59129505D01*
X146186819Y-59108863D01*
X146976155Y-58319527D01*
X147780470Y-57515212D01*
X147826614Y-57435288D01*
X147850500Y-57346144D01*
X147850500Y-55177336D01*
X147870185Y-55110297D01*
X147922989Y-55064542D01*
X147992147Y-55054598D01*
X148048143Y-55080170D01*
X148049385Y-55078527D01*
X148053960Y-55081982D01*
X148097879Y-55109175D01*
X148227363Y-55189348D01*
X148417544Y-55263024D01*
X148618024Y-55300500D01*
X148618026Y-55300500D01*
X148821974Y-55300500D01*
X148821976Y-55300500D01*
X149022456Y-55263024D01*
X149212637Y-55189348D01*
X149386041Y-55081981D01*
X149523549Y-54956626D01*
X149536762Y-54944581D01*
X149536769Y-54944572D01*
X149659673Y-54781821D01*
X149721598Y-54657456D01*
X149746817Y-54606812D01*
X149794319Y-54555575D01*
X149861982Y-54538153D01*
X149928323Y-54560078D01*
G37*
%TD.AperFunction*%
%TA.AperFunction,Conductor*%
G36*
X150855539Y-65119685D02*
G01*
X150901294Y-65172489D01*
X150912500Y-65224000D01*
X150912500Y-66081000D01*
X150892815Y-66148039D01*
X150840011Y-66193794D01*
X150788500Y-66205000D01*
X150756250Y-66205000D01*
X150756250Y-66295175D01*
X150744632Y-66347580D01*
X150718632Y-66403337D01*
X150672460Y-66455776D01*
X150605266Y-66474928D01*
X150538385Y-66454712D01*
X150493868Y-66403337D01*
X150467868Y-66347580D01*
X150456250Y-66295175D01*
X150456250Y-66205000D01*
X150448819Y-66197569D01*
X150415334Y-66136246D01*
X150412500Y-66109888D01*
X150412500Y-65224000D01*
X150432185Y-65156961D01*
X150484989Y-65111206D01*
X150536500Y-65100000D01*
X150788500Y-65100000D01*
X150855539Y-65119685D01*
G37*
%TD.AperFunction*%
%TA.AperFunction,Conductor*%
G36*
X143265382Y-60783670D02*
G01*
X143322528Y-60823870D01*
X143348869Y-60888584D01*
X143349500Y-60901081D01*
X143349500Y-61203456D01*
X143329815Y-61270495D01*
X143313181Y-61291137D01*
X141388282Y-63216035D01*
X141388280Y-63216037D01*
X141388280Y-63216038D01*
X141357953Y-63268566D01*
X141357952Y-63268566D01*
X141338887Y-63301589D01*
X141288320Y-63349805D01*
X141219713Y-63363027D01*
X141154848Y-63337059D01*
X141114320Y-63280145D01*
X141107500Y-63239589D01*
X141107500Y-60915257D01*
X141127185Y-60848218D01*
X141179989Y-60802463D01*
X141249147Y-60792519D01*
X141261427Y-60794922D01*
X141318361Y-60809081D01*
X141361395Y-60811999D01*
X143038605Y-60811999D01*
X143038609Y-60811998D01*
X143081632Y-60809082D01*
X143195573Y-60780746D01*
X143265382Y-60783670D01*
G37*
%TD.AperFunction*%
%TA.AperFunction,Conductor*%
G36*
X142871755Y-58627203D02*
G01*
X142916103Y-58655704D01*
X143094293Y-58833895D01*
X143127778Y-58895218D01*
X143122794Y-58964910D01*
X143094293Y-59009257D01*
X142464456Y-59639094D01*
X142403133Y-59672579D01*
X142333441Y-59667595D01*
X142289094Y-59639094D01*
X142110904Y-59460904D01*
X142077419Y-59399581D01*
X142082403Y-59329889D01*
X142110904Y-59285542D01*
X142740741Y-58655704D01*
X142802064Y-58622219D01*
X142871755Y-58627203D01*
G37*
%TD.AperFunction*%
%TA.AperFunction,Conductor*%
G36*
X158004043Y-50200765D02*
G01*
X158226790Y-50215364D01*
X158242848Y-50217479D01*
X158428875Y-50254482D01*
X158457771Y-50260230D01*
X158473438Y-50264428D01*
X158626569Y-50316409D01*
X158680944Y-50334867D01*
X158695921Y-50341070D01*
X158886791Y-50435196D01*
X158892460Y-50437992D01*
X158906508Y-50446102D01*
X159088712Y-50567848D01*
X159101573Y-50577716D01*
X159206495Y-50669730D01*
X159266328Y-50722202D01*
X159277797Y-50733671D01*
X159388160Y-50859517D01*
X159422280Y-50898423D01*
X159432154Y-50911291D01*
X159553897Y-51093492D01*
X159562007Y-51107539D01*
X159658926Y-51304071D01*
X159665133Y-51319057D01*
X159735571Y-51526561D01*
X159739769Y-51542228D01*
X159782518Y-51757140D01*
X159784636Y-51773221D01*
X159799235Y-51995956D01*
X159799500Y-52004066D01*
X159799500Y-53268244D01*
X159779815Y-53335283D01*
X159727011Y-53381038D01*
X159657853Y-53390982D01*
X159594297Y-53361957D01*
X159591962Y-53359881D01*
X159546041Y-53318019D01*
X159546039Y-53318017D01*
X159372642Y-53210655D01*
X159372639Y-53210653D01*
X159372637Y-53210652D01*
X159372636Y-53210651D01*
X159372635Y-53210651D01*
X159254046Y-53164710D01*
X159182456Y-53136976D01*
X158981976Y-53099500D01*
X158981974Y-53099500D01*
X158939219Y-53099500D01*
X158916387Y-53096561D01*
X158916308Y-53097063D01*
X158214502Y-52985402D01*
X158151388Y-52955428D01*
X158146305Y-52950623D01*
X157415213Y-52219531D01*
X157415208Y-52219527D01*
X157335290Y-52173387D01*
X157335289Y-52173386D01*
X157335288Y-52173386D01*
X157246144Y-52149500D01*
X155946144Y-52149500D01*
X155853856Y-52149500D01*
X155764712Y-52173386D01*
X155764709Y-52173387D01*
X155684791Y-52219527D01*
X155684786Y-52219531D01*
X154819531Y-53084786D01*
X154819529Y-53084789D01*
X154779656Y-53153853D01*
X154779654Y-53153855D01*
X154773386Y-53164709D01*
X154773386Y-53164710D01*
X154749500Y-53253856D01*
X154749500Y-53295592D01*
X154729815Y-53362631D01*
X154677011Y-53408386D01*
X154607853Y-53418330D01*
X154544297Y-53389305D01*
X154541962Y-53387230D01*
X154506648Y-53355037D01*
X154466041Y-53318019D01*
X154466038Y-53318017D01*
X154466037Y-53318016D01*
X154292642Y-53210655D01*
X154292639Y-53210653D01*
X154292637Y-53210652D01*
X154292636Y-53210651D01*
X154292635Y-53210651D01*
X154174046Y-53164710D01*
X154102456Y-53136976D01*
X153901976Y-53099500D01*
X153698024Y-53099500D01*
X153497544Y-53136976D01*
X153497541Y-53136976D01*
X153497541Y-53136977D01*
X153307364Y-53210651D01*
X153307357Y-53210655D01*
X153133960Y-53318017D01*
X153133958Y-53318019D01*
X152983237Y-53455418D01*
X152860327Y-53618178D01*
X152773182Y-53793188D01*
X152725679Y-53844425D01*
X152658016Y-53861846D01*
X152591676Y-53839920D01*
X152547721Y-53785609D01*
X152542407Y-53770008D01*
X152533434Y-53736518D01*
X152533429Y-53736507D01*
X152433600Y-53522422D01*
X152433599Y-53522420D01*
X152298113Y-53328926D01*
X152298108Y-53328920D01*
X152131082Y-53161894D01*
X151937578Y-53026399D01*
X151723492Y-52926570D01*
X151723486Y-52926567D01*
X151510000Y-52869364D01*
X151510000Y-53766988D01*
X151452993Y-53734075D01*
X151325826Y-53700000D01*
X151194174Y-53700000D01*
X151067007Y-53734075D01*
X151010000Y-53766988D01*
X151010000Y-52869364D01*
X151009999Y-52869364D01*
X150796513Y-52926567D01*
X150796507Y-52926570D01*
X150582422Y-53026399D01*
X150582420Y-53026400D01*
X150388926Y-53161886D01*
X150388920Y-53161891D01*
X150221891Y-53328920D01*
X150221886Y-53328926D01*
X150086400Y-53522420D01*
X150086399Y-53522422D01*
X149986570Y-53736507D01*
X149986568Y-53736511D01*
X149977592Y-53770011D01*
X149941226Y-53829671D01*
X149878379Y-53860199D01*
X149809003Y-53851904D01*
X149755126Y-53807418D01*
X149746817Y-53793188D01*
X149689500Y-53678080D01*
X149659673Y-53618179D01*
X149567766Y-53496474D01*
X149536762Y-53455418D01*
X149386041Y-53318019D01*
X149386039Y-53318017D01*
X149212640Y-53210653D01*
X149153552Y-53187762D01*
X149133899Y-53178072D01*
X149121506Y-53170532D01*
X148272271Y-52860251D01*
X148227144Y-52831462D01*
X147215213Y-51819531D01*
X147215208Y-51819527D01*
X147135290Y-51773387D01*
X147135289Y-51773386D01*
X147135288Y-51773386D01*
X147046144Y-51749500D01*
X144067510Y-51749500D01*
X144009222Y-51765118D01*
X144009221Y-51765117D01*
X143978370Y-51773384D01*
X143978363Y-51773387D01*
X143898445Y-51819527D01*
X143898440Y-51819531D01*
X142396418Y-53321552D01*
X142335095Y-53355037D01*
X142265403Y-53350053D01*
X142209470Y-53308181D01*
X142187120Y-53258061D01*
X142185966Y-53252260D01*
X142130601Y-53169399D01*
X142067900Y-53127504D01*
X142047739Y-53114033D01*
X142047735Y-53114032D01*
X141974677Y-53099500D01*
X141974674Y-53099500D01*
X140324500Y-53099500D01*
X140257461Y-53079815D01*
X140211706Y-53027011D01*
X140200500Y-52975500D01*
X140200500Y-52004066D01*
X140200765Y-51995956D01*
X140209224Y-51866894D01*
X140215364Y-51773207D01*
X140217479Y-51757153D01*
X140260230Y-51542226D01*
X140264428Y-51526561D01*
X140326349Y-51344148D01*
X140334868Y-51319049D01*
X140341067Y-51304083D01*
X140437995Y-51107533D01*
X140446098Y-51093498D01*
X140567853Y-50911279D01*
X140577710Y-50898433D01*
X140722207Y-50733665D01*
X140733665Y-50722207D01*
X140898433Y-50577710D01*
X140911279Y-50567853D01*
X141093498Y-50446098D01*
X141107533Y-50437995D01*
X141304083Y-50341067D01*
X141319049Y-50334868D01*
X141525945Y-50264637D01*
X141526561Y-50264428D01*
X141542228Y-50260230D01*
X141757153Y-50217479D01*
X141773209Y-50215364D01*
X141978058Y-50201938D01*
X141995958Y-50200765D01*
X142004067Y-50200500D01*
X142039882Y-50200500D01*
X157960118Y-50200500D01*
X157995933Y-50200500D01*
X158004043Y-50200765D01*
G37*
%TD.AperFunction*%
%TD*%
%TA.AperFunction,Conductor*%
%TO.N,+3.3V*%
G36*
X148741601Y-82019685D02*
G01*
X148779555Y-82058027D01*
X148870184Y-82202262D01*
X148997738Y-82329816D01*
X149150478Y-82425789D01*
X149306890Y-82480520D01*
X149320745Y-82485368D01*
X149320750Y-82485369D01*
X149499996Y-82505565D01*
X149500000Y-82505565D01*
X149500004Y-82505565D01*
X149679249Y-82485369D01*
X149679252Y-82485368D01*
X149679255Y-82485368D01*
X149849522Y-82425789D01*
X150002262Y-82329816D01*
X150002267Y-82329810D01*
X150005097Y-82327555D01*
X150007275Y-82326665D01*
X150008158Y-82326111D01*
X150008255Y-82326265D01*
X150069783Y-82301145D01*
X150082412Y-82300500D01*
X151861860Y-82300500D01*
X151861876Y-82300501D01*
X151869472Y-82300501D01*
X152027583Y-82300501D01*
X152027586Y-82300501D01*
X152180314Y-82259577D01*
X152230433Y-82230639D01*
X152317245Y-82180520D01*
X152429049Y-82068716D01*
X152429049Y-82068714D01*
X152439257Y-82058507D01*
X152439259Y-82058503D01*
X152461446Y-82036316D01*
X152522770Y-82002833D01*
X152549125Y-82000000D01*
X152983168Y-82000000D01*
X153050207Y-82019685D01*
X153095962Y-82072489D01*
X153102939Y-82091898D01*
X153140423Y-82231785D01*
X153140424Y-82231786D01*
X153156468Y-82259577D01*
X153156469Y-82259578D01*
X153219475Y-82368709D01*
X153219481Y-82368717D01*
X153338349Y-82487585D01*
X153338355Y-82487590D01*
X154316138Y-83465373D01*
X154349623Y-83526696D01*
X154344639Y-83596388D01*
X154302767Y-83652321D01*
X154237303Y-83676738D01*
X154226106Y-83674302D01*
X154226106Y-83675697D01*
X154226105Y-83675697D01*
X154198440Y-83668283D01*
X154169030Y-83661886D01*
X154166469Y-83660448D01*
X154164118Y-83659091D01*
X154164120Y-83659087D01*
X154164104Y-83659083D01*
X154152392Y-83652321D01*
X154131785Y-83640423D01*
X153979057Y-83599499D01*
X153820943Y-83599499D01*
X153813347Y-83599499D01*
X153813331Y-83599500D01*
X152647643Y-83599500D01*
X152580604Y-83579815D01*
X152534849Y-83527011D01*
X152524285Y-83488102D01*
X152520441Y-83450476D01*
X152514999Y-83397203D01*
X152459814Y-83230666D01*
X152367712Y-83081344D01*
X152243656Y-82957288D01*
X152094334Y-82865186D01*
X151927797Y-82810001D01*
X151927795Y-82810000D01*
X151825010Y-82799500D01*
X150899998Y-82799500D01*
X150899980Y-82799501D01*
X150797203Y-82810000D01*
X150797200Y-82810001D01*
X150630668Y-82865185D01*
X150630663Y-82865187D01*
X150481338Y-82957292D01*
X150441572Y-82997058D01*
X150380249Y-83030543D01*
X150312938Y-83026418D01*
X150279252Y-83014631D01*
X150100004Y-82994435D01*
X150099996Y-82994435D01*
X149920750Y-83014630D01*
X149920745Y-83014631D01*
X149750476Y-83074211D01*
X149597737Y-83170184D01*
X149470184Y-83297737D01*
X149374211Y-83450476D01*
X149314631Y-83620745D01*
X149314630Y-83620750D01*
X149294435Y-83799996D01*
X149294435Y-83800003D01*
X149314630Y-83979249D01*
X149314633Y-83979262D01*
X149376510Y-84156094D01*
X149374364Y-84156844D01*
X149383962Y-84215144D01*
X149375609Y-84243590D01*
X149376510Y-84243906D01*
X149314633Y-84420737D01*
X149314630Y-84420750D01*
X149294435Y-84599996D01*
X149294435Y-84600003D01*
X149314630Y-84779249D01*
X149314631Y-84779254D01*
X149374211Y-84949523D01*
X149407686Y-85002797D01*
X149470184Y-85102262D01*
X149597738Y-85229816D01*
X149750478Y-85325789D01*
X149913295Y-85382761D01*
X149920745Y-85385368D01*
X149920750Y-85385369D01*
X150099996Y-85405565D01*
X150100000Y-85405565D01*
X150100004Y-85405565D01*
X150279246Y-85385369D01*
X150279245Y-85385369D01*
X150279255Y-85385368D01*
X150312937Y-85373581D01*
X150382713Y-85370018D01*
X150441573Y-85402941D01*
X150481344Y-85442712D01*
X150630666Y-85534814D01*
X150797203Y-85589999D01*
X150899991Y-85600500D01*
X150933130Y-85600499D01*
X151000168Y-85620182D01*
X151045924Y-85672984D01*
X151056421Y-85737753D01*
X151055098Y-85750062D01*
X151049500Y-85802127D01*
X151049500Y-85802128D01*
X151049500Y-85802132D01*
X151049500Y-87897870D01*
X151049501Y-87897876D01*
X151055908Y-87957483D01*
X151106202Y-88092328D01*
X151106206Y-88092335D01*
X151192452Y-88207544D01*
X151192455Y-88207547D01*
X151307664Y-88293793D01*
X151307671Y-88293797D01*
X151442517Y-88344091D01*
X151442516Y-88344091D01*
X151449444Y-88344835D01*
X151502127Y-88350500D01*
X153097872Y-88350499D01*
X153157483Y-88344091D01*
X153292331Y-88293796D01*
X153407546Y-88207546D01*
X153493796Y-88092331D01*
X153544091Y-87957483D01*
X153550500Y-87897873D01*
X153550500Y-87574500D01*
X153570185Y-87507461D01*
X153622989Y-87461706D01*
X153674500Y-87450500D01*
X153803838Y-87450500D01*
X153870877Y-87470185D01*
X153909376Y-87509403D01*
X153979657Y-87623346D01*
X153979660Y-87623350D01*
X154024879Y-87668570D01*
X154058363Y-87729893D01*
X154053378Y-87799585D01*
X154024879Y-87843930D01*
X153979661Y-87889148D01*
X153889093Y-88035981D01*
X153889092Y-88035984D01*
X153834826Y-88199747D01*
X153834826Y-88199748D01*
X153834825Y-88199748D01*
X153824500Y-88300815D01*
X153824500Y-88899169D01*
X153824501Y-88899187D01*
X153834825Y-89000252D01*
X153860097Y-89076515D01*
X153889092Y-89164016D01*
X153979660Y-89310850D01*
X154101650Y-89432840D01*
X154248484Y-89523408D01*
X154412247Y-89577674D01*
X154513323Y-89588000D01*
X155086676Y-89587999D01*
X155086684Y-89587998D01*
X155086687Y-89587998D01*
X155142030Y-89582344D01*
X155187753Y-89577674D01*
X155351516Y-89523408D01*
X155498350Y-89432840D01*
X155620340Y-89310850D01*
X155710908Y-89164016D01*
X155765174Y-89000253D01*
X155775500Y-88899177D01*
X155775499Y-88300824D01*
X155774923Y-88295190D01*
X155765174Y-88199747D01*
X155710908Y-88035984D01*
X155620340Y-87889150D01*
X155575120Y-87843930D01*
X155541636Y-87782608D01*
X155546620Y-87712916D01*
X155575121Y-87668569D01*
X155620340Y-87623350D01*
X155710908Y-87476516D01*
X155765174Y-87312753D01*
X155775500Y-87211677D01*
X155775499Y-86613324D01*
X155765174Y-86512247D01*
X155710908Y-86348484D01*
X155620340Y-86201650D01*
X155506371Y-86087681D01*
X155472886Y-86026358D01*
X155477870Y-85956666D01*
X155506371Y-85912319D01*
X155561880Y-85856810D01*
X155620340Y-85798350D01*
X155710908Y-85651516D01*
X155765174Y-85487753D01*
X155775500Y-85386677D01*
X155775499Y-84788324D01*
X155771965Y-84753734D01*
X155784734Y-84685045D01*
X155832613Y-84634160D01*
X155843415Y-84629164D01*
X155843246Y-84628812D01*
X155849516Y-84625792D01*
X155849519Y-84625789D01*
X155849522Y-84625789D01*
X155996432Y-84533478D01*
X156063669Y-84514479D01*
X156130504Y-84534847D01*
X156150085Y-84550792D01*
X157563181Y-85963887D01*
X157596666Y-86025210D01*
X157599500Y-86051568D01*
X157599500Y-93799901D01*
X157579815Y-93866940D01*
X157563181Y-93887582D01*
X155852932Y-95597831D01*
X155791609Y-95631316D01*
X155767224Y-95634134D01*
X155126960Y-95644324D01*
X155125011Y-95644340D01*
X155120001Y-95644340D01*
X155109287Y-95645277D01*
X155106600Y-95645482D01*
X155073574Y-95647645D01*
X155068078Y-95648540D01*
X155058960Y-95649680D01*
X154884596Y-95664936D01*
X154884586Y-95664938D01*
X154656344Y-95726094D01*
X154656335Y-95726098D01*
X154442171Y-95825964D01*
X154442169Y-95825965D01*
X154248597Y-95961505D01*
X154081505Y-96128597D01*
X153951575Y-96314158D01*
X153896998Y-96357783D01*
X153827500Y-96364977D01*
X153765145Y-96333454D01*
X153748425Y-96314158D01*
X153618494Y-96128597D01*
X153451402Y-95961506D01*
X153451395Y-95961501D01*
X153257834Y-95825967D01*
X153257830Y-95825965D01*
X153257828Y-95825964D01*
X153043663Y-95726097D01*
X153043659Y-95726096D01*
X153043655Y-95726094D01*
X152815413Y-95664938D01*
X152815403Y-95664936D01*
X152580001Y-95644341D01*
X152579999Y-95644341D01*
X152344596Y-95664936D01*
X152344586Y-95664938D01*
X152116344Y-95726094D01*
X152116335Y-95726098D01*
X151902171Y-95825964D01*
X151902169Y-95825965D01*
X151708597Y-95961505D01*
X151541505Y-96128597D01*
X151411575Y-96314158D01*
X151356998Y-96357783D01*
X151287500Y-96364977D01*
X151225145Y-96333454D01*
X151208425Y-96314158D01*
X151078494Y-96128597D01*
X150911402Y-95961506D01*
X150911395Y-95961501D01*
X150717834Y-95825967D01*
X150717830Y-95825965D01*
X150717828Y-95825964D01*
X150503663Y-95726097D01*
X150503659Y-95726096D01*
X150503655Y-95726094D01*
X150275413Y-95664938D01*
X150275403Y-95664936D01*
X150040001Y-95644341D01*
X150039999Y-95644341D01*
X149804596Y-95664936D01*
X149804586Y-95664938D01*
X149576344Y-95726094D01*
X149576335Y-95726098D01*
X149362171Y-95825964D01*
X149362169Y-95825965D01*
X149168597Y-95961505D01*
X149001505Y-96128597D01*
X148871575Y-96314158D01*
X148816998Y-96357783D01*
X148747500Y-96364977D01*
X148685145Y-96333454D01*
X148668425Y-96314158D01*
X148538494Y-96128597D01*
X148371402Y-95961506D01*
X148371395Y-95961501D01*
X148177834Y-95825967D01*
X148177830Y-95825965D01*
X148177828Y-95825964D01*
X147963663Y-95726097D01*
X147963659Y-95726096D01*
X147963657Y-95726095D01*
X147747788Y-95668253D01*
X147746551Y-95667914D01*
X147060392Y-95476429D01*
X147006042Y-95444674D01*
X146678421Y-95117052D01*
X146678414Y-95117046D01*
X146604729Y-95067812D01*
X146604729Y-95067813D01*
X146555491Y-95034913D01*
X146418917Y-94978343D01*
X146418907Y-94978340D01*
X146273920Y-94949500D01*
X146273918Y-94949500D01*
X145562229Y-94949500D01*
X145495190Y-94929815D01*
X145474548Y-94913181D01*
X143886819Y-93325451D01*
X143853334Y-93264128D01*
X143850500Y-93237770D01*
X143850500Y-91223902D01*
X143870185Y-91156863D01*
X143922989Y-91111108D01*
X143992147Y-91101164D01*
X144055703Y-91130189D01*
X144079494Y-91157930D01*
X144170184Y-91302262D01*
X144297738Y-91429816D01*
X144450478Y-91525789D01*
X144620745Y-91585368D01*
X144620750Y-91585369D01*
X144799996Y-91605565D01*
X144800000Y-91605565D01*
X144800004Y-91605565D01*
X144979249Y-91585369D01*
X144979252Y-91585368D01*
X144979255Y-91585368D01*
X145149522Y-91525789D01*
X145302262Y-91429816D01*
X145429816Y-91302262D01*
X145525789Y-91149522D01*
X145585368Y-90979255D01*
X145595031Y-90893485D01*
X145622096Y-90829075D01*
X145679249Y-90789665D01*
X145769328Y-90759816D01*
X145769328Y-90759815D01*
X145769334Y-90759814D01*
X145918656Y-90667712D01*
X146042712Y-90543656D01*
X146134814Y-90394334D01*
X146189999Y-90227797D01*
X146200500Y-90125009D01*
X146200499Y-89199992D01*
X146189999Y-89097203D01*
X146134814Y-88930666D01*
X146042712Y-88781344D01*
X145918656Y-88657288D01*
X145769334Y-88565186D01*
X145602797Y-88510001D01*
X145602795Y-88510000D01*
X145500010Y-88499500D01*
X144099998Y-88499500D01*
X144099981Y-88499501D01*
X143990468Y-88510689D01*
X143990249Y-88508545D01*
X143930756Y-88504079D01*
X143874971Y-88462010D01*
X143850785Y-88396460D01*
X143850500Y-88388051D01*
X143850500Y-88362229D01*
X143870185Y-88295190D01*
X143886815Y-88274552D01*
X144424549Y-87736817D01*
X144485872Y-87703333D01*
X144512230Y-87700499D01*
X145500002Y-87700499D01*
X145500008Y-87700499D01*
X145602797Y-87689999D01*
X145769334Y-87634814D01*
X145918656Y-87542712D01*
X146042712Y-87418656D01*
X146048420Y-87409402D01*
X146100368Y-87362678D01*
X146153958Y-87350500D01*
X146325501Y-87350500D01*
X146392540Y-87370185D01*
X146438295Y-87422989D01*
X146449501Y-87474500D01*
X146449501Y-87897876D01*
X146455908Y-87957483D01*
X146506202Y-88092328D01*
X146506206Y-88092335D01*
X146592452Y-88207544D01*
X146592455Y-88207547D01*
X146707664Y-88293793D01*
X146707671Y-88293797D01*
X146842517Y-88344091D01*
X146842516Y-88344091D01*
X146849444Y-88344835D01*
X146902127Y-88350500D01*
X148497872Y-88350499D01*
X148557483Y-88344091D01*
X148692331Y-88293796D01*
X148807546Y-88207546D01*
X148893796Y-88092331D01*
X148944091Y-87957483D01*
X148950500Y-87897873D01*
X148950499Y-85802128D01*
X148944091Y-85742517D01*
X148942314Y-85737753D01*
X148893797Y-85607671D01*
X148893793Y-85607664D01*
X148807547Y-85492455D01*
X148807544Y-85492452D01*
X148692335Y-85406206D01*
X148692328Y-85406202D01*
X148557482Y-85355908D01*
X148557483Y-85355908D01*
X148497883Y-85349501D01*
X148497881Y-85349500D01*
X148497873Y-85349500D01*
X148497864Y-85349500D01*
X146902129Y-85349500D01*
X146902123Y-85349501D01*
X146842516Y-85355908D01*
X146707671Y-85406202D01*
X146707664Y-85406206D01*
X146592455Y-85492452D01*
X146592452Y-85492455D01*
X146506206Y-85607664D01*
X146506202Y-85607671D01*
X146455908Y-85742517D01*
X146454126Y-85750062D01*
X146451853Y-85749525D01*
X146429571Y-85803312D01*
X146372177Y-85843157D01*
X146333024Y-85849500D01*
X146231058Y-85849500D01*
X146164019Y-85829815D01*
X146125519Y-85790597D01*
X146042712Y-85656344D01*
X145918656Y-85532288D01*
X145825888Y-85475069D01*
X145769336Y-85440187D01*
X145769331Y-85440185D01*
X145767862Y-85439698D01*
X145602797Y-85385001D01*
X145602795Y-85385000D01*
X145500010Y-85374500D01*
X144099998Y-85374500D01*
X144099981Y-85374501D01*
X143997203Y-85385000D01*
X143997200Y-85385001D01*
X143830668Y-85440185D01*
X143830663Y-85440187D01*
X143681342Y-85532289D01*
X143557289Y-85656342D01*
X143465187Y-85805663D01*
X143465185Y-85805668D01*
X143437349Y-85889670D01*
X143410001Y-85972203D01*
X143410001Y-85972204D01*
X143410000Y-85972204D01*
X143399500Y-86074983D01*
X143399500Y-86587769D01*
X143379815Y-86654808D01*
X143363181Y-86675450D01*
X142987180Y-87051450D01*
X142925857Y-87084935D01*
X142856165Y-87079951D01*
X142800232Y-87038079D01*
X142775815Y-86972615D01*
X142775499Y-86963795D01*
X142775499Y-86388324D01*
X142765174Y-86287247D01*
X142710908Y-86123484D01*
X142620340Y-85976650D01*
X142536819Y-85893129D01*
X142503334Y-85831806D01*
X142500500Y-85805448D01*
X142500500Y-83300097D01*
X142520185Y-83233058D01*
X142536819Y-83212416D01*
X143412417Y-82336819D01*
X143473740Y-82303334D01*
X143500098Y-82300500D01*
X147217588Y-82300500D01*
X147284627Y-82320185D01*
X147294903Y-82327555D01*
X147297736Y-82329814D01*
X147297738Y-82329816D01*
X147450478Y-82425789D01*
X147606890Y-82480520D01*
X147620745Y-82485368D01*
X147620750Y-82485369D01*
X147799996Y-82505565D01*
X147800000Y-82505565D01*
X147800004Y-82505565D01*
X147979249Y-82485369D01*
X147979252Y-82485368D01*
X147979255Y-82485368D01*
X148149522Y-82425789D01*
X148302262Y-82329816D01*
X148429816Y-82202262D01*
X148520444Y-82058027D01*
X148572779Y-82011737D01*
X148625438Y-82000000D01*
X148674562Y-82000000D01*
X148741601Y-82019685D01*
G37*
%TD.AperFunction*%
%TD*%
%TA.AperFunction,Conductor*%
%TO.N,SWCLK*%
G36*
X158067026Y-53220653D02*
G01*
X158870146Y-53348432D01*
X158877778Y-53353117D01*
X158880008Y-53359977D01*
X158880697Y-54188987D01*
X158877277Y-54197263D01*
X158869007Y-54200697D01*
X158868987Y-54200697D01*
X158040253Y-54200008D01*
X158031983Y-54196574D01*
X158028663Y-54189833D01*
X158028552Y-54188987D01*
X157920468Y-53366855D01*
X157922787Y-53358209D01*
X157923787Y-53357068D01*
X158056920Y-53223935D01*
X158065192Y-53220509D01*
X158067026Y-53220653D01*
G37*
%TD.AperFunction*%
%TD*%
%TA.AperFunction,Conductor*%
%TO.N,SWDIO*%
G36*
X156348264Y-54207278D02*
G01*
X156655957Y-54515483D01*
X156934008Y-54793997D01*
X156937428Y-54802273D01*
X156935215Y-54809111D01*
X156460502Y-55466767D01*
X156452881Y-55471469D01*
X156451015Y-55471619D01*
X156262746Y-55471619D01*
X156254473Y-55468192D01*
X156253487Y-55467072D01*
X156253251Y-55466767D01*
X155745247Y-54809180D01*
X155742901Y-54800538D01*
X155746225Y-54793762D01*
X156331721Y-54207292D01*
X156339990Y-54203859D01*
X156348264Y-54207278D01*
G37*
%TD.AperFunction*%
%TD*%
%TA.AperFunction,Conductor*%
%TO.N,+3.3V*%
G36*
X141107399Y-54208147D02*
G01*
X141108190Y-54209021D01*
X141788470Y-55041389D01*
X141791052Y-55049963D01*
X141787265Y-55057465D01*
X140860343Y-55896972D01*
X140852489Y-55900000D01*
X140664370Y-55900000D01*
X140656097Y-55896573D01*
X140653817Y-55893353D01*
X140253574Y-55057464D01*
X140253092Y-55048522D01*
X140255847Y-55044146D01*
X141090854Y-54208156D01*
X141099124Y-54204725D01*
X141107399Y-54208147D01*
G37*
%TD.AperFunction*%
%TD*%
%TA.AperFunction,Conductor*%
%TO.N,RX2*%
G36*
X146188264Y-54207278D02*
G01*
X146502333Y-54521869D01*
X146774026Y-54794015D01*
X146777446Y-54802291D01*
X146775250Y-54809105D01*
X146303501Y-55466146D01*
X146295892Y-55470867D01*
X146293997Y-55471022D01*
X146105723Y-55471022D01*
X146097450Y-55467595D01*
X146096487Y-55466505D01*
X145585294Y-54809186D01*
X145582920Y-54800551D01*
X145586249Y-54793738D01*
X146171721Y-54207292D01*
X146179990Y-54203859D01*
X146188264Y-54207278D01*
G37*
%TD.AperFunction*%
%TD*%
%TA.AperFunction,Conductor*%
%TO.N,Net-(J1-Pin_2)*%
G36*
X146781797Y-95923498D02*
G01*
X147795854Y-96206489D01*
X147812578Y-96211157D01*
X147819625Y-96216681D01*
X147820702Y-96225571D01*
X147820247Y-96226892D01*
X147502562Y-96996214D01*
X147496237Y-97002553D01*
X147496214Y-97002562D01*
X146726892Y-97320247D01*
X146717937Y-97320238D01*
X146711612Y-97313899D01*
X146711157Y-97312578D01*
X146423499Y-96281800D01*
X146424576Y-96272910D01*
X146426491Y-96270386D01*
X146770383Y-95926494D01*
X146778655Y-95923068D01*
X146781797Y-95923498D01*
G37*
%TD.AperFunction*%
%TD*%
M02*
