M48
; DRILL file {KiCad 8.0.7-8.0.7-0~ubuntu22.04.1} date 2025-01-07T12:13:13+0100
; FORMAT={-:-/ absolute / metric / decimal}
; #@! TF.CreationDate,2025-01-07T12:13:13+01:00
; #@! TF.GenerationSoftware,Kicad,Pcbnew,8.0.7-8.0.7-0~ubuntu22.04.1
; #@! TF.FileFunction,Plated,1,2,PTH
FMAT,2
METRIC
; #@! TA.AperFunction,Plated,PTH,ViaDrill
T1C0.300
; #@! TA.AperFunction,Plated,PTH,ComponentDrill
T2C1.000
%
G90
G05
T1
X142.1Y-75.8
X142.2Y-60.9
X142.2Y-79.3
X142.2Y-91.8
X142.556Y-72.4
X142.9Y-51.8
X143.0Y-78.5
X144.269Y-68.053
X144.3Y-58.5
X144.8Y-90.8
X145.4Y-68.6
X145.7Y-69.4
X146.4Y-67.3
X147.25Y-64.0
X147.8Y-74.7
X147.8Y-81.7
X148.5Y-90.6
X148.6Y-74.7
X148.9Y-58.6
X148.9Y-60.4
X149.5Y-76.1
X149.5Y-78.75
X149.5Y-81.7
X149.8Y-80.3
X149.95Y-72.35
X150.1Y-83.8
X150.1Y-84.6
X150.606Y-66.0
X151.282Y-79.568
X151.3Y-58.6
X151.9Y-60.4
X152.1Y-68.3
X152.136Y-79.53
X152.4Y-91.9
X152.7Y-80.1
X153.5Y-71.0
X153.706Y-78.744
X153.8Y-58.6
X154.5Y-51.9
X154.848Y-74.195
X155.0Y-79.805
X155.5Y-83.9
X156.335Y-58.631
X156.6Y-77.45
X157.5Y-64.1
X157.8Y-60.9
X157.8Y-79.3
X158.25Y-68.85
X158.5Y-70.5
T2
X141.1Y-54.2
X143.64Y-54.2
X144.96Y-97.0
X146.18Y-54.2
X147.5Y-97.0
X148.72Y-54.2
X150.04Y-97.0
X151.26Y-54.2
X152.58Y-97.0
X153.8Y-54.2
X155.12Y-97.0
X156.34Y-54.2
X158.88Y-54.2
M30
