%TF.GenerationSoftware,KiCad,Pcbnew,8.0.7-8.0.7-0~ubuntu22.04.1*%
%TF.CreationDate,2025-01-07T12:13:10+01:00*%
%TF.ProjectId,mcu_board,6d63755f-626f-4617-9264-2e6b69636164,rev?*%
%TF.SameCoordinates,Original*%
%TF.FileFunction,Paste,Top*%
%TF.FilePolarity,Positive*%
%FSLAX46Y46*%
G04 Gerber Fmt 4.6, Leading zero omitted, Abs format (unit mm)*
G04 Created by KiCad (PCBNEW 8.0.7-8.0.7-0~ubuntu22.04.1) date 2025-01-07 12:13:10*
%MOMM*%
%LPD*%
G01*
G04 APERTURE LIST*
G04 Aperture macros list*
%AMRoundRect*
0 Rectangle with rounded corners*
0 $1 Rounding radius*
0 $2 $3 $4 $5 $6 $7 $8 $9 X,Y pos of 4 corners*
0 Add a 4 corners polygon primitive as box body*
4,1,4,$2,$3,$4,$5,$6,$7,$8,$9,$2,$3,0*
0 Add four circle primitives for the rounded corners*
1,1,$1+$1,$2,$3*
1,1,$1+$1,$4,$5*
1,1,$1+$1,$6,$7*
1,1,$1+$1,$8,$9*
0 Add four rect primitives between the rounded corners*
20,1,$1+$1,$2,$3,$4,$5,0*
20,1,$1+$1,$4,$5,$6,$7,0*
20,1,$1+$1,$6,$7,$8,$9,0*
20,1,$1+$1,$8,$9,$2,$3,0*%
G04 Aperture macros list end*
%ADD10RoundRect,0.237500X-0.237500X0.250000X-0.237500X-0.250000X0.237500X-0.250000X0.237500X0.250000X0*%
%ADD11RoundRect,0.237500X-0.300000X-0.237500X0.300000X-0.237500X0.300000X0.237500X-0.300000X0.237500X0*%
%ADD12RoundRect,0.237500X0.237500X-0.250000X0.237500X0.250000X-0.237500X0.250000X-0.237500X-0.250000X0*%
%ADD13RoundRect,0.237500X0.237500X-0.300000X0.237500X0.300000X-0.237500X0.300000X-0.237500X-0.300000X0*%
%ADD14RoundRect,0.381000X-0.762000X-0.381000X0.762000X-0.381000X0.762000X0.381000X-0.762000X0.381000X0*%
%ADD15RoundRect,0.237500X-0.287500X-0.237500X0.287500X-0.237500X0.287500X0.237500X-0.287500X0.237500X0*%
%ADD16R,1.500000X2.000000*%
%ADD17R,3.800000X2.000000*%
%ADD18RoundRect,0.250000X-0.412500X-0.650000X0.412500X-0.650000X0.412500X0.650000X-0.412500X0.650000X0*%
%ADD19R,1.200000X1.400000*%
%ADD20RoundRect,0.075000X-0.662500X-0.075000X0.662500X-0.075000X0.662500X0.075000X-0.662500X0.075000X0*%
%ADD21RoundRect,0.075000X-0.075000X-0.662500X0.075000X-0.662500X0.075000X0.662500X-0.075000X0.662500X0*%
%ADD22RoundRect,0.237500X0.250000X0.237500X-0.250000X0.237500X-0.250000X-0.237500X0.250000X-0.237500X0*%
%ADD23RoundRect,0.250000X-0.650000X0.412500X-0.650000X-0.412500X0.650000X-0.412500X0.650000X0.412500X0*%
%ADD24RoundRect,0.237500X-0.237500X0.300000X-0.237500X-0.300000X0.237500X-0.300000X0.237500X0.300000X0*%
%ADD25RoundRect,0.237500X0.300000X0.237500X-0.300000X0.237500X-0.300000X-0.237500X0.300000X-0.237500X0*%
G04 APERTURE END LIST*
D10*
%TO.C,R13*%
X141800000Y-86687500D03*
X141800000Y-88512500D03*
%TD*%
D11*
%TO.C,C9*%
X148937500Y-65100000D03*
X150662500Y-65100000D03*
%TD*%
D12*
%TO.C,R9*%
X148900000Y-63125000D03*
X148900000Y-61300000D03*
%TD*%
%TO.C,R6*%
X153400000Y-63125000D03*
X153400000Y-61300000D03*
%TD*%
D13*
%TO.C,C10*%
X157500000Y-66940625D03*
X157500000Y-65215625D03*
%TD*%
D14*
%TO.C,J2*%
X142200000Y-59550000D03*
X157800000Y-59550001D03*
X157800000Y-80649999D03*
X142200000Y-80650000D03*
%TD*%
D12*
%TO.C,R8*%
X150400000Y-63125000D03*
X150400000Y-61300000D03*
%TD*%
D15*
%TO.C,FB1*%
X146825000Y-76778125D03*
X148575000Y-76778125D03*
%TD*%
D16*
%TO.C,U3*%
X152300000Y-86850000D03*
X150000000Y-86850000D03*
D17*
X150000000Y-93150000D03*
D16*
X147700000Y-86850000D03*
%TD*%
D18*
%TO.C,C1*%
X142037500Y-77300000D03*
X145162500Y-77300000D03*
%TD*%
D11*
%TO.C,C8*%
X142556250Y-73221875D03*
X144281250Y-73221875D03*
%TD*%
D12*
%TO.C,R7*%
X151900000Y-63125000D03*
X151900000Y-61300000D03*
%TD*%
D19*
%TO.C,Y1*%
X144268750Y-71312500D03*
X144268750Y-69112500D03*
X142568750Y-69112500D03*
X142568750Y-71312500D03*
%TD*%
D12*
%TO.C,R11*%
X146800000Y-71212500D03*
X146800000Y-69387500D03*
%TD*%
D20*
%TO.C,U2*%
X148693750Y-68578125D03*
X148693750Y-69078125D03*
X148693750Y-69578125D03*
X148693750Y-70078125D03*
X148693750Y-70578125D03*
X148693750Y-71078125D03*
X148693750Y-71578125D03*
X148693750Y-72078125D03*
X148693750Y-72578125D03*
X148693750Y-73078125D03*
X148693750Y-73578125D03*
X148693750Y-74078125D03*
D21*
X150106250Y-75490625D03*
X150606250Y-75490625D03*
X151106250Y-75490625D03*
X151606250Y-75490625D03*
X152106250Y-75490625D03*
X152606250Y-75490625D03*
X153106250Y-75490625D03*
X153606250Y-75490625D03*
X154106250Y-75490625D03*
X154606250Y-75490625D03*
X155106250Y-75490625D03*
X155606250Y-75490625D03*
D20*
X157018750Y-74078125D03*
X157018750Y-73578125D03*
X157018750Y-73078125D03*
X157018750Y-72578125D03*
X157018750Y-72078125D03*
X157018750Y-71578125D03*
X157018750Y-71078125D03*
X157018750Y-70578125D03*
X157018750Y-70078125D03*
X157018750Y-69578125D03*
X157018750Y-69078125D03*
X157018750Y-68578125D03*
D21*
X155606250Y-67165625D03*
X155106250Y-67165625D03*
X154606250Y-67165625D03*
X154106250Y-67165625D03*
X153606250Y-67165625D03*
X153106250Y-67165625D03*
X152606250Y-67165625D03*
X152106250Y-67165625D03*
X151606250Y-67165625D03*
X151106250Y-67165625D03*
X150606250Y-67165625D03*
X150106250Y-67165625D03*
%TD*%
D22*
%TO.C,R4*%
X144312500Y-74800000D03*
X142487500Y-74800000D03*
%TD*%
D23*
%TO.C,C5*%
X144800000Y-86537500D03*
X144800000Y-89662500D03*
%TD*%
D24*
%TO.C,C11*%
X157518750Y-75737500D03*
X157518750Y-77462500D03*
%TD*%
D13*
%TO.C,C3*%
X146800000Y-74725000D03*
X146800000Y-73000000D03*
%TD*%
D12*
%TO.C,R5*%
X154800000Y-90425000D03*
X154800000Y-88600000D03*
%TD*%
%TO.C,R10*%
X154800000Y-86912500D03*
X154800000Y-85087500D03*
%TD*%
D25*
%TO.C,C7*%
X144281250Y-67221875D03*
X142556250Y-67221875D03*
%TD*%
D18*
%TO.C,C6*%
X148237500Y-84200000D03*
X151362500Y-84200000D03*
%TD*%
M02*
