%TF.GenerationSoftware,KiCad,Pcbnew,9.0.4-9.0.4-0~ubuntu24.04.1*%
%TF.CreationDate,2025-08-21T12:52:44+02:00*%
%TF.ProjectId,octal_base,6f637461-6c5f-4626-9173-652e6b696361,1*%
%TF.SameCoordinates,Original*%
%TF.FileFunction,Legend,Top*%
%TF.FilePolarity,Positive*%
%FSLAX46Y46*%
G04 Gerber Fmt 4.6, Leading zero omitted, Abs format (unit mm)*
G04 Created by KiCad (PCBNEW 9.0.4-9.0.4-0~ubuntu24.04.1) date 2025-08-21 12:52:44*
%MOMM*%
%LPD*%
G01*
G04 APERTURE LIST*
%ADD10C,0.100000*%
%ADD11C,0.150000*%
%ADD12C,0.120000*%
G04 APERTURE END LIST*
D10*
X87499122Y-71209133D02*
X87832455Y-71209133D01*
X87432455Y-71409133D02*
X87665789Y-70709133D01*
X87665789Y-70709133D02*
X87899122Y-71409133D01*
X88499122Y-70742466D02*
X88432455Y-70709133D01*
X88432455Y-70709133D02*
X88332455Y-70709133D01*
X88332455Y-70709133D02*
X88232455Y-70742466D01*
X88232455Y-70742466D02*
X88165789Y-70809133D01*
X88165789Y-70809133D02*
X88132455Y-70875800D01*
X88132455Y-70875800D02*
X88099122Y-71009133D01*
X88099122Y-71009133D02*
X88099122Y-71109133D01*
X88099122Y-71109133D02*
X88132455Y-71242466D01*
X88132455Y-71242466D02*
X88165789Y-71309133D01*
X88165789Y-71309133D02*
X88232455Y-71375800D01*
X88232455Y-71375800D02*
X88332455Y-71409133D01*
X88332455Y-71409133D02*
X88399122Y-71409133D01*
X88399122Y-71409133D02*
X88499122Y-71375800D01*
X88499122Y-71375800D02*
X88532455Y-71342466D01*
X88532455Y-71342466D02*
X88532455Y-71109133D01*
X88532455Y-71109133D02*
X88399122Y-71109133D01*
X89232455Y-71342466D02*
X89199122Y-71375800D01*
X89199122Y-71375800D02*
X89099122Y-71409133D01*
X89099122Y-71409133D02*
X89032455Y-71409133D01*
X89032455Y-71409133D02*
X88932455Y-71375800D01*
X88932455Y-71375800D02*
X88865789Y-71309133D01*
X88865789Y-71309133D02*
X88832455Y-71242466D01*
X88832455Y-71242466D02*
X88799122Y-71109133D01*
X88799122Y-71109133D02*
X88799122Y-71009133D01*
X88799122Y-71009133D02*
X88832455Y-70875800D01*
X88832455Y-70875800D02*
X88865789Y-70809133D01*
X88865789Y-70809133D02*
X88932455Y-70742466D01*
X88932455Y-70742466D02*
X89032455Y-70709133D01*
X89032455Y-70709133D02*
X89099122Y-70709133D01*
X89099122Y-70709133D02*
X89199122Y-70742466D01*
X89199122Y-70742466D02*
X89232455Y-70775800D01*
X90432455Y-70742466D02*
X90365788Y-70709133D01*
X90365788Y-70709133D02*
X90265788Y-70709133D01*
X90265788Y-70709133D02*
X90165788Y-70742466D01*
X90165788Y-70742466D02*
X90099122Y-70809133D01*
X90099122Y-70809133D02*
X90065788Y-70875800D01*
X90065788Y-70875800D02*
X90032455Y-71009133D01*
X90032455Y-71009133D02*
X90032455Y-71109133D01*
X90032455Y-71109133D02*
X90065788Y-71242466D01*
X90065788Y-71242466D02*
X90099122Y-71309133D01*
X90099122Y-71309133D02*
X90165788Y-71375800D01*
X90165788Y-71375800D02*
X90265788Y-71409133D01*
X90265788Y-71409133D02*
X90332455Y-71409133D01*
X90332455Y-71409133D02*
X90432455Y-71375800D01*
X90432455Y-71375800D02*
X90465788Y-71342466D01*
X90465788Y-71342466D02*
X90465788Y-71109133D01*
X90465788Y-71109133D02*
X90332455Y-71109133D01*
X90765788Y-71409133D02*
X90765788Y-70709133D01*
X90765788Y-70709133D02*
X91165788Y-71409133D01*
X91165788Y-71409133D02*
X91165788Y-70709133D01*
X91499121Y-71409133D02*
X91499121Y-70709133D01*
X91499121Y-70709133D02*
X91665788Y-70709133D01*
X91665788Y-70709133D02*
X91765788Y-70742466D01*
X91765788Y-70742466D02*
X91832455Y-70809133D01*
X91832455Y-70809133D02*
X91865788Y-70875800D01*
X91865788Y-70875800D02*
X91899121Y-71009133D01*
X91899121Y-71009133D02*
X91899121Y-71109133D01*
X91899121Y-71109133D02*
X91865788Y-71242466D01*
X91865788Y-71242466D02*
X91832455Y-71309133D01*
X91832455Y-71309133D02*
X91765788Y-71375800D01*
X91765788Y-71375800D02*
X91665788Y-71409133D01*
X91665788Y-71409133D02*
X91499121Y-71409133D01*
X92632454Y-70709133D02*
X92865788Y-71409133D01*
X92865788Y-71409133D02*
X93099121Y-70709133D01*
X93732454Y-71342466D02*
X93699121Y-71375800D01*
X93699121Y-71375800D02*
X93599121Y-71409133D01*
X93599121Y-71409133D02*
X93532454Y-71409133D01*
X93532454Y-71409133D02*
X93432454Y-71375800D01*
X93432454Y-71375800D02*
X93365788Y-71309133D01*
X93365788Y-71309133D02*
X93332454Y-71242466D01*
X93332454Y-71242466D02*
X93299121Y-71109133D01*
X93299121Y-71109133D02*
X93299121Y-71009133D01*
X93299121Y-71009133D02*
X93332454Y-70875800D01*
X93332454Y-70875800D02*
X93365788Y-70809133D01*
X93365788Y-70809133D02*
X93432454Y-70742466D01*
X93432454Y-70742466D02*
X93532454Y-70709133D01*
X93532454Y-70709133D02*
X93599121Y-70709133D01*
X93599121Y-70709133D02*
X93699121Y-70742466D01*
X93699121Y-70742466D02*
X93732454Y-70775800D01*
X94432454Y-71342466D02*
X94399121Y-71375800D01*
X94399121Y-71375800D02*
X94299121Y-71409133D01*
X94299121Y-71409133D02*
X94232454Y-71409133D01*
X94232454Y-71409133D02*
X94132454Y-71375800D01*
X94132454Y-71375800D02*
X94065788Y-71309133D01*
X94065788Y-71309133D02*
X94032454Y-71242466D01*
X94032454Y-71242466D02*
X93999121Y-71109133D01*
X93999121Y-71109133D02*
X93999121Y-71009133D01*
X93999121Y-71009133D02*
X94032454Y-70875800D01*
X94032454Y-70875800D02*
X94065788Y-70809133D01*
X94065788Y-70809133D02*
X94132454Y-70742466D01*
X94132454Y-70742466D02*
X94232454Y-70709133D01*
X94232454Y-70709133D02*
X94299121Y-70709133D01*
X94299121Y-70709133D02*
X94399121Y-70742466D01*
X94399121Y-70742466D02*
X94432454Y-70775800D01*
X95265787Y-71042466D02*
X95499121Y-71042466D01*
X95599121Y-71409133D02*
X95265787Y-71409133D01*
X95265787Y-71409133D02*
X95265787Y-70709133D01*
X95265787Y-70709133D02*
X95599121Y-70709133D01*
X95899120Y-71409133D02*
X95899120Y-70709133D01*
X95899120Y-70709133D02*
X96299120Y-71409133D01*
X96299120Y-71409133D02*
X96299120Y-70709133D01*
D11*
X82204820Y-73233334D02*
X82919105Y-73233334D01*
X82919105Y-73233334D02*
X83061962Y-73280953D01*
X83061962Y-73280953D02*
X83157201Y-73376191D01*
X83157201Y-73376191D02*
X83204820Y-73519048D01*
X83204820Y-73519048D02*
X83204820Y-73614286D01*
X82300058Y-72804762D02*
X82252439Y-72757143D01*
X82252439Y-72757143D02*
X82204820Y-72661905D01*
X82204820Y-72661905D02*
X82204820Y-72423810D01*
X82204820Y-72423810D02*
X82252439Y-72328572D01*
X82252439Y-72328572D02*
X82300058Y-72280953D01*
X82300058Y-72280953D02*
X82395296Y-72233334D01*
X82395296Y-72233334D02*
X82490534Y-72233334D01*
X82490534Y-72233334D02*
X82633391Y-72280953D01*
X82633391Y-72280953D02*
X83204820Y-72852381D01*
X83204820Y-72852381D02*
X83204820Y-72233334D01*
X88466666Y-82781009D02*
X88133333Y-82781009D01*
X88133333Y-83304819D02*
X88133333Y-82304819D01*
X88133333Y-82304819D02*
X88609523Y-82304819D01*
X89323809Y-82781009D02*
X89466666Y-82828628D01*
X89466666Y-82828628D02*
X89514285Y-82876247D01*
X89514285Y-82876247D02*
X89561904Y-82971485D01*
X89561904Y-82971485D02*
X89561904Y-83114342D01*
X89561904Y-83114342D02*
X89514285Y-83209580D01*
X89514285Y-83209580D02*
X89466666Y-83257200D01*
X89466666Y-83257200D02*
X89371428Y-83304819D01*
X89371428Y-83304819D02*
X88990476Y-83304819D01*
X88990476Y-83304819D02*
X88990476Y-82304819D01*
X88990476Y-82304819D02*
X89323809Y-82304819D01*
X89323809Y-82304819D02*
X89419047Y-82352438D01*
X89419047Y-82352438D02*
X89466666Y-82400057D01*
X89466666Y-82400057D02*
X89514285Y-82495295D01*
X89514285Y-82495295D02*
X89514285Y-82590533D01*
X89514285Y-82590533D02*
X89466666Y-82685771D01*
X89466666Y-82685771D02*
X89419047Y-82733390D01*
X89419047Y-82733390D02*
X89323809Y-82781009D01*
X89323809Y-82781009D02*
X88990476Y-82781009D01*
X90514285Y-83304819D02*
X89942857Y-83304819D01*
X90228571Y-83304819D02*
X90228571Y-82304819D01*
X90228571Y-82304819D02*
X90133333Y-82447676D01*
X90133333Y-82447676D02*
X90038095Y-82542914D01*
X90038095Y-82542914D02*
X89942857Y-82590533D01*
X93266666Y-82961009D02*
X92933333Y-82961009D01*
X92933333Y-83484819D02*
X92933333Y-82484819D01*
X92933333Y-82484819D02*
X93409523Y-82484819D01*
X94314285Y-83484819D02*
X93742857Y-83484819D01*
X94028571Y-83484819D02*
X94028571Y-82484819D01*
X94028571Y-82484819D02*
X93933333Y-82627676D01*
X93933333Y-82627676D02*
X93838095Y-82722914D01*
X93838095Y-82722914D02*
X93742857Y-82770533D01*
X94861905Y-79504819D02*
X94861905Y-78504819D01*
X94861905Y-78504819D02*
X95100000Y-78504819D01*
X95100000Y-78504819D02*
X95242857Y-78552438D01*
X95242857Y-78552438D02*
X95338095Y-78647676D01*
X95338095Y-78647676D02*
X95385714Y-78742914D01*
X95385714Y-78742914D02*
X95433333Y-78933390D01*
X95433333Y-78933390D02*
X95433333Y-79076247D01*
X95433333Y-79076247D02*
X95385714Y-79266723D01*
X95385714Y-79266723D02*
X95338095Y-79361961D01*
X95338095Y-79361961D02*
X95242857Y-79457200D01*
X95242857Y-79457200D02*
X95100000Y-79504819D01*
X95100000Y-79504819D02*
X94861905Y-79504819D01*
X95766667Y-78504819D02*
X96385714Y-78504819D01*
X96385714Y-78504819D02*
X96052381Y-78885771D01*
X96052381Y-78885771D02*
X96195238Y-78885771D01*
X96195238Y-78885771D02*
X96290476Y-78933390D01*
X96290476Y-78933390D02*
X96338095Y-78981009D01*
X96338095Y-78981009D02*
X96385714Y-79076247D01*
X96385714Y-79076247D02*
X96385714Y-79314342D01*
X96385714Y-79314342D02*
X96338095Y-79409580D01*
X96338095Y-79409580D02*
X96290476Y-79457200D01*
X96290476Y-79457200D02*
X96195238Y-79504819D01*
X96195238Y-79504819D02*
X95909524Y-79504819D01*
X95909524Y-79504819D02*
X95814286Y-79457200D01*
X95814286Y-79457200D02*
X95766667Y-79409580D01*
X99061905Y-75204819D02*
X99061905Y-74204819D01*
X99061905Y-74204819D02*
X99300000Y-74204819D01*
X99300000Y-74204819D02*
X99442857Y-74252438D01*
X99442857Y-74252438D02*
X99538095Y-74347676D01*
X99538095Y-74347676D02*
X99585714Y-74442914D01*
X99585714Y-74442914D02*
X99633333Y-74633390D01*
X99633333Y-74633390D02*
X99633333Y-74776247D01*
X99633333Y-74776247D02*
X99585714Y-74966723D01*
X99585714Y-74966723D02*
X99538095Y-75061961D01*
X99538095Y-75061961D02*
X99442857Y-75157200D01*
X99442857Y-75157200D02*
X99300000Y-75204819D01*
X99300000Y-75204819D02*
X99061905Y-75204819D01*
X100014286Y-74300057D02*
X100061905Y-74252438D01*
X100061905Y-74252438D02*
X100157143Y-74204819D01*
X100157143Y-74204819D02*
X100395238Y-74204819D01*
X100395238Y-74204819D02*
X100490476Y-74252438D01*
X100490476Y-74252438D02*
X100538095Y-74300057D01*
X100538095Y-74300057D02*
X100585714Y-74395295D01*
X100585714Y-74395295D02*
X100585714Y-74490533D01*
X100585714Y-74490533D02*
X100538095Y-74633390D01*
X100538095Y-74633390D02*
X99966667Y-75204819D01*
X99966667Y-75204819D02*
X100585714Y-75204819D01*
D10*
X85488704Y-79033332D02*
X85526800Y-79071428D01*
X85526800Y-79071428D02*
X85564895Y-79185713D01*
X85564895Y-79185713D02*
X85564895Y-79261904D01*
X85564895Y-79261904D02*
X85526800Y-79376190D01*
X85526800Y-79376190D02*
X85450609Y-79452380D01*
X85450609Y-79452380D02*
X85374419Y-79490475D01*
X85374419Y-79490475D02*
X85222038Y-79528571D01*
X85222038Y-79528571D02*
X85107752Y-79528571D01*
X85107752Y-79528571D02*
X84955371Y-79490475D01*
X84955371Y-79490475D02*
X84879180Y-79452380D01*
X84879180Y-79452380D02*
X84802990Y-79376190D01*
X84802990Y-79376190D02*
X84764895Y-79261904D01*
X84764895Y-79261904D02*
X84764895Y-79185713D01*
X84764895Y-79185713D02*
X84802990Y-79071428D01*
X84802990Y-79071428D02*
X84841085Y-79033332D01*
X85564895Y-78271428D02*
X85564895Y-78728571D01*
X85564895Y-78499999D02*
X84764895Y-78499999D01*
X84764895Y-78499999D02*
X84879180Y-78576190D01*
X84879180Y-78576190D02*
X84955371Y-78652380D01*
X84955371Y-78652380D02*
X84993466Y-78728571D01*
X97933333Y-83264895D02*
X97933333Y-83836323D01*
X97933333Y-83836323D02*
X97895238Y-83950609D01*
X97895238Y-83950609D02*
X97819047Y-84026800D01*
X97819047Y-84026800D02*
X97704762Y-84064895D01*
X97704762Y-84064895D02*
X97628571Y-84064895D01*
X98733333Y-84064895D02*
X98276190Y-84064895D01*
X98504762Y-84064895D02*
X98504762Y-83264895D01*
X98504762Y-83264895D02*
X98428571Y-83379180D01*
X98428571Y-83379180D02*
X98352381Y-83455371D01*
X98352381Y-83455371D02*
X98276190Y-83493466D01*
X93264895Y-75690475D02*
X92464895Y-75690475D01*
X92464895Y-75690475D02*
X92464895Y-75499999D01*
X92464895Y-75499999D02*
X92502990Y-75385713D01*
X92502990Y-75385713D02*
X92579180Y-75309523D01*
X92579180Y-75309523D02*
X92655371Y-75271428D01*
X92655371Y-75271428D02*
X92807752Y-75233332D01*
X92807752Y-75233332D02*
X92922038Y-75233332D01*
X92922038Y-75233332D02*
X93074419Y-75271428D01*
X93074419Y-75271428D02*
X93150609Y-75309523D01*
X93150609Y-75309523D02*
X93226800Y-75385713D01*
X93226800Y-75385713D02*
X93264895Y-75499999D01*
X93264895Y-75499999D02*
X93264895Y-75690475D01*
X93264895Y-74471428D02*
X93264895Y-74928571D01*
X93264895Y-74699999D02*
X92464895Y-74699999D01*
X92464895Y-74699999D02*
X92579180Y-74776190D01*
X92579180Y-74776190D02*
X92655371Y-74852380D01*
X92655371Y-74852380D02*
X92693466Y-74928571D01*
X92966667Y-87864895D02*
X92700000Y-87483942D01*
X92509524Y-87864895D02*
X92509524Y-87064895D01*
X92509524Y-87064895D02*
X92814286Y-87064895D01*
X92814286Y-87064895D02*
X92890476Y-87102990D01*
X92890476Y-87102990D02*
X92928571Y-87141085D01*
X92928571Y-87141085D02*
X92966667Y-87217276D01*
X92966667Y-87217276D02*
X92966667Y-87331561D01*
X92966667Y-87331561D02*
X92928571Y-87407752D01*
X92928571Y-87407752D02*
X92890476Y-87445847D01*
X92890476Y-87445847D02*
X92814286Y-87483942D01*
X92814286Y-87483942D02*
X92509524Y-87483942D01*
X93271428Y-87141085D02*
X93309524Y-87102990D01*
X93309524Y-87102990D02*
X93385714Y-87064895D01*
X93385714Y-87064895D02*
X93576190Y-87064895D01*
X93576190Y-87064895D02*
X93652381Y-87102990D01*
X93652381Y-87102990D02*
X93690476Y-87141085D01*
X93690476Y-87141085D02*
X93728571Y-87217276D01*
X93728571Y-87217276D02*
X93728571Y-87293466D01*
X93728571Y-87293466D02*
X93690476Y-87407752D01*
X93690476Y-87407752D02*
X93233333Y-87864895D01*
X93233333Y-87864895D02*
X93728571Y-87864895D01*
X82263739Y-83252300D02*
X81805803Y-83171488D01*
X81940490Y-83575549D02*
X81374805Y-83009863D01*
X81374805Y-83009863D02*
X81590304Y-82794364D01*
X81590304Y-82794364D02*
X81671116Y-82767427D01*
X81671116Y-82767427D02*
X81724991Y-82767427D01*
X81724991Y-82767427D02*
X81805803Y-82794364D01*
X81805803Y-82794364D02*
X81886615Y-82875176D01*
X81886615Y-82875176D02*
X81913553Y-82955989D01*
X81913553Y-82955989D02*
X81913553Y-83009863D01*
X81913553Y-83009863D02*
X81886615Y-83090676D01*
X81886615Y-83090676D02*
X81671116Y-83306175D01*
X82802487Y-82713552D02*
X82479238Y-83036801D01*
X82640862Y-82875176D02*
X82075177Y-82309491D01*
X82075177Y-82309491D02*
X82102114Y-82444178D01*
X82102114Y-82444178D02*
X82102114Y-82551928D01*
X82102114Y-82551928D02*
X82075177Y-82632740D01*
X89834895Y-85233332D02*
X89453942Y-85499999D01*
X89834895Y-85690475D02*
X89034895Y-85690475D01*
X89034895Y-85690475D02*
X89034895Y-85385713D01*
X89034895Y-85385713D02*
X89072990Y-85309523D01*
X89072990Y-85309523D02*
X89111085Y-85271428D01*
X89111085Y-85271428D02*
X89187276Y-85233332D01*
X89187276Y-85233332D02*
X89301561Y-85233332D01*
X89301561Y-85233332D02*
X89377752Y-85271428D01*
X89377752Y-85271428D02*
X89415847Y-85309523D01*
X89415847Y-85309523D02*
X89453942Y-85385713D01*
X89453942Y-85385713D02*
X89453942Y-85690475D01*
X89034895Y-84966666D02*
X89034895Y-84471428D01*
X89034895Y-84471428D02*
X89339657Y-84738094D01*
X89339657Y-84738094D02*
X89339657Y-84623809D01*
X89339657Y-84623809D02*
X89377752Y-84547618D01*
X89377752Y-84547618D02*
X89415847Y-84509523D01*
X89415847Y-84509523D02*
X89492038Y-84471428D01*
X89492038Y-84471428D02*
X89682514Y-84471428D01*
X89682514Y-84471428D02*
X89758704Y-84509523D01*
X89758704Y-84509523D02*
X89796800Y-84547618D01*
X89796800Y-84547618D02*
X89834895Y-84623809D01*
X89834895Y-84623809D02*
X89834895Y-84852380D01*
X89834895Y-84852380D02*
X89796800Y-84928571D01*
X89796800Y-84928571D02*
X89758704Y-84966666D01*
D12*
%TO.C,J2*%
X86790001Y-74230001D02*
X97010001Y-74230001D01*
X86790001Y-74230001D02*
X86790001Y-71570001D01*
X97010001Y-74230001D02*
X97010001Y-71570001D01*
X84190001Y-72900001D02*
X84190001Y-71570001D01*
X84190001Y-71570001D02*
X85520001Y-71570001D01*
X86790001Y-71570001D02*
X97010001Y-71570001D01*
%TO.C,FB1*%
X89561252Y-81910000D02*
X89038748Y-81910000D01*
X89561252Y-80490000D02*
X89038748Y-80490000D01*
%TO.C,F1*%
X94202064Y-82110000D02*
X92997936Y-82110000D01*
X94202064Y-80290000D02*
X92997936Y-80290000D01*
%TO.C,D3*%
X97610000Y-78050000D02*
X97610000Y-76350000D01*
X97610000Y-78050000D02*
X94350000Y-78050000D01*
X97610000Y-76350000D02*
X94350000Y-76350000D01*
%TO.C,D2*%
X97790000Y-75750000D02*
X97790000Y-77450000D01*
X97790000Y-75750000D02*
X101050000Y-75750000D01*
X97790000Y-77450000D02*
X101050000Y-77450000D01*
%TO.C,C1*%
X79021650Y-77533000D02*
X79021650Y-76467000D01*
X79061652Y-77768000D02*
X79061652Y-76232000D01*
X79101651Y-77948000D02*
X79101651Y-76052000D01*
X79141651Y-78098000D02*
X79141651Y-75902000D01*
X79181651Y-78229000D02*
X79181651Y-75771000D01*
X79221651Y-78346000D02*
X79221651Y-75654000D01*
X79261651Y-78453000D02*
X79261651Y-75547000D01*
X79301651Y-78552000D02*
X79301651Y-75448000D01*
X79341651Y-78645000D02*
X79341651Y-75355000D01*
X79381651Y-78731000D02*
X79381651Y-75269000D01*
X79421651Y-78813001D02*
X79421651Y-75186999D01*
X79461651Y-78890000D02*
X79461651Y-75110000D01*
X79501651Y-78964000D02*
X79501651Y-75036000D01*
X79541651Y-79034000D02*
X79541651Y-74966000D01*
X79581651Y-79102000D02*
X79581651Y-74898000D01*
X79621651Y-79166000D02*
X79621651Y-74834000D01*
X79661651Y-79228000D02*
X79661651Y-74772000D01*
X79701651Y-79287000D02*
X79701651Y-74713000D01*
X79741651Y-79345000D02*
X79741651Y-74655000D01*
X79781651Y-79400000D02*
X79781651Y-74600000D01*
X79821651Y-79454000D02*
X79821651Y-74546000D01*
X79861652Y-79505000D02*
X79861652Y-74495000D01*
X79901651Y-79556000D02*
X79901651Y-74444000D01*
X79941652Y-79604000D02*
X79941652Y-74396000D01*
X79981651Y-79651000D02*
X79981651Y-74349000D01*
X80021651Y-79697000D02*
X80021651Y-74303000D01*
X80061651Y-79741000D02*
X80061651Y-74259000D01*
X80101651Y-79784000D02*
X80101651Y-74216000D01*
X80141651Y-79826000D02*
X80141651Y-74174000D01*
X80181651Y-79867000D02*
X80181651Y-74133000D01*
X80221651Y-79907000D02*
X80221651Y-74093000D01*
X80261651Y-79945000D02*
X80261651Y-74055000D01*
X80301652Y-79983000D02*
X80301652Y-74017000D01*
X80341651Y-75960000D02*
X80341651Y-73981000D01*
X80341651Y-80019000D02*
X80341651Y-78040000D01*
X80381651Y-80055000D02*
X80381652Y-78040000D01*
X80381652Y-75960000D02*
X80381651Y-73945000D01*
X80421651Y-75960000D02*
X80421651Y-73910000D01*
X80421651Y-80090000D02*
X80421651Y-78040000D01*
X80461651Y-75960000D02*
X80461652Y-73876000D01*
X80461652Y-80124000D02*
X80461651Y-78040000D01*
X80501650Y-75960000D02*
X80501650Y-73844000D01*
X80501650Y-80156000D02*
X80501650Y-78040000D01*
X80541651Y-75960000D02*
X80541651Y-73811000D01*
X80541651Y-80189000D02*
X80541651Y-78040000D01*
X80581651Y-75960000D02*
X80581651Y-73780000D01*
X80581651Y-80220000D02*
X80581651Y-78040000D01*
X80621651Y-75960000D02*
X80621651Y-73750000D01*
X80621651Y-80250000D02*
X80621651Y-78040000D01*
X80661651Y-75959999D02*
X80661651Y-73720000D01*
X80661651Y-80280000D02*
X80661651Y-78040001D01*
X80701651Y-75960000D02*
X80701651Y-73691000D01*
X80701651Y-80309000D02*
X80701651Y-78040000D01*
X80741651Y-75960000D02*
X80741651Y-73662001D01*
X80741651Y-80337999D02*
X80741651Y-78040000D01*
X80781651Y-75960000D02*
X80781651Y-73635000D01*
X80781651Y-80365000D02*
X80781651Y-78040000D01*
X80821651Y-80392000D02*
X80821652Y-78040000D01*
X80821652Y-75960000D02*
X80821651Y-73608000D01*
X80861651Y-75960000D02*
X80861651Y-73582000D01*
X80861651Y-80418000D02*
X80861651Y-78040000D01*
X80901651Y-75960000D02*
X80901651Y-73556000D01*
X80901651Y-80444000D02*
X80901651Y-78040000D01*
X80941650Y-75960000D02*
X80941651Y-73531000D01*
X80941651Y-80469000D02*
X80941650Y-78040000D01*
X80981651Y-75960000D02*
X80981651Y-73507000D01*
X80981651Y-80493000D02*
X80981651Y-78040000D01*
X81021650Y-80517000D02*
X81021651Y-78040000D01*
X81021651Y-75960000D02*
X81021650Y-73483000D01*
X81061651Y-75960000D02*
X81061651Y-73460000D01*
X81061651Y-80540000D02*
X81061651Y-78040000D01*
X81101651Y-75959999D02*
X81101651Y-73438000D01*
X81101651Y-80562000D02*
X81101651Y-78040001D01*
X81141651Y-75960000D02*
X81141651Y-73416000D01*
X81141651Y-80584000D02*
X81141651Y-78040000D01*
X81181651Y-75960000D02*
X81181651Y-73394000D01*
X81181651Y-80606000D02*
X81181651Y-78040000D01*
X81221651Y-75960000D02*
X81221651Y-73373000D01*
X81221651Y-80627000D02*
X81221651Y-78040000D01*
X81261651Y-75959999D02*
X81261651Y-73353000D01*
X81261651Y-80647000D02*
X81261651Y-78040001D01*
X81301651Y-75960000D02*
X81301651Y-73334000D01*
X81301651Y-80666000D02*
X81301651Y-78040000D01*
X81341651Y-75960000D02*
X81341651Y-73313999D01*
X81341651Y-80686001D02*
X81341651Y-78040000D01*
X81381650Y-75960000D02*
X81381651Y-73296000D01*
X81381651Y-80704000D02*
X81381650Y-78040000D01*
X81421651Y-80722000D02*
X81421652Y-78040000D01*
X81421652Y-75960000D02*
X81421651Y-73278000D01*
X81461651Y-75960000D02*
X81461651Y-73260001D01*
X81461651Y-80739999D02*
X81461651Y-78040000D01*
X81501651Y-75960000D02*
X81501651Y-73243000D01*
X81501651Y-80757000D02*
X81501651Y-78040000D01*
X81541650Y-75960000D02*
X81541650Y-73226000D01*
X81541650Y-80774000D02*
X81541650Y-78040000D01*
X81581651Y-75960000D02*
X81581651Y-73210000D01*
X81581651Y-80790000D02*
X81581651Y-78040000D01*
X81621651Y-75960000D02*
X81621651Y-73195000D01*
X81621651Y-80805000D02*
X81621651Y-78040000D01*
X81661651Y-75960000D02*
X81661651Y-73179000D01*
X81661651Y-80821000D02*
X81661651Y-78040000D01*
X81701651Y-75959999D02*
X81701651Y-73165000D01*
X81701651Y-80835000D02*
X81701651Y-78040001D01*
X81741651Y-75960000D02*
X81741651Y-73150000D01*
X81741651Y-80850000D02*
X81741651Y-78040000D01*
X81781651Y-75960000D02*
X81781652Y-73137000D01*
X81781652Y-80863000D02*
X81781651Y-78040000D01*
X81821651Y-75960000D02*
X81821651Y-73123000D01*
X81821651Y-80877000D02*
X81821651Y-78040000D01*
X81861651Y-80889000D02*
X81861652Y-78040000D01*
X81861652Y-75960000D02*
X81861651Y-73111000D01*
X81901651Y-75960000D02*
X81901651Y-73098000D01*
X81901651Y-80902000D02*
X81901651Y-78040000D01*
X81941651Y-75960000D02*
X81941651Y-73086000D01*
X81941651Y-80914000D02*
X81941651Y-78040000D01*
X81981650Y-75960000D02*
X81981651Y-73074999D01*
X81981651Y-80925001D02*
X81981650Y-78040000D01*
X82021651Y-75960000D02*
X82021651Y-73064000D01*
X82021651Y-80936000D02*
X82021651Y-78040000D01*
X82061651Y-75960000D02*
X82061651Y-73053001D01*
X82061651Y-80946999D02*
X82061651Y-78040000D01*
X82101651Y-75960000D02*
X82101651Y-73043000D01*
X82101651Y-80957000D02*
X82101651Y-78040000D01*
X82141651Y-75959999D02*
X82141651Y-73033000D01*
X82141651Y-80967000D02*
X82141651Y-78040001D01*
X82181651Y-75960000D02*
X82181651Y-73024000D01*
X82181651Y-80976000D02*
X82181651Y-78040000D01*
X82221651Y-75960000D02*
X82221652Y-73015000D01*
X82221652Y-80985000D02*
X82221651Y-78040000D01*
X82261651Y-75960000D02*
X82261651Y-73006000D01*
X82261651Y-80994000D02*
X82261651Y-78040000D01*
X82301651Y-81002000D02*
X82301652Y-78040000D01*
X82301652Y-75960000D02*
X82301651Y-72998000D01*
X82341651Y-75960000D02*
X82341651Y-72990000D01*
X82341651Y-81010000D02*
X82341651Y-78040000D01*
X82381651Y-75960000D02*
X82381651Y-72983000D01*
X82381651Y-81017000D02*
X82381651Y-78040000D01*
X82422651Y-81024000D02*
X82422651Y-72976000D01*
X82462651Y-81030000D02*
X82462651Y-72970000D01*
X82502651Y-81037000D02*
X82502651Y-72963000D01*
X82542651Y-81042000D02*
X82542651Y-72958000D01*
X82582651Y-81048000D02*
X82582651Y-72952000D01*
X82622651Y-81052000D02*
X82622651Y-72948000D01*
X82662651Y-81057000D02*
X82662651Y-72943000D01*
X82702651Y-81061000D02*
X82702651Y-72939000D01*
X82742651Y-81065000D02*
X82742651Y-72935000D01*
X82782651Y-81067999D02*
X82782651Y-72932001D01*
X82822651Y-81071000D02*
X82822651Y-72929000D01*
X82862651Y-81074001D02*
X82862651Y-72925999D01*
X82902651Y-81076000D02*
X82902651Y-72924000D01*
X82942651Y-81077000D02*
X82942651Y-72923000D01*
X82982651Y-81079000D02*
X82982651Y-72921000D01*
X83022651Y-81080000D02*
X83022651Y-72920000D01*
X83062651Y-81080000D02*
X83062651Y-72920000D01*
X83102651Y-81080000D02*
X83102651Y-72920000D01*
X87112349Y-79715000D02*
X87112349Y-78915000D01*
X87512349Y-79315000D02*
X86712349Y-79315000D01*
X87222651Y-77000000D02*
G75*
G02*
X78982651Y-77000000I-4120000J0D01*
G01*
X78982651Y-77000000D02*
G75*
G02*
X87222651Y-77000000I4120000J0D01*
G01*
%TO.C,J1*%
X102099999Y-76900000D02*
G75*
G02*
X79100001Y-76900000I-11499999J0D01*
G01*
X79100001Y-76900000D02*
G75*
G02*
X102099999Y-76900000I11499999J0D01*
G01*
X95475694Y-78658887D02*
G75*
G02*
X94216964Y-78658887I-629365J0D01*
G01*
X94216964Y-78658887D02*
G75*
G02*
X95475694Y-78658887I629365J0D01*
G01*
%TO.C,D1*%
X94400000Y-75835000D02*
X96860000Y-75835000D01*
X96860000Y-74365000D02*
X94400000Y-74365000D01*
X96860000Y-75835000D02*
X96860000Y-74365000D01*
%TO.C,R2*%
X90345276Y-86977500D02*
X90854724Y-86977500D01*
X90345276Y-88022500D02*
X90854724Y-88022500D01*
%TO.C,R1*%
X84470645Y-81842421D02*
X83442421Y-82870645D01*
X85757579Y-83129355D02*
X84729355Y-84157579D01*
%TO.C,R3*%
X91422500Y-85354724D02*
X91422500Y-84845276D01*
X90377500Y-85354724D02*
X90377500Y-84845276D01*
%TD*%
M02*
