%TF.GenerationSoftware,KiCad,Pcbnew,8.0.7-8.0.7-0~ubuntu22.04.1*%
%TF.CreationDate,2025-01-07T12:01:05+01:00*%
%TF.ProjectId,octal_base,6f637461-6c5f-4626-9173-652e6b696361,1*%
%TF.SameCoordinates,Original*%
%TF.FileFunction,Copper,L2,Bot*%
%TF.FilePolarity,Positive*%
%FSLAX46Y46*%
G04 Gerber Fmt 4.6, Leading zero omitted, Abs format (unit mm)*
G04 Created by KiCad (PCBNEW 8.0.7-8.0.7-0~ubuntu22.04.1) date 2025-01-07 12:01:05*
%MOMM*%
%LPD*%
G01*
G04 APERTURE LIST*
G04 Aperture macros list*
%AMRotRect*
0 Rectangle, with rotation*
0 The origin of the aperture is its center*
0 $1 length*
0 $2 width*
0 $3 Rotation angle, in degrees counterclockwise*
0 Add horizontal line*
21,1,$1,$2,0,0,$3*%
G04 Aperture macros list end*
%TA.AperFunction,ComponentPad*%
%ADD10R,1.600000X1.600000*%
%TD*%
%TA.AperFunction,ComponentPad*%
%ADD11C,1.600000*%
%TD*%
%TA.AperFunction,ComponentPad*%
%ADD12RotRect,3.810000X3.810000X22.500000*%
%TD*%
%TA.AperFunction,ComponentPad*%
%ADD13C,3.810000*%
%TD*%
%TA.AperFunction,ComponentPad*%
%ADD14R,1.700000X1.700000*%
%TD*%
%TA.AperFunction,ComponentPad*%
%ADD15O,1.700000X1.700000*%
%TD*%
%TA.AperFunction,ViaPad*%
%ADD16C,0.600000*%
%TD*%
%TA.AperFunction,Conductor*%
%ADD17C,0.200000*%
%TD*%
G04 APERTURE END LIST*
D10*
%TO.P,C1,1*%
%TO.N,VCC*%
X84852651Y-77000000D03*
D11*
%TO.P,C1,2*%
%TO.N,GND*%
X81352651Y-77000000D03*
%TD*%
D12*
%TO.P,J1,1,Pin_1*%
%TO.N,unconnected-(J1-Pin_1-Pad1)*%
X98661493Y-80239180D03*
D13*
%TO.P,J1,2,Pin_2*%
%TO.N,H1*%
X98660848Y-73561087D03*
%TO.P,J1,3,Pin_3*%
%TO.N,unconnected-(J1-Pin_3-Pad3)*%
X93939179Y-68838507D03*
%TO.P,J1,4,Pin_4*%
%TO.N,AGC*%
X87261087Y-68839151D03*
%TO.P,J1,5,Pin_5*%
%TO.N,unconnected-(J1-Pin_5-Pad5)*%
X82538506Y-73560820D03*
%TO.P,J1,6,Pin_6*%
%TO.N,Net-(J1-Pin_6)*%
X82539151Y-80238913D03*
%TO.P,J1,7,Pin_7*%
%TO.N,H2*%
X87260820Y-84961494D03*
%TO.P,J1,8,Pin_8*%
%TO.N,K*%
X93938912Y-84960849D03*
%TD*%
D14*
%TO.P,J2,1,Pin_1*%
%TO.N,unconnected-(J2-Pin_1-Pad1)*%
X85520001Y-72900001D03*
D15*
%TO.P,J2,2,Pin_2*%
%TO.N,VCC*%
X88060001Y-72900001D03*
%TO.P,J2,3,Pin_3*%
%TO.N,GND*%
X90600001Y-72900001D03*
%TO.P,J2,4,Pin_4*%
%TO.N,AGC*%
X93140001Y-72900001D03*
%TO.P,J2,5,Pin_5*%
%TO.N,EN*%
X95680001Y-72900001D03*
%TD*%
D16*
%TO.N,GND*%
X96500000Y-67800000D03*
X94700000Y-76100000D03*
X90600000Y-86900000D03*
X98100000Y-69700000D03*
X90600000Y-84600000D03*
%TO.N,VCC*%
X89200000Y-82200000D03*
X88700000Y-87100000D03*
%TD*%
D17*
%TO.N,VCC*%
X89700000Y-86100000D02*
X89700000Y-84000000D01*
X89200000Y-83500000D02*
X89200000Y-82200000D01*
X88700000Y-87100000D02*
X89700000Y-86100000D01*
X89700000Y-84000000D02*
X89200000Y-83500000D01*
%TD*%
%TA.AperFunction,Conductor*%
%TO.N,GND*%
G36*
X91270867Y-65320020D02*
G01*
X91278044Y-65320439D01*
X91857030Y-65371093D01*
X91943019Y-65378617D01*
X91950183Y-65379454D01*
X92013583Y-65388740D01*
X92610699Y-65476204D01*
X92617740Y-65477446D01*
X93271500Y-65612437D01*
X93278492Y-65614093D01*
X93923317Y-65786874D01*
X93930189Y-65788932D01*
X94505316Y-65979508D01*
X94563832Y-65998898D01*
X94570608Y-66001364D01*
X95190984Y-66247824D01*
X95197589Y-66250673D01*
X95802594Y-66532792D01*
X95809008Y-66536013D01*
X96035778Y-66658286D01*
X96396577Y-66852827D01*
X96402824Y-66856434D01*
X96970953Y-67206862D01*
X96976979Y-67210825D01*
X97523779Y-67593698D01*
X97529565Y-67598005D01*
X98053185Y-68012030D01*
X98058711Y-68016667D01*
X98557370Y-68460435D01*
X98562616Y-68465385D01*
X99034614Y-68937383D01*
X99039564Y-68942629D01*
X99483332Y-69441288D01*
X99487969Y-69446814D01*
X99901994Y-69970434D01*
X99906301Y-69976220D01*
X100289174Y-70523020D01*
X100293137Y-70529046D01*
X100643565Y-71097175D01*
X100647172Y-71103422D01*
X100963978Y-71690975D01*
X100967214Y-71697418D01*
X100996839Y-71760948D01*
X101249322Y-72302401D01*
X101252179Y-72309024D01*
X101498634Y-72929388D01*
X101501101Y-72936167D01*
X101711061Y-73569792D01*
X101713130Y-73576701D01*
X101885902Y-74221494D01*
X101887565Y-74228513D01*
X101897888Y-74278507D01*
X101989512Y-74722242D01*
X102022547Y-74882227D01*
X102023800Y-74889331D01*
X102120545Y-75549816D01*
X102121382Y-75556980D01*
X102179559Y-76221944D01*
X102179979Y-76229144D01*
X102199395Y-76896393D01*
X102199395Y-76903607D01*
X102179979Y-77570855D01*
X102179559Y-77578055D01*
X102121382Y-78243019D01*
X102120545Y-78250183D01*
X102023800Y-78910668D01*
X102022547Y-78917772D01*
X101887565Y-79571486D01*
X101885902Y-79578505D01*
X101713130Y-80223298D01*
X101711061Y-80230208D01*
X101616029Y-80516997D01*
X101576257Y-80574442D01*
X101511741Y-80601265D01*
X101442965Y-80588950D01*
X101391765Y-80541407D01*
X101383765Y-80525452D01*
X100136553Y-77514417D01*
X100136550Y-77514411D01*
X100136548Y-77514406D01*
X100107823Y-77461800D01*
X100107818Y-77461794D01*
X100009751Y-77356461D01*
X100009749Y-77356459D01*
X99885971Y-77283019D01*
X99766649Y-77252564D01*
X99746523Y-77247427D01*
X99746522Y-77247427D01*
X99746519Y-77247426D01*
X99602697Y-77252564D01*
X99602693Y-77252564D01*
X99602692Y-77252565D01*
X99545167Y-77269456D01*
X99545165Y-77269456D01*
X99545161Y-77269458D01*
X95936724Y-78764122D01*
X95936719Y-78764124D01*
X95884113Y-78792849D01*
X95884107Y-78792854D01*
X95778774Y-78890921D01*
X95778772Y-78890923D01*
X95705332Y-79014701D01*
X95669740Y-79154150D01*
X95669739Y-79154153D01*
X95674877Y-79297975D01*
X95674877Y-79297978D01*
X95674878Y-79297981D01*
X95691769Y-79355506D01*
X95691770Y-79355510D01*
X95691771Y-79355511D01*
X97186435Y-82963948D01*
X97186437Y-82963953D01*
X97215162Y-83016559D01*
X97215167Y-83016565D01*
X97313234Y-83121898D01*
X97313236Y-83121900D01*
X97437014Y-83195340D01*
X97482842Y-83207036D01*
X97576463Y-83230933D01*
X97576465Y-83230932D01*
X97576466Y-83230933D01*
X97624406Y-83229220D01*
X97720294Y-83225795D01*
X97777819Y-83208904D01*
X100794606Y-81959308D01*
X100864073Y-81951840D01*
X100926552Y-81983115D01*
X100962204Y-82043204D01*
X100959710Y-82113029D01*
X100951201Y-82132720D01*
X100647172Y-82696577D01*
X100643565Y-82702824D01*
X100293137Y-83270953D01*
X100289174Y-83276979D01*
X99906301Y-83823779D01*
X99901994Y-83829565D01*
X99487969Y-84353185D01*
X99483332Y-84358711D01*
X99039564Y-84857370D01*
X99034614Y-84862616D01*
X98562616Y-85334614D01*
X98557370Y-85339564D01*
X98058711Y-85783332D01*
X98053185Y-85787969D01*
X97529565Y-86201994D01*
X97523779Y-86206301D01*
X96976979Y-86589174D01*
X96970953Y-86593137D01*
X96402824Y-86943565D01*
X96396577Y-86947172D01*
X95809024Y-87263978D01*
X95802579Y-87267215D01*
X95197598Y-87549322D01*
X95190975Y-87552179D01*
X94570611Y-87798634D01*
X94563832Y-87801101D01*
X93930207Y-88011061D01*
X93923298Y-88013130D01*
X93278505Y-88185902D01*
X93271486Y-88187565D01*
X92617772Y-88322547D01*
X92610668Y-88323800D01*
X91950183Y-88420545D01*
X91943019Y-88421382D01*
X91278055Y-88479559D01*
X91270855Y-88479979D01*
X90603607Y-88499395D01*
X90596393Y-88499395D01*
X89929144Y-88479979D01*
X89921944Y-88479559D01*
X89256980Y-88421382D01*
X89249816Y-88420545D01*
X88652731Y-88333086D01*
X88589327Y-88323799D01*
X88582232Y-88322547D01*
X88383657Y-88281545D01*
X87928513Y-88187565D01*
X87921494Y-88185902D01*
X87276701Y-88013130D01*
X87269792Y-88011061D01*
X86636167Y-87801101D01*
X86629388Y-87798634D01*
X86009024Y-87552179D01*
X86002401Y-87549322D01*
X85397420Y-87267215D01*
X85390975Y-87263978D01*
X84803422Y-86947172D01*
X84797175Y-86943565D01*
X84229046Y-86593137D01*
X84223020Y-86589174D01*
X83676220Y-86206301D01*
X83670434Y-86201994D01*
X83146814Y-85787969D01*
X83141288Y-85783332D01*
X82642629Y-85339564D01*
X82637383Y-85334614D01*
X82264257Y-84961488D01*
X84850564Y-84961488D01*
X84850564Y-84961499D01*
X84869568Y-85263568D01*
X84869569Y-85263575D01*
X84926288Y-85560904D01*
X84999340Y-85785733D01*
X85019821Y-85848768D01*
X85148697Y-86122644D01*
X85148699Y-86122647D01*
X85148700Y-86122649D01*
X85310878Y-86378202D01*
X85310881Y-86378206D01*
X85310882Y-86378207D01*
X85503819Y-86611428D01*
X85715402Y-86810117D01*
X85724463Y-86818626D01*
X85724473Y-86818634D01*
X85969328Y-86996532D01*
X85969333Y-86996534D01*
X85969340Y-86996540D01*
X86234583Y-87142359D01*
X86234588Y-87142361D01*
X86234590Y-87142362D01*
X86234591Y-87142363D01*
X86516006Y-87253783D01*
X86516009Y-87253784D01*
X86806667Y-87328412D01*
X86809183Y-87329058D01*
X86872180Y-87337016D01*
X87109467Y-87366993D01*
X87109476Y-87366993D01*
X87109479Y-87366994D01*
X87109481Y-87366994D01*
X87412159Y-87366994D01*
X87412161Y-87366994D01*
X87412164Y-87366993D01*
X87412172Y-87366993D01*
X87591359Y-87344356D01*
X87712457Y-87329058D01*
X87803681Y-87305635D01*
X87873506Y-87308028D01*
X87930955Y-87347794D01*
X87951557Y-87384784D01*
X87974209Y-87449519D01*
X88036920Y-87549322D01*
X88070184Y-87602262D01*
X88197738Y-87729816D01*
X88350478Y-87825789D01*
X88520745Y-87885368D01*
X88520750Y-87885369D01*
X88699996Y-87905565D01*
X88700000Y-87905565D01*
X88700004Y-87905565D01*
X88879249Y-87885369D01*
X88879252Y-87885368D01*
X88879255Y-87885368D01*
X89049522Y-87825789D01*
X89202262Y-87729816D01*
X89329816Y-87602262D01*
X89425789Y-87449522D01*
X89485368Y-87279255D01*
X89495161Y-87192329D01*
X89522226Y-87127918D01*
X89530689Y-87118544D01*
X90180520Y-86468716D01*
X90259577Y-86331784D01*
X90300501Y-86179057D01*
X90300501Y-86020942D01*
X90300501Y-86013347D01*
X90300500Y-86013329D01*
X90300500Y-84960843D01*
X91528656Y-84960843D01*
X91528656Y-84960854D01*
X91547660Y-85262923D01*
X91547661Y-85262930D01*
X91604380Y-85560259D01*
X91604590Y-85560904D01*
X91697913Y-85848123D01*
X91826789Y-86121999D01*
X91826791Y-86122002D01*
X91826792Y-86122004D01*
X91988970Y-86377557D01*
X91988973Y-86377561D01*
X91988974Y-86377562D01*
X92181911Y-86610783D01*
X92394181Y-86810117D01*
X92402555Y-86817981D01*
X92402565Y-86817989D01*
X92647420Y-86995887D01*
X92647425Y-86995889D01*
X92647432Y-86995895D01*
X92912675Y-87141714D01*
X92912680Y-87141716D01*
X92912682Y-87141717D01*
X92912683Y-87141718D01*
X93194098Y-87253138D01*
X93194101Y-87253139D01*
X93487271Y-87328412D01*
X93487275Y-87328413D01*
X93550272Y-87336371D01*
X93787559Y-87366348D01*
X93787568Y-87366348D01*
X93787571Y-87366349D01*
X93787573Y-87366349D01*
X94090251Y-87366349D01*
X94090253Y-87366349D01*
X94090256Y-87366348D01*
X94090264Y-87366348D01*
X94269451Y-87343711D01*
X94390549Y-87328413D01*
X94683722Y-87253139D01*
X94683725Y-87253138D01*
X94965140Y-87141718D01*
X94965141Y-87141717D01*
X94965139Y-87141717D01*
X94965149Y-87141714D01*
X95230392Y-86995895D01*
X95475267Y-86817983D01*
X95695913Y-86610783D01*
X95888850Y-86377562D01*
X96051035Y-86121999D01*
X96179911Y-85848123D01*
X96273445Y-85560255D01*
X96330162Y-85262934D01*
X96330163Y-85262923D01*
X96349168Y-84960854D01*
X96349168Y-84960843D01*
X96330163Y-84658774D01*
X96330162Y-84658767D01*
X96330162Y-84658764D01*
X96273445Y-84361443D01*
X96179911Y-84073575D01*
X96051035Y-83799699D01*
X95944156Y-83631284D01*
X95888853Y-83544140D01*
X95888850Y-83544136D01*
X95695913Y-83310915D01*
X95475267Y-83103715D01*
X95475264Y-83103713D01*
X95475258Y-83103708D01*
X95230403Y-82925810D01*
X95230396Y-82925805D01*
X95230392Y-82925803D01*
X94965149Y-82779984D01*
X94965146Y-82779982D01*
X94965141Y-82779980D01*
X94965140Y-82779979D01*
X94683725Y-82668559D01*
X94683722Y-82668558D01*
X94390552Y-82593285D01*
X94390539Y-82593283D01*
X94090264Y-82555349D01*
X94090253Y-82555349D01*
X93787571Y-82555349D01*
X93787559Y-82555349D01*
X93487284Y-82593283D01*
X93487271Y-82593285D01*
X93194101Y-82668558D01*
X93194098Y-82668559D01*
X92912683Y-82779979D01*
X92912682Y-82779980D01*
X92647432Y-82925803D01*
X92647420Y-82925810D01*
X92402565Y-83103708D01*
X92402555Y-83103716D01*
X92218049Y-83276979D01*
X92181911Y-83310915D01*
X92117598Y-83388655D01*
X91988970Y-83544140D01*
X91826792Y-83799693D01*
X91826789Y-83799697D01*
X91826789Y-83799699D01*
X91730132Y-84005106D01*
X91697912Y-84073577D01*
X91604380Y-84361438D01*
X91547661Y-84658767D01*
X91547660Y-84658774D01*
X91528656Y-84960843D01*
X90300500Y-84960843D01*
X90300500Y-84089060D01*
X90300501Y-84089047D01*
X90300501Y-83920944D01*
X90300501Y-83920943D01*
X90259577Y-83768216D01*
X90259573Y-83768209D01*
X90180524Y-83631290D01*
X90180518Y-83631282D01*
X89836819Y-83287583D01*
X89803334Y-83226260D01*
X89800500Y-83199902D01*
X89800500Y-82782412D01*
X89820185Y-82715373D01*
X89827555Y-82705097D01*
X89829810Y-82702267D01*
X89829816Y-82702262D01*
X89925789Y-82549522D01*
X89985368Y-82379255D01*
X90005565Y-82200000D01*
X89997984Y-82132720D01*
X89985369Y-82020750D01*
X89985368Y-82020745D01*
X89925788Y-81850476D01*
X89829815Y-81697737D01*
X89702262Y-81570184D01*
X89549523Y-81474211D01*
X89379254Y-81414631D01*
X89379249Y-81414630D01*
X89200004Y-81394435D01*
X89199996Y-81394435D01*
X89020750Y-81414630D01*
X89020745Y-81414631D01*
X88850476Y-81474211D01*
X88697737Y-81570184D01*
X88570184Y-81697737D01*
X88474211Y-81850476D01*
X88414631Y-82020745D01*
X88414630Y-82020750D01*
X88394435Y-82199996D01*
X88394435Y-82200003D01*
X88414630Y-82379249D01*
X88414631Y-82379254D01*
X88474211Y-82549523D01*
X88540254Y-82654630D01*
X88559254Y-82721867D01*
X88538886Y-82788702D01*
X88485618Y-82833916D01*
X88416362Y-82843153D01*
X88375525Y-82829265D01*
X88287057Y-82780629D01*
X88287050Y-82780626D01*
X88287048Y-82780625D01*
X88287048Y-82780624D01*
X88005633Y-82669204D01*
X88005630Y-82669203D01*
X87712460Y-82593930D01*
X87712447Y-82593928D01*
X87412172Y-82555994D01*
X87412161Y-82555994D01*
X87109479Y-82555994D01*
X87109467Y-82555994D01*
X86809192Y-82593928D01*
X86809179Y-82593930D01*
X86516009Y-82669203D01*
X86516006Y-82669204D01*
X86234591Y-82780624D01*
X86234590Y-82780625D01*
X85969340Y-82926448D01*
X85969328Y-82926455D01*
X85724473Y-83104353D01*
X85724463Y-83104361D01*
X85503821Y-83311558D01*
X85310878Y-83544785D01*
X85148700Y-83800338D01*
X85148697Y-83800342D01*
X85148697Y-83800344D01*
X85136276Y-83826741D01*
X85019820Y-84074222D01*
X84926288Y-84362083D01*
X84869569Y-84659412D01*
X84869568Y-84659419D01*
X84850564Y-84961488D01*
X82264257Y-84961488D01*
X82165385Y-84862616D01*
X82160435Y-84857370D01*
X81716667Y-84358711D01*
X81712030Y-84353185D01*
X81298005Y-83829565D01*
X81293698Y-83823779D01*
X80910825Y-83276979D01*
X80906862Y-83270953D01*
X80604425Y-82780629D01*
X80556432Y-82702822D01*
X80552827Y-82696577D01*
X80537719Y-82668558D01*
X80236013Y-82109008D01*
X80232792Y-82102594D01*
X79950673Y-81497589D01*
X79947820Y-81490975D01*
X79917490Y-81414631D01*
X79701364Y-80870608D01*
X79698898Y-80863832D01*
X79611893Y-80601265D01*
X79488932Y-80230189D01*
X79486874Y-80223317D01*
X79314093Y-79578492D01*
X79312434Y-79571486D01*
X79177446Y-78917740D01*
X79176204Y-78910699D01*
X79079454Y-78250183D01*
X79078617Y-78243019D01*
X79034508Y-77738848D01*
X79020439Y-77578044D01*
X79020020Y-77570855D01*
X79018378Y-77514411D01*
X79003410Y-76999997D01*
X80047685Y-76999997D01*
X80047685Y-77000002D01*
X80067509Y-77226599D01*
X80067511Y-77226610D01*
X80126381Y-77446317D01*
X80126386Y-77446331D01*
X80222514Y-77652478D01*
X80273625Y-77725472D01*
X80952651Y-77046446D01*
X80952651Y-77052661D01*
X80979910Y-77154394D01*
X81032571Y-77245606D01*
X81107045Y-77320080D01*
X81198257Y-77372741D01*
X81299990Y-77400000D01*
X81306203Y-77400000D01*
X80627177Y-78079025D01*
X80700164Y-78130132D01*
X80700172Y-78130136D01*
X80911232Y-78228555D01*
X80910702Y-78229689D01*
X80962053Y-78267495D01*
X80986991Y-78332763D01*
X80972683Y-78401152D01*
X80948265Y-78432986D01*
X80782152Y-78588977D01*
X80589209Y-78822204D01*
X80427031Y-79077757D01*
X80298151Y-79351641D01*
X80204619Y-79639502D01*
X80147900Y-79936831D01*
X80147899Y-79936838D01*
X80128895Y-80238907D01*
X80128895Y-80238918D01*
X80147899Y-80540987D01*
X80147900Y-80540994D01*
X80204619Y-80838323D01*
X80298151Y-81126184D01*
X80298152Y-81126187D01*
X80427028Y-81400063D01*
X80427030Y-81400066D01*
X80427031Y-81400068D01*
X80589209Y-81655621D01*
X80589212Y-81655625D01*
X80589213Y-81655626D01*
X80782150Y-81888847D01*
X80922613Y-82020750D01*
X81002794Y-82096045D01*
X81002804Y-82096053D01*
X81247659Y-82273951D01*
X81247664Y-82273953D01*
X81247671Y-82273959D01*
X81512914Y-82419778D01*
X81512919Y-82419780D01*
X81512921Y-82419781D01*
X81512922Y-82419782D01*
X81794337Y-82531202D01*
X81794340Y-82531203D01*
X82087510Y-82606476D01*
X82087514Y-82606477D01*
X82150511Y-82614435D01*
X82387798Y-82644412D01*
X82387807Y-82644412D01*
X82387810Y-82644413D01*
X82387812Y-82644413D01*
X82690490Y-82644413D01*
X82690492Y-82644413D01*
X82690495Y-82644412D01*
X82690503Y-82644412D01*
X82869690Y-82621775D01*
X82990788Y-82606477D01*
X83283961Y-82531203D01*
X83283964Y-82531202D01*
X83565379Y-82419782D01*
X83565380Y-82419781D01*
X83565378Y-82419781D01*
X83565388Y-82419778D01*
X83830631Y-82273959D01*
X84075506Y-82096047D01*
X84296152Y-81888847D01*
X84489089Y-81655626D01*
X84651274Y-81400063D01*
X84780150Y-81126187D01*
X84873684Y-80838319D01*
X84930401Y-80540998D01*
X84930402Y-80540987D01*
X84949407Y-80238918D01*
X84949407Y-80238907D01*
X84930402Y-79936838D01*
X84930401Y-79936831D01*
X84930401Y-79936828D01*
X84873684Y-79639507D01*
X84780150Y-79351639D01*
X84651274Y-79077763D01*
X84603572Y-79002598D01*
X84489092Y-78822204D01*
X84464811Y-78792853D01*
X84296152Y-78588979D01*
X84296149Y-78588976D01*
X84217257Y-78514891D01*
X84181862Y-78454649D01*
X84184656Y-78384836D01*
X84224750Y-78327615D01*
X84289415Y-78301154D01*
X84302124Y-78300499D01*
X85700523Y-78300499D01*
X85760134Y-78294091D01*
X85894982Y-78243796D01*
X86010197Y-78157546D01*
X86096447Y-78042331D01*
X86146742Y-77907483D01*
X86153151Y-77847873D01*
X86153150Y-76774038D01*
X88999500Y-76774038D01*
X88999500Y-77025961D01*
X89038910Y-77274785D01*
X89116760Y-77514383D01*
X89187124Y-77652478D01*
X89224316Y-77725472D01*
X89231132Y-77738848D01*
X89379201Y-77942649D01*
X89379205Y-77942654D01*
X89557345Y-78120794D01*
X89557350Y-78120798D01*
X89726645Y-78243797D01*
X89761155Y-78268870D01*
X89876449Y-78327615D01*
X89985616Y-78383239D01*
X89985618Y-78383239D01*
X89985621Y-78383241D01*
X90225215Y-78461090D01*
X90474038Y-78500500D01*
X90474039Y-78500500D01*
X90725961Y-78500500D01*
X90725962Y-78500500D01*
X90974785Y-78461090D01*
X91214379Y-78383241D01*
X91438845Y-78268870D01*
X91642656Y-78120793D01*
X91820793Y-77942656D01*
X91968870Y-77738845D01*
X92083241Y-77514379D01*
X92161090Y-77274785D01*
X92200500Y-77025962D01*
X92200500Y-76774038D01*
X92161090Y-76525215D01*
X92083241Y-76285621D01*
X92083239Y-76285618D01*
X92083239Y-76285616D01*
X92041747Y-76204184D01*
X91968870Y-76061155D01*
X91949952Y-76035117D01*
X91820798Y-75857350D01*
X91820794Y-75857345D01*
X91642654Y-75679205D01*
X91642649Y-75679201D01*
X91438848Y-75531132D01*
X91438847Y-75531131D01*
X91438845Y-75531130D01*
X91329039Y-75475181D01*
X91214383Y-75416760D01*
X90974785Y-75338910D01*
X90725962Y-75299500D01*
X90474038Y-75299500D01*
X90349626Y-75319205D01*
X90225214Y-75338910D01*
X89985616Y-75416760D01*
X89761151Y-75531132D01*
X89557350Y-75679201D01*
X89557345Y-75679205D01*
X89379205Y-75857345D01*
X89379201Y-75857350D01*
X89231132Y-76061151D01*
X89116760Y-76285616D01*
X89038910Y-76525214D01*
X88999500Y-76774038D01*
X86153150Y-76774038D01*
X86153150Y-76152128D01*
X86147950Y-76103757D01*
X86146742Y-76092516D01*
X86096448Y-75957671D01*
X86096444Y-75957664D01*
X86010198Y-75842455D01*
X86010195Y-75842452D01*
X85894986Y-75756206D01*
X85894979Y-75756202D01*
X85760133Y-75705908D01*
X85760134Y-75705908D01*
X85700534Y-75699501D01*
X85700532Y-75699500D01*
X85700524Y-75699500D01*
X85700516Y-75699500D01*
X84068978Y-75699500D01*
X84001939Y-75679815D01*
X83956184Y-75627011D01*
X83946240Y-75557853D01*
X83975265Y-75494297D01*
X83996091Y-75475183D01*
X84074861Y-75417954D01*
X84295507Y-75210754D01*
X84488444Y-74977533D01*
X84650629Y-74721970D01*
X84779505Y-74448094D01*
X84815867Y-74336182D01*
X84855304Y-74278507D01*
X84919663Y-74251308D01*
X84933798Y-74250500D01*
X86417872Y-74250500D01*
X86417873Y-74250500D01*
X86477484Y-74244092D01*
X86612332Y-74193797D01*
X86727547Y-74107547D01*
X86813797Y-73992332D01*
X86862811Y-73860917D01*
X86904682Y-73804985D01*
X86970146Y-73780567D01*
X87038419Y-73795418D01*
X87066674Y-73816570D01*
X87188600Y-73938496D01*
X87285385Y-74006266D01*
X87382166Y-74074033D01*
X87382168Y-74074034D01*
X87382171Y-74074036D01*
X87596338Y-74173904D01*
X87824593Y-74235064D01*
X88010259Y-74251308D01*
X88060000Y-74255660D01*
X88060001Y-74255660D01*
X88060002Y-74255660D01*
X88109743Y-74251308D01*
X88295409Y-74235064D01*
X88523664Y-74173904D01*
X88737831Y-74074036D01*
X88931402Y-73938496D01*
X89098496Y-73771402D01*
X89228731Y-73585406D01*
X89283308Y-73541782D01*
X89352806Y-73534588D01*
X89415161Y-73566111D01*
X89431880Y-73585406D01*
X89561891Y-73771079D01*
X89728918Y-73938106D01*
X89922422Y-74073601D01*
X90136508Y-74173430D01*
X90136517Y-74173434D01*
X90350001Y-74230635D01*
X90350001Y-73333013D01*
X90407008Y-73365926D01*
X90534175Y-73400001D01*
X90665827Y-73400001D01*
X90792994Y-73365926D01*
X90850001Y-73333013D01*
X90850001Y-74230634D01*
X91063484Y-74173434D01*
X91063493Y-74173430D01*
X91277579Y-74073601D01*
X91471083Y-73938106D01*
X91638106Y-73771083D01*
X91768120Y-73585406D01*
X91822697Y-73541782D01*
X91892196Y-73534589D01*
X91954550Y-73566111D01*
X91971270Y-73585406D01*
X92101506Y-73771402D01*
X92268600Y-73938496D01*
X92365385Y-74006266D01*
X92462166Y-74074033D01*
X92462168Y-74074034D01*
X92462171Y-74074036D01*
X92676338Y-74173904D01*
X92904593Y-74235064D01*
X93090259Y-74251308D01*
X93140000Y-74255660D01*
X93140001Y-74255660D01*
X93140002Y-74255660D01*
X93189743Y-74251308D01*
X93375409Y-74235064D01*
X93603664Y-74173904D01*
X93817831Y-74074036D01*
X94011402Y-73938496D01*
X94178496Y-73771402D01*
X94308426Y-73585843D01*
X94363003Y-73542218D01*
X94432501Y-73535024D01*
X94494856Y-73566547D01*
X94511576Y-73585843D01*
X94641282Y-73771083D01*
X94641506Y-73771402D01*
X94808600Y-73938496D01*
X94905385Y-74006266D01*
X95002166Y-74074033D01*
X95002168Y-74074034D01*
X95002171Y-74074036D01*
X95216338Y-74173904D01*
X95444593Y-74235064D01*
X95630259Y-74251308D01*
X95680000Y-74255660D01*
X95680001Y-74255660D01*
X95680002Y-74255660D01*
X95729743Y-74251308D01*
X95915409Y-74235064D01*
X96143664Y-74173904D01*
X96179042Y-74157406D01*
X96248118Y-74146915D01*
X96311902Y-74175434D01*
X96349377Y-74231471D01*
X96364660Y-74278507D01*
X96419849Y-74448361D01*
X96548725Y-74722237D01*
X96548727Y-74722240D01*
X96548728Y-74722242D01*
X96710906Y-74977795D01*
X96710909Y-74977799D01*
X96710910Y-74977800D01*
X96903847Y-75211021D01*
X97122936Y-75416759D01*
X97124491Y-75418219D01*
X97124501Y-75418227D01*
X97369356Y-75596125D01*
X97369361Y-75596127D01*
X97369368Y-75596133D01*
X97634611Y-75741952D01*
X97634616Y-75741954D01*
X97634618Y-75741955D01*
X97634619Y-75741956D01*
X97916034Y-75853376D01*
X97916037Y-75853377D01*
X98179307Y-75920973D01*
X98209211Y-75928651D01*
X98272208Y-75936609D01*
X98509495Y-75966586D01*
X98509504Y-75966586D01*
X98509507Y-75966587D01*
X98509509Y-75966587D01*
X98812187Y-75966587D01*
X98812189Y-75966587D01*
X98812192Y-75966586D01*
X98812200Y-75966586D01*
X99004061Y-75942348D01*
X99112485Y-75928651D01*
X99405658Y-75853377D01*
X99405661Y-75853376D01*
X99687076Y-75741956D01*
X99687077Y-75741955D01*
X99687075Y-75741955D01*
X99687085Y-75741952D01*
X99952328Y-75596133D01*
X100197203Y-75418221D01*
X100417849Y-75211021D01*
X100610786Y-74977800D01*
X100772971Y-74722237D01*
X100901847Y-74448361D01*
X100995381Y-74160493D01*
X101052098Y-73863172D01*
X101052115Y-73862901D01*
X101071104Y-73561092D01*
X101071104Y-73561081D01*
X101052099Y-73259012D01*
X101052098Y-73259005D01*
X101052098Y-73259002D01*
X100995381Y-72961681D01*
X100901847Y-72673813D01*
X100772971Y-72399937D01*
X100667595Y-72233891D01*
X100610789Y-72144378D01*
X100610565Y-72144107D01*
X100417849Y-71911153D01*
X100197203Y-71703953D01*
X100197200Y-71703951D01*
X100197194Y-71703946D01*
X99952339Y-71526048D01*
X99952332Y-71526043D01*
X99952328Y-71526041D01*
X99687085Y-71380222D01*
X99687082Y-71380220D01*
X99687077Y-71380218D01*
X99687076Y-71380217D01*
X99405661Y-71268797D01*
X99405658Y-71268796D01*
X99112488Y-71193523D01*
X99112475Y-71193521D01*
X98812200Y-71155587D01*
X98812189Y-71155587D01*
X98509507Y-71155587D01*
X98509495Y-71155587D01*
X98209220Y-71193521D01*
X98209207Y-71193523D01*
X97916037Y-71268796D01*
X97916034Y-71268797D01*
X97634619Y-71380217D01*
X97634618Y-71380218D01*
X97369368Y-71526041D01*
X97369356Y-71526048D01*
X97124501Y-71703946D01*
X97124491Y-71703954D01*
X96903845Y-71911154D01*
X96903843Y-71911156D01*
X96853623Y-71971862D01*
X96795723Y-72010969D01*
X96725872Y-72012565D01*
X96670399Y-71980503D01*
X96628978Y-71939082D01*
X96551402Y-71861506D01*
X96551398Y-71861503D01*
X96551397Y-71861502D01*
X96357835Y-71725968D01*
X96357831Y-71725966D01*
X96310609Y-71703946D01*
X96143664Y-71626098D01*
X96143660Y-71626097D01*
X96143656Y-71626095D01*
X95915414Y-71564939D01*
X95915404Y-71564937D01*
X95680002Y-71544342D01*
X95680000Y-71544342D01*
X95444597Y-71564937D01*
X95444587Y-71564939D01*
X95216345Y-71626095D01*
X95216336Y-71626099D01*
X95002172Y-71725965D01*
X95002170Y-71725966D01*
X94808598Y-71861506D01*
X94641506Y-72028598D01*
X94511576Y-72214159D01*
X94456999Y-72257784D01*
X94387501Y-72264978D01*
X94325146Y-72233455D01*
X94308426Y-72214159D01*
X94178495Y-72028598D01*
X94011403Y-71861507D01*
X94011396Y-71861502D01*
X93817835Y-71725968D01*
X93817831Y-71725966D01*
X93770609Y-71703946D01*
X93603664Y-71626098D01*
X93603660Y-71626097D01*
X93603656Y-71626095D01*
X93375414Y-71564939D01*
X93375404Y-71564937D01*
X93140002Y-71544342D01*
X93140000Y-71544342D01*
X92904597Y-71564937D01*
X92904587Y-71564939D01*
X92676345Y-71626095D01*
X92676336Y-71626099D01*
X92462172Y-71725965D01*
X92462170Y-71725966D01*
X92268598Y-71861506D01*
X92101509Y-72028595D01*
X91971270Y-72214596D01*
X91916693Y-72258220D01*
X91847194Y-72265413D01*
X91784840Y-72233891D01*
X91768120Y-72214595D01*
X91638114Y-72028927D01*
X91638109Y-72028921D01*
X91471083Y-71861895D01*
X91277579Y-71726400D01*
X91063493Y-71626571D01*
X91063487Y-71626568D01*
X90850001Y-71569365D01*
X90850001Y-72466989D01*
X90792994Y-72434076D01*
X90665827Y-72400001D01*
X90534175Y-72400001D01*
X90407008Y-72434076D01*
X90350001Y-72466989D01*
X90350001Y-71569365D01*
X90350000Y-71569365D01*
X90136514Y-71626568D01*
X90136508Y-71626571D01*
X89922423Y-71726400D01*
X89922421Y-71726401D01*
X89728927Y-71861887D01*
X89728921Y-71861892D01*
X89561892Y-72028921D01*
X89561891Y-72028923D01*
X89431881Y-72214596D01*
X89377304Y-72258220D01*
X89307805Y-72265413D01*
X89245451Y-72233891D01*
X89228731Y-72214595D01*
X89098495Y-72028598D01*
X88931403Y-71861507D01*
X88931396Y-71861502D01*
X88737835Y-71725968D01*
X88737831Y-71725966D01*
X88690609Y-71703946D01*
X88523664Y-71626098D01*
X88523660Y-71626097D01*
X88523656Y-71626095D01*
X88295414Y-71564939D01*
X88295404Y-71564937D01*
X88060002Y-71544342D01*
X88060000Y-71544342D01*
X87824597Y-71564937D01*
X87824587Y-71564939D01*
X87596345Y-71626095D01*
X87596336Y-71626099D01*
X87382172Y-71725965D01*
X87382170Y-71725966D01*
X87188601Y-71861504D01*
X87066674Y-71983431D01*
X87005351Y-72016915D01*
X86935659Y-72011931D01*
X86879726Y-71970059D01*
X86862811Y-71939082D01*
X86813798Y-71807672D01*
X86813794Y-71807665D01*
X86727548Y-71692456D01*
X86727545Y-71692453D01*
X86612336Y-71606207D01*
X86612329Y-71606203D01*
X86477483Y-71555909D01*
X86477484Y-71555909D01*
X86417884Y-71549502D01*
X86417882Y-71549501D01*
X86417874Y-71549501D01*
X86417865Y-71549501D01*
X84622130Y-71549501D01*
X84622124Y-71549502D01*
X84562517Y-71555909D01*
X84427672Y-71606203D01*
X84427665Y-71606207D01*
X84312456Y-71692453D01*
X84312454Y-71692455D01*
X84292524Y-71719078D01*
X84236589Y-71760948D01*
X84166897Y-71765930D01*
X84108376Y-71735158D01*
X84074862Y-71703687D01*
X84074852Y-71703679D01*
X83829997Y-71525781D01*
X83829990Y-71525776D01*
X83829986Y-71525774D01*
X83564743Y-71379955D01*
X83564740Y-71379953D01*
X83564735Y-71379951D01*
X83564734Y-71379950D01*
X83283319Y-71268530D01*
X83283316Y-71268529D01*
X82990146Y-71193256D01*
X82990133Y-71193254D01*
X82689858Y-71155320D01*
X82689847Y-71155320D01*
X82387165Y-71155320D01*
X82387153Y-71155320D01*
X82086878Y-71193254D01*
X82086865Y-71193256D01*
X81793695Y-71268529D01*
X81793692Y-71268530D01*
X81512277Y-71379950D01*
X81512276Y-71379951D01*
X81247026Y-71525774D01*
X81247014Y-71525781D01*
X81002159Y-71703679D01*
X81002149Y-71703687D01*
X80833678Y-71861892D01*
X80781505Y-71910886D01*
X80781282Y-71911156D01*
X80588564Y-72144111D01*
X80426386Y-72399664D01*
X80426383Y-72399668D01*
X80426383Y-72399670D01*
X80335412Y-72592994D01*
X80297506Y-72673548D01*
X80203974Y-72961409D01*
X80147255Y-73258738D01*
X80147254Y-73258745D01*
X80128250Y-73560814D01*
X80128250Y-73560825D01*
X80147254Y-73862894D01*
X80147255Y-73862901D01*
X80171946Y-73992336D01*
X80187448Y-74073601D01*
X80203974Y-74160230D01*
X80297505Y-74448088D01*
X80297507Y-74448094D01*
X80426383Y-74721970D01*
X80426385Y-74721973D01*
X80426386Y-74721975D01*
X80588564Y-74977528D01*
X80588567Y-74977532D01*
X80588568Y-74977533D01*
X80781505Y-75210754D01*
X81000880Y-75416760D01*
X81002149Y-75417952D01*
X81002159Y-75417960D01*
X81123759Y-75506308D01*
X81166425Y-75561638D01*
X81172404Y-75631251D01*
X81139798Y-75693046D01*
X81082968Y-75726401D01*
X80906331Y-75773731D01*
X80906324Y-75773734D01*
X80700167Y-75869866D01*
X80700163Y-75869868D01*
X80627177Y-75920973D01*
X80627177Y-75920974D01*
X81306204Y-76600000D01*
X81299990Y-76600000D01*
X81198257Y-76627259D01*
X81107045Y-76679920D01*
X81032571Y-76754394D01*
X80979910Y-76845606D01*
X80952651Y-76947339D01*
X80952651Y-76953552D01*
X80273625Y-76274526D01*
X80273624Y-76274526D01*
X80222519Y-76347512D01*
X80222517Y-76347516D01*
X80126385Y-76553673D01*
X80126381Y-76553682D01*
X80067511Y-76773389D01*
X80067509Y-76773400D01*
X80047685Y-76999997D01*
X79003410Y-76999997D01*
X79000604Y-76903574D01*
X79000604Y-76896425D01*
X79020020Y-76229130D01*
X79020440Y-76221944D01*
X79021081Y-76214626D01*
X79078617Y-75556978D01*
X79079454Y-75549816D01*
X79098729Y-75418227D01*
X79176205Y-74889294D01*
X79177445Y-74882265D01*
X79312438Y-74228492D01*
X79314091Y-74221515D01*
X79486877Y-73576673D01*
X79488929Y-73569820D01*
X79698902Y-72936153D01*
X79701365Y-72929388D01*
X79739191Y-72834175D01*
X79947829Y-72309002D01*
X79950667Y-72302422D01*
X80232798Y-71697391D01*
X80236006Y-71691004D01*
X80552837Y-71103404D01*
X80556423Y-71097192D01*
X80906866Y-70529038D01*
X80910825Y-70523020D01*
X80935037Y-70488442D01*
X81293709Y-69976204D01*
X81297993Y-69970449D01*
X81712032Y-69446811D01*
X81716667Y-69441288D01*
X81719094Y-69438561D01*
X82160452Y-68942610D01*
X82165368Y-68937400D01*
X82263623Y-68839145D01*
X84850831Y-68839145D01*
X84850831Y-68839156D01*
X84869835Y-69141225D01*
X84869836Y-69141232D01*
X84926555Y-69438561D01*
X84929237Y-69446814D01*
X85020088Y-69726425D01*
X85148964Y-70000301D01*
X85148966Y-70000304D01*
X85148967Y-70000306D01*
X85311145Y-70255859D01*
X85311148Y-70255863D01*
X85311149Y-70255864D01*
X85504086Y-70489085D01*
X85724044Y-70695639D01*
X85724730Y-70696283D01*
X85724740Y-70696291D01*
X85969595Y-70874189D01*
X85969600Y-70874191D01*
X85969607Y-70874197D01*
X86234850Y-71020016D01*
X86234855Y-71020018D01*
X86234857Y-71020019D01*
X86234858Y-71020020D01*
X86516273Y-71131440D01*
X86516276Y-71131441D01*
X86806938Y-71206070D01*
X86809450Y-71206715D01*
X86872447Y-71214673D01*
X87109734Y-71244650D01*
X87109743Y-71244650D01*
X87109746Y-71244651D01*
X87109748Y-71244651D01*
X87412426Y-71244651D01*
X87412428Y-71244651D01*
X87412431Y-71244650D01*
X87412439Y-71244650D01*
X87591626Y-71222013D01*
X87712724Y-71206715D01*
X88005897Y-71131441D01*
X88007524Y-71130797D01*
X88287315Y-71020020D01*
X88287316Y-71020019D01*
X88287314Y-71020019D01*
X88287324Y-71020016D01*
X88552567Y-70874197D01*
X88797442Y-70696285D01*
X89018088Y-70489085D01*
X89211025Y-70255864D01*
X89373210Y-70000301D01*
X89502086Y-69726425D01*
X89595620Y-69438557D01*
X89652337Y-69141236D01*
X89652378Y-69140588D01*
X89671343Y-68839156D01*
X89671343Y-68839145D01*
X89671302Y-68838501D01*
X91528923Y-68838501D01*
X91528923Y-68838512D01*
X91547927Y-69140581D01*
X91547928Y-69140588D01*
X91604647Y-69437917D01*
X91606619Y-69443985D01*
X91698180Y-69725781D01*
X91827056Y-69999657D01*
X91827058Y-69999660D01*
X91827059Y-69999662D01*
X91989237Y-70255215D01*
X91989240Y-70255219D01*
X91989241Y-70255220D01*
X92182178Y-70488441D01*
X92402822Y-70695639D01*
X92402832Y-70695647D01*
X92647687Y-70873545D01*
X92647692Y-70873547D01*
X92647699Y-70873553D01*
X92912942Y-71019372D01*
X92912947Y-71019374D01*
X92912949Y-71019375D01*
X92912950Y-71019376D01*
X93194365Y-71130796D01*
X93194368Y-71130797D01*
X93487538Y-71206070D01*
X93487542Y-71206071D01*
X93550539Y-71214029D01*
X93787826Y-71244006D01*
X93787835Y-71244006D01*
X93787838Y-71244007D01*
X93787840Y-71244007D01*
X94090518Y-71244007D01*
X94090520Y-71244007D01*
X94090523Y-71244006D01*
X94090531Y-71244006D01*
X94269718Y-71221369D01*
X94390816Y-71206071D01*
X94683989Y-71130797D01*
X94683992Y-71130796D01*
X94965407Y-71019376D01*
X94965408Y-71019375D01*
X94965406Y-71019375D01*
X94965416Y-71019372D01*
X95230659Y-70873553D01*
X95475534Y-70695641D01*
X95696180Y-70488441D01*
X95889117Y-70255220D01*
X96051302Y-69999657D01*
X96180178Y-69725781D01*
X96273712Y-69437913D01*
X96330429Y-69140592D01*
X96342884Y-68942629D01*
X96349435Y-68838512D01*
X96349435Y-68838501D01*
X96330430Y-68536432D01*
X96330429Y-68536425D01*
X96330429Y-68536422D01*
X96273712Y-68239101D01*
X96180178Y-67951233D01*
X96051302Y-67677357D01*
X95998210Y-67593698D01*
X95889120Y-67421798D01*
X95889117Y-67421794D01*
X95696180Y-67188573D01*
X95475534Y-66981373D01*
X95475531Y-66981371D01*
X95475525Y-66981366D01*
X95230670Y-66803468D01*
X95230663Y-66803463D01*
X95230659Y-66803461D01*
X94965416Y-66657642D01*
X94965413Y-66657640D01*
X94965408Y-66657638D01*
X94965407Y-66657637D01*
X94683992Y-66546217D01*
X94683989Y-66546216D01*
X94390819Y-66470943D01*
X94390806Y-66470941D01*
X94090531Y-66433007D01*
X94090520Y-66433007D01*
X93787838Y-66433007D01*
X93787826Y-66433007D01*
X93487551Y-66470941D01*
X93487538Y-66470943D01*
X93194368Y-66546216D01*
X93194365Y-66546217D01*
X92912950Y-66657637D01*
X92912949Y-66657638D01*
X92647699Y-66803461D01*
X92647687Y-66803468D01*
X92402832Y-66981366D01*
X92402822Y-66981374D01*
X92182180Y-67188571D01*
X92182178Y-67188573D01*
X92167048Y-67206862D01*
X91989237Y-67421798D01*
X91827059Y-67677351D01*
X91698179Y-67951235D01*
X91604647Y-68239096D01*
X91547928Y-68536425D01*
X91547927Y-68536432D01*
X91528923Y-68838501D01*
X89671302Y-68838501D01*
X89652338Y-68537076D01*
X89652337Y-68537069D01*
X89652337Y-68537066D01*
X89595620Y-68239745D01*
X89502086Y-67951877D01*
X89373210Y-67678001D01*
X89211025Y-67422438D01*
X89018088Y-67189217D01*
X88797442Y-66982017D01*
X88797439Y-66982015D01*
X88797433Y-66982010D01*
X88552578Y-66804112D01*
X88552571Y-66804107D01*
X88552567Y-66804105D01*
X88287324Y-66658286D01*
X88287321Y-66658284D01*
X88287316Y-66658282D01*
X88287315Y-66658281D01*
X88005900Y-66546861D01*
X88005897Y-66546860D01*
X87712727Y-66471587D01*
X87712714Y-66471585D01*
X87412439Y-66433651D01*
X87412428Y-66433651D01*
X87109746Y-66433651D01*
X87109734Y-66433651D01*
X86809459Y-66471585D01*
X86809446Y-66471587D01*
X86516276Y-66546860D01*
X86516273Y-66546861D01*
X86234858Y-66658281D01*
X86234857Y-66658282D01*
X85969607Y-66804105D01*
X85969595Y-66804112D01*
X85724740Y-66982010D01*
X85724730Y-66982018D01*
X85504774Y-67188571D01*
X85504086Y-67189217D01*
X85439773Y-67266957D01*
X85311145Y-67422442D01*
X85148967Y-67677995D01*
X85020087Y-67951879D01*
X84926555Y-68239740D01*
X84869836Y-68537069D01*
X84869835Y-68537076D01*
X84850831Y-68839145D01*
X82263623Y-68839145D01*
X82637400Y-68465368D01*
X82642610Y-68460452D01*
X83141290Y-68016664D01*
X83146814Y-68012030D01*
X83670449Y-67597993D01*
X83676204Y-67593709D01*
X84223027Y-67210820D01*
X84229038Y-67206866D01*
X84797192Y-66856423D01*
X84803404Y-66852837D01*
X85391004Y-66536006D01*
X85397391Y-66532798D01*
X86002422Y-66250667D01*
X86009002Y-66247829D01*
X86629402Y-66001359D01*
X86636153Y-65998902D01*
X87269820Y-65788929D01*
X87276673Y-65786877D01*
X87921515Y-65614091D01*
X87928492Y-65612438D01*
X88582265Y-65477445D01*
X88589294Y-65476205D01*
X89249817Y-65379453D01*
X89256980Y-65378617D01*
X89921957Y-65320439D01*
X89929130Y-65320020D01*
X90596426Y-65300604D01*
X90603574Y-65300604D01*
X91270867Y-65320020D01*
G37*
%TD.AperFunction*%
%TD*%
M02*
