%TF.GenerationSoftware,KiCad,Pcbnew,9.0.4-9.0.4-0~ubuntu24.04.1*%
%TF.CreationDate,2025-08-21T12:52:44+02:00*%
%TF.ProjectId,octal_base,6f637461-6c5f-4626-9173-652e6b696361,1*%
%TF.SameCoordinates,Original*%
%TF.FileFunction,Copper,L2,Bot*%
%TF.FilePolarity,Positive*%
%FSLAX46Y46*%
G04 Gerber Fmt 4.6, Leading zero omitted, Abs format (unit mm)*
G04 Created by KiCad (PCBNEW 9.0.4-9.0.4-0~ubuntu24.04.1) date 2025-08-21 12:52:44*
%MOMM*%
%LPD*%
G01*
G04 APERTURE LIST*
G04 Aperture macros list*
%AMRotRect*
0 Rectangle, with rotation*
0 The origin of the aperture is its center*
0 $1 length*
0 $2 width*
0 $3 Rotation angle, in degrees counterclockwise*
0 Add horizontal line*
21,1,$1,$2,0,0,$3*%
G04 Aperture macros list end*
%TA.AperFunction,ComponentPad*%
%ADD10R,1.700000X1.700000*%
%TD*%
%TA.AperFunction,ComponentPad*%
%ADD11C,1.700000*%
%TD*%
%TA.AperFunction,ComponentPad*%
%ADD12R,1.600000X1.600000*%
%TD*%
%TA.AperFunction,ComponentPad*%
%ADD13C,1.600000*%
%TD*%
%TA.AperFunction,ComponentPad*%
%ADD14RotRect,3.810000X3.810000X22.500000*%
%TD*%
%TA.AperFunction,ComponentPad*%
%ADD15C,3.810000*%
%TD*%
%TA.AperFunction,ViaPad*%
%ADD16C,0.600000*%
%TD*%
%TA.AperFunction,Conductor*%
%ADD17C,0.200000*%
%TD*%
G04 APERTURE END LIST*
D10*
%TO.P,J2,1,Pin_1*%
%TO.N,unconnected-(J2-Pin_1-Pad1)*%
X85520001Y-72900001D03*
D11*
%TO.P,J2,2,Pin_2*%
%TO.N,VCC*%
X88060001Y-72900001D03*
%TO.P,J2,3,Pin_3*%
%TO.N,GND*%
X90600001Y-72900001D03*
%TO.P,J2,4,Pin_4*%
%TO.N,AGC*%
X93140001Y-72900001D03*
%TO.P,J2,5,Pin_5*%
%TO.N,EN*%
X95680001Y-72900001D03*
%TD*%
D12*
%TO.P,C1,1*%
%TO.N,VCC*%
X84852651Y-77000000D03*
D13*
%TO.P,C1,2*%
%TO.N,GND*%
X81352651Y-77000000D03*
%TD*%
D14*
%TO.P,J1,1,Pin_1*%
%TO.N,unconnected-(J1-Pin_1-Pad1)*%
X98661493Y-80239180D03*
D15*
%TO.P,J1,2,Pin_2*%
%TO.N,H1*%
X98660848Y-73561087D03*
%TO.P,J1,3,Pin_3*%
%TO.N,unconnected-(J1-Pin_3-Pad3)*%
X93939179Y-68838507D03*
%TO.P,J1,4,Pin_4*%
%TO.N,AGC*%
X87261087Y-68839151D03*
%TO.P,J1,5,Pin_5*%
%TO.N,unconnected-(J1-Pin_5-Pad5)*%
X82538506Y-73560820D03*
%TO.P,J1,6,Pin_6*%
%TO.N,Net-(J1-Pin_6)*%
X82539151Y-80238913D03*
%TO.P,J1,7,Pin_7*%
%TO.N,H2*%
X87260820Y-84961494D03*
%TO.P,J1,8,Pin_8*%
%TO.N,K*%
X93938912Y-84960849D03*
%TD*%
D16*
%TO.N,GND*%
X94700000Y-76100000D03*
%TO.N,VCC*%
X89200000Y-82200000D03*
X88700000Y-87100000D03*
%TO.N,GND*%
X90900000Y-83350000D03*
%TD*%
D17*
%TO.N,VCC*%
X88700000Y-87100000D02*
X89700000Y-86100000D01*
X89700000Y-86100000D02*
X89700000Y-83900000D01*
X89200000Y-83400000D02*
X89200000Y-82200000D01*
X89700000Y-83900000D02*
X89200000Y-83400000D01*
%TD*%
%TA.AperFunction,Conductor*%
%TO.N,GND*%
G36*
X90928795Y-65305258D02*
G01*
X91571484Y-65341350D01*
X91578403Y-65341934D01*
X92218058Y-65414006D01*
X92224895Y-65414971D01*
X92859527Y-65522799D01*
X92866335Y-65524153D01*
X93493898Y-65667390D01*
X93500606Y-65669120D01*
X94119175Y-65847327D01*
X94125754Y-65849424D01*
X94733356Y-66062033D01*
X94739853Y-66064513D01*
X95334542Y-66310843D01*
X95340875Y-66313676D01*
X95920831Y-66592968D01*
X95926995Y-66596152D01*
X95957944Y-66613257D01*
X96490374Y-66907521D01*
X96496365Y-66911055D01*
X97041390Y-67253516D01*
X97047166Y-67257375D01*
X97572159Y-67629878D01*
X97577683Y-67634035D01*
X98080959Y-68035384D01*
X98086253Y-68039855D01*
X98528349Y-68434936D01*
X98566235Y-68468793D01*
X98571289Y-68473572D01*
X99026427Y-68928710D01*
X99031206Y-68933764D01*
X99307296Y-69242709D01*
X99460136Y-69413736D01*
X99464618Y-69419044D01*
X99865959Y-69922310D01*
X99870125Y-69927846D01*
X100086426Y-70232692D01*
X100242619Y-70452826D01*
X100246483Y-70458609D01*
X100588944Y-71003634D01*
X100592478Y-71009625D01*
X100903843Y-71572997D01*
X100907035Y-71579176D01*
X101186319Y-72159116D01*
X101189160Y-72165465D01*
X101435485Y-72760145D01*
X101437966Y-72766643D01*
X101650567Y-73374221D01*
X101652679Y-73380848D01*
X101830875Y-73999380D01*
X101832612Y-74006115D01*
X101975844Y-74633657D01*
X101977201Y-74640479D01*
X102085024Y-75275077D01*
X102085996Y-75281965D01*
X102158064Y-75921593D01*
X102158649Y-75928523D01*
X102194742Y-76571204D01*
X102194937Y-76578157D01*
X102194937Y-77221842D01*
X102194742Y-77228795D01*
X102158649Y-77871476D01*
X102158064Y-77878406D01*
X102085996Y-78518034D01*
X102085024Y-78524922D01*
X101977201Y-79159520D01*
X101975844Y-79166342D01*
X101832612Y-79793884D01*
X101830875Y-79800619D01*
X101652679Y-80419151D01*
X101650566Y-80425778D01*
X101650566Y-80425779D01*
X101616773Y-80522351D01*
X101576051Y-80579126D01*
X101511098Y-80604873D01*
X101442536Y-80591416D01*
X101392134Y-80543029D01*
X101385174Y-80528855D01*
X100136553Y-77514417D01*
X100136550Y-77514411D01*
X100136548Y-77514406D01*
X100107823Y-77461800D01*
X100107818Y-77461794D01*
X100009751Y-77356461D01*
X100009749Y-77356459D01*
X99885971Y-77283019D01*
X99766649Y-77252564D01*
X99746523Y-77247427D01*
X99746522Y-77247427D01*
X99746519Y-77247426D01*
X99602697Y-77252564D01*
X99602693Y-77252564D01*
X99602692Y-77252565D01*
X99545167Y-77269456D01*
X99545165Y-77269456D01*
X99545161Y-77269458D01*
X95936724Y-78764122D01*
X95936719Y-78764124D01*
X95884113Y-78792849D01*
X95884107Y-78792854D01*
X95778774Y-78890921D01*
X95778772Y-78890923D01*
X95705332Y-79014701D01*
X95669740Y-79154150D01*
X95669739Y-79154153D01*
X95674877Y-79297975D01*
X95674877Y-79297978D01*
X95674878Y-79297981D01*
X95691769Y-79355506D01*
X95691770Y-79355510D01*
X95691771Y-79355511D01*
X97186435Y-82963948D01*
X97186437Y-82963953D01*
X97215162Y-83016559D01*
X97215167Y-83016565D01*
X97313234Y-83121898D01*
X97313236Y-83121900D01*
X97437014Y-83195340D01*
X97482842Y-83207036D01*
X97576463Y-83230933D01*
X97576465Y-83230932D01*
X97576466Y-83230933D01*
X97624406Y-83229220D01*
X97720294Y-83225795D01*
X97777819Y-83208904D01*
X100792255Y-81960282D01*
X100817617Y-81957555D01*
X100842234Y-81950870D01*
X100851773Y-81953883D01*
X100861722Y-81952814D01*
X100884533Y-81964232D01*
X100908858Y-81971917D01*
X100915254Y-81979610D01*
X100924201Y-81984089D01*
X100937217Y-82006027D01*
X100953526Y-82025643D01*
X100954747Y-82035573D01*
X100959853Y-82044178D01*
X100958942Y-82069672D01*
X100962057Y-82094990D01*
X100957525Y-82109333D01*
X100957359Y-82114003D01*
X100951425Y-82128645D01*
X100907039Y-82220815D01*
X100903847Y-82226995D01*
X100592478Y-82790374D01*
X100588944Y-82796365D01*
X100246483Y-83341390D01*
X100242619Y-83347173D01*
X99870134Y-83872142D01*
X99865951Y-83877700D01*
X99464623Y-84380949D01*
X99460136Y-84386263D01*
X99031206Y-84866235D01*
X99026427Y-84871289D01*
X98571289Y-85326427D01*
X98566235Y-85331206D01*
X98086263Y-85760136D01*
X98080949Y-85764623D01*
X97577700Y-86165951D01*
X97572142Y-86170134D01*
X97047173Y-86542619D01*
X97041390Y-86546483D01*
X96496365Y-86888944D01*
X96490374Y-86892478D01*
X95927002Y-87203843D01*
X95920823Y-87207035D01*
X95340883Y-87486319D01*
X95334534Y-87489160D01*
X94739854Y-87735485D01*
X94733356Y-87737966D01*
X94125778Y-87950567D01*
X94119151Y-87952679D01*
X93500619Y-88130875D01*
X93493884Y-88132612D01*
X92866342Y-88275844D01*
X92859520Y-88277201D01*
X92224922Y-88385024D01*
X92218034Y-88385996D01*
X91578406Y-88458064D01*
X91571476Y-88458649D01*
X90928795Y-88494742D01*
X90921842Y-88494937D01*
X90278158Y-88494937D01*
X90271205Y-88494742D01*
X89628523Y-88458649D01*
X89621593Y-88458064D01*
X88981965Y-88385996D01*
X88975077Y-88385024D01*
X88340479Y-88277201D01*
X88333657Y-88275844D01*
X87706115Y-88132612D01*
X87699380Y-88130875D01*
X87080848Y-87952679D01*
X87074221Y-87950567D01*
X86466643Y-87737966D01*
X86460145Y-87735485D01*
X85865465Y-87489160D01*
X85859116Y-87486319D01*
X85279176Y-87207035D01*
X85272997Y-87203843D01*
X84709625Y-86892478D01*
X84703634Y-86888944D01*
X84158609Y-86546483D01*
X84152826Y-86542619D01*
X84048669Y-86468716D01*
X83627846Y-86170125D01*
X83622310Y-86165959D01*
X83119044Y-85764618D01*
X83113736Y-85760136D01*
X82966405Y-85628473D01*
X82633764Y-85331206D01*
X82628710Y-85326427D01*
X82173572Y-84871289D01*
X82168793Y-84866235D01*
X82133193Y-84826399D01*
X84855320Y-84826399D01*
X84855320Y-85096588D01*
X84885569Y-85365052D01*
X84885571Y-85365064D01*
X84945692Y-85628473D01*
X85034926Y-85883490D01*
X85152151Y-86126910D01*
X85152153Y-86126913D01*
X85295897Y-86355681D01*
X85386034Y-86468709D01*
X85463837Y-86566271D01*
X85464352Y-86566916D01*
X85655398Y-86757962D01*
X85866633Y-86926417D01*
X86095401Y-87070161D01*
X86338825Y-87187388D01*
X86593840Y-87276621D01*
X86593842Y-87276621D01*
X86593843Y-87276622D01*
X86857249Y-87336743D01*
X87125725Y-87366993D01*
X87125726Y-87366994D01*
X87125730Y-87366994D01*
X87395914Y-87366994D01*
X87395914Y-87366993D01*
X87664391Y-87336743D01*
X87806442Y-87304320D01*
X87876181Y-87308593D01*
X87932539Y-87349892D01*
X87948596Y-87377758D01*
X87990604Y-87479176D01*
X87990609Y-87479185D01*
X88078210Y-87610288D01*
X88078213Y-87610292D01*
X88189707Y-87721786D01*
X88189711Y-87721789D01*
X88320814Y-87809390D01*
X88320827Y-87809397D01*
X88438570Y-87858167D01*
X88466503Y-87869737D01*
X88621153Y-87900499D01*
X88621156Y-87900500D01*
X88621158Y-87900500D01*
X88778844Y-87900500D01*
X88778845Y-87900499D01*
X88933497Y-87869737D01*
X89079179Y-87809394D01*
X89210289Y-87721789D01*
X89321789Y-87610289D01*
X89409394Y-87479179D01*
X89469737Y-87333497D01*
X89494892Y-87207035D01*
X89500638Y-87178150D01*
X89533023Y-87116239D01*
X89534515Y-87114719D01*
X90180520Y-86468716D01*
X90259577Y-86331784D01*
X90300501Y-86179057D01*
X90300501Y-86020942D01*
X90300501Y-86013347D01*
X90300500Y-86013329D01*
X90300500Y-84825754D01*
X91533412Y-84825754D01*
X91533412Y-85095943D01*
X91563661Y-85364407D01*
X91563663Y-85364419D01*
X91623784Y-85627828D01*
X91713018Y-85882845D01*
X91830243Y-86126265D01*
X91857808Y-86170134D01*
X91973989Y-86355036D01*
X92064641Y-86468709D01*
X92126663Y-86546483D01*
X92142444Y-86566271D01*
X92333490Y-86757317D01*
X92544725Y-86925772D01*
X92773493Y-87069516D01*
X93016917Y-87186743D01*
X93271932Y-87275976D01*
X93271934Y-87275976D01*
X93271935Y-87275977D01*
X93535341Y-87336098D01*
X93803817Y-87366348D01*
X93803818Y-87366349D01*
X93803822Y-87366349D01*
X94074006Y-87366349D01*
X94074006Y-87366348D01*
X94342483Y-87336098D01*
X94605889Y-87275977D01*
X94860907Y-87186743D01*
X95104331Y-87069516D01*
X95333099Y-86925772D01*
X95544334Y-86757317D01*
X95735380Y-86566271D01*
X95903835Y-86355036D01*
X96047579Y-86126268D01*
X96164806Y-85882844D01*
X96254040Y-85627826D01*
X96314161Y-85364420D01*
X96344412Y-85095939D01*
X96344412Y-84825759D01*
X96314161Y-84557278D01*
X96254040Y-84293872D01*
X96164806Y-84038854D01*
X96047579Y-83795430D01*
X95903835Y-83566662D01*
X95735380Y-83355427D01*
X95544334Y-83164381D01*
X95333099Y-82995926D01*
X95105358Y-82852827D01*
X95104328Y-82852180D01*
X94860908Y-82734955D01*
X94605890Y-82645721D01*
X94605892Y-82645721D01*
X94408334Y-82600630D01*
X94342483Y-82585600D01*
X94342479Y-82585599D01*
X94342470Y-82585598D01*
X94074006Y-82555349D01*
X94074002Y-82555349D01*
X93803822Y-82555349D01*
X93803818Y-82555349D01*
X93535353Y-82585598D01*
X93535341Y-82585600D01*
X93271932Y-82645721D01*
X93016915Y-82734955D01*
X92773495Y-82852180D01*
X92544726Y-82995925D01*
X92333490Y-83164380D01*
X92142443Y-83355427D01*
X91973988Y-83566663D01*
X91830243Y-83795432D01*
X91713018Y-84038852D01*
X91623784Y-84293869D01*
X91563663Y-84557278D01*
X91563661Y-84557290D01*
X91533412Y-84825754D01*
X90300500Y-84825754D01*
X90300500Y-83989060D01*
X90300501Y-83989047D01*
X90300501Y-83820944D01*
X90293665Y-83795432D01*
X90259577Y-83668216D01*
X90259573Y-83668209D01*
X90180524Y-83531290D01*
X90180518Y-83531282D01*
X89836819Y-83187583D01*
X89803334Y-83126260D01*
X89800500Y-83099902D01*
X89800500Y-82779765D01*
X89820185Y-82712726D01*
X89821398Y-82710874D01*
X89909390Y-82579185D01*
X89909390Y-82579184D01*
X89909394Y-82579179D01*
X89969737Y-82433497D01*
X90000500Y-82278842D01*
X90000500Y-82121158D01*
X90000500Y-82121155D01*
X90000499Y-82121153D01*
X89990259Y-82069672D01*
X89969737Y-81966503D01*
X89919134Y-81844335D01*
X89909397Y-81820827D01*
X89909390Y-81820814D01*
X89821789Y-81689711D01*
X89821786Y-81689707D01*
X89710292Y-81578213D01*
X89710288Y-81578210D01*
X89579185Y-81490609D01*
X89579172Y-81490602D01*
X89433501Y-81430264D01*
X89433489Y-81430261D01*
X89278845Y-81399500D01*
X89278842Y-81399500D01*
X89121158Y-81399500D01*
X89121155Y-81399500D01*
X88966510Y-81430261D01*
X88966498Y-81430264D01*
X88820827Y-81490602D01*
X88820814Y-81490609D01*
X88689711Y-81578210D01*
X88689707Y-81578213D01*
X88578213Y-81689707D01*
X88578210Y-81689711D01*
X88490609Y-81820814D01*
X88490602Y-81820827D01*
X88430264Y-81966498D01*
X88430261Y-81966510D01*
X88399500Y-82121153D01*
X88399500Y-82278846D01*
X88430261Y-82433489D01*
X88430264Y-82433501D01*
X88490602Y-82579172D01*
X88490609Y-82579185D01*
X88538360Y-82650649D01*
X88559238Y-82717327D01*
X88540753Y-82784707D01*
X88488774Y-82831397D01*
X88419804Y-82842573D01*
X88381457Y-82831260D01*
X88182821Y-82735602D01*
X88182817Y-82735600D01*
X87927798Y-82646366D01*
X87927800Y-82646366D01*
X87730242Y-82601275D01*
X87664391Y-82586245D01*
X87664387Y-82586244D01*
X87664378Y-82586243D01*
X87395914Y-82555994D01*
X87395910Y-82555994D01*
X87125730Y-82555994D01*
X87125726Y-82555994D01*
X86857261Y-82586243D01*
X86857249Y-82586245D01*
X86593840Y-82646366D01*
X86338823Y-82735600D01*
X86095403Y-82852825D01*
X85866634Y-82996570D01*
X85655398Y-83165025D01*
X85464351Y-83356072D01*
X85295896Y-83567308D01*
X85152151Y-83796077D01*
X85034926Y-84039497D01*
X84945692Y-84294514D01*
X84885571Y-84557923D01*
X84885569Y-84557935D01*
X84855320Y-84826399D01*
X82133193Y-84826399D01*
X81893268Y-84557923D01*
X81739855Y-84386253D01*
X81735376Y-84380949D01*
X81666449Y-84294517D01*
X81334035Y-83877683D01*
X81329878Y-83872159D01*
X80957375Y-83347166D01*
X80953516Y-83341390D01*
X80884111Y-83230933D01*
X80749415Y-83016564D01*
X80611055Y-82796365D01*
X80607521Y-82790374D01*
X80296156Y-82227002D01*
X80292964Y-82220823D01*
X80248573Y-82128645D01*
X80013676Y-81640875D01*
X80010839Y-81634534D01*
X79951220Y-81490602D01*
X79764513Y-81039853D01*
X79762033Y-81033356D01*
X79549424Y-80425754D01*
X79547327Y-80419175D01*
X79369120Y-79800606D01*
X79367387Y-79793884D01*
X79316728Y-79571933D01*
X79224153Y-79166335D01*
X79222798Y-79159520D01*
X79198192Y-79014699D01*
X79114971Y-78524895D01*
X79114006Y-78518058D01*
X79041934Y-77878403D01*
X79041350Y-77871476D01*
X79040911Y-77863664D01*
X79005258Y-77228795D01*
X79005063Y-77221842D01*
X79005063Y-76897682D01*
X80052651Y-76897682D01*
X80052651Y-77102317D01*
X80084660Y-77304417D01*
X80147895Y-77499031D01*
X80240792Y-77681350D01*
X80240798Y-77681359D01*
X80273174Y-77725921D01*
X80273175Y-77725922D01*
X80952651Y-77046446D01*
X80952651Y-77052661D01*
X80979910Y-77154394D01*
X81032571Y-77245606D01*
X81107045Y-77320080D01*
X81198257Y-77372741D01*
X81299990Y-77400000D01*
X81306203Y-77400000D01*
X80626727Y-78079474D01*
X80671301Y-78111859D01*
X80853621Y-78204755D01*
X80903155Y-78220850D01*
X80960830Y-78260287D01*
X80988029Y-78324645D01*
X80976115Y-78393492D01*
X80942157Y-78435722D01*
X80933735Y-78442438D01*
X80742682Y-78633491D01*
X80574227Y-78844727D01*
X80430482Y-79073496D01*
X80313257Y-79316916D01*
X80224023Y-79571933D01*
X80163902Y-79835342D01*
X80163900Y-79835354D01*
X80133651Y-80103818D01*
X80133651Y-80374007D01*
X80163900Y-80642471D01*
X80163902Y-80642483D01*
X80224023Y-80905892D01*
X80313257Y-81160909D01*
X80430482Y-81404329D01*
X80430484Y-81404332D01*
X80574228Y-81633100D01*
X80580435Y-81640883D01*
X80723925Y-81820814D01*
X80742683Y-81844335D01*
X80933729Y-82035381D01*
X81144964Y-82203836D01*
X81373732Y-82347580D01*
X81617156Y-82464807D01*
X81872171Y-82554040D01*
X81872173Y-82554040D01*
X81872174Y-82554041D01*
X82135580Y-82614162D01*
X82404056Y-82644412D01*
X82404057Y-82644413D01*
X82404061Y-82644413D01*
X82674245Y-82644413D01*
X82674245Y-82644412D01*
X82942722Y-82614162D01*
X83206128Y-82554041D01*
X83461146Y-82464807D01*
X83704570Y-82347580D01*
X83933338Y-82203836D01*
X84144573Y-82035381D01*
X84335619Y-81844335D01*
X84504074Y-81633100D01*
X84647818Y-81404332D01*
X84765045Y-81160908D01*
X84854279Y-80905890D01*
X84914400Y-80642484D01*
X84944651Y-80374003D01*
X84944651Y-80103823D01*
X84914400Y-79835342D01*
X84854279Y-79571936D01*
X84765045Y-79316918D01*
X84647818Y-79073494D01*
X84504074Y-78844726D01*
X84335619Y-78633491D01*
X84214308Y-78512180D01*
X84180823Y-78450857D01*
X84185807Y-78381165D01*
X84227679Y-78325232D01*
X84293143Y-78300815D01*
X84301965Y-78300499D01*
X85700523Y-78300499D01*
X85760134Y-78294091D01*
X85894982Y-78243796D01*
X86010197Y-78157546D01*
X86096447Y-78042331D01*
X86146742Y-77907483D01*
X86153151Y-77847873D01*
X86153150Y-76774038D01*
X88999500Y-76774038D01*
X88999500Y-77025961D01*
X89038910Y-77274785D01*
X89116760Y-77514383D01*
X89187450Y-77653118D01*
X89224545Y-77725922D01*
X89231132Y-77738848D01*
X89379201Y-77942649D01*
X89379205Y-77942654D01*
X89557345Y-78120794D01*
X89557350Y-78120798D01*
X89726645Y-78243797D01*
X89761155Y-78268870D01*
X89870620Y-78324645D01*
X89985616Y-78383239D01*
X89985618Y-78383239D01*
X89985621Y-78383241D01*
X90225215Y-78461090D01*
X90474038Y-78500500D01*
X90474039Y-78500500D01*
X90725961Y-78500500D01*
X90725962Y-78500500D01*
X90974785Y-78461090D01*
X91214379Y-78383241D01*
X91438845Y-78268870D01*
X91642656Y-78120793D01*
X91820793Y-77942656D01*
X91968870Y-77738845D01*
X92083241Y-77514379D01*
X92161090Y-77274785D01*
X92200500Y-77025962D01*
X92200500Y-76774038D01*
X92161090Y-76525215D01*
X92083241Y-76285621D01*
X92083239Y-76285618D01*
X92083239Y-76285616D01*
X92041747Y-76204184D01*
X91968870Y-76061155D01*
X91910380Y-75980650D01*
X91820798Y-75857350D01*
X91820794Y-75857345D01*
X91642654Y-75679205D01*
X91642649Y-75679201D01*
X91438848Y-75531132D01*
X91438847Y-75531131D01*
X91438845Y-75531130D01*
X91335655Y-75478552D01*
X91214383Y-75416760D01*
X90974785Y-75338910D01*
X90725962Y-75299500D01*
X90474038Y-75299500D01*
X90349626Y-75319205D01*
X90225214Y-75338910D01*
X89985616Y-75416760D01*
X89761151Y-75531132D01*
X89557350Y-75679201D01*
X89557345Y-75679205D01*
X89379205Y-75857345D01*
X89379201Y-75857350D01*
X89231132Y-76061151D01*
X89116760Y-76285616D01*
X89038910Y-76525214D01*
X88999500Y-76774038D01*
X86153150Y-76774038D01*
X86153150Y-76152128D01*
X86146742Y-76092517D01*
X86135043Y-76061151D01*
X86096448Y-75957671D01*
X86096444Y-75957664D01*
X86010198Y-75842455D01*
X86010195Y-75842452D01*
X85894986Y-75756206D01*
X85894979Y-75756202D01*
X85760133Y-75705908D01*
X85760134Y-75705908D01*
X85700534Y-75699501D01*
X85700532Y-75699500D01*
X85700524Y-75699500D01*
X85700516Y-75699500D01*
X84069178Y-75699500D01*
X84002139Y-75679815D01*
X83956384Y-75627011D01*
X83946440Y-75557853D01*
X83975465Y-75494297D01*
X83991854Y-75478563D01*
X84143928Y-75357288D01*
X84334974Y-75166242D01*
X84503429Y-74955007D01*
X84647173Y-74726239D01*
X84764400Y-74482815D01*
X84793827Y-74398713D01*
X84816631Y-74333546D01*
X84857353Y-74276770D01*
X84922305Y-74251022D01*
X84933673Y-74250500D01*
X86417872Y-74250500D01*
X86417873Y-74250500D01*
X86477484Y-74244092D01*
X86612332Y-74193797D01*
X86727547Y-74107547D01*
X86813797Y-73992332D01*
X86862811Y-73860917D01*
X86904682Y-73804985D01*
X86970146Y-73780567D01*
X87038419Y-73795418D01*
X87066674Y-73816570D01*
X87180214Y-73930110D01*
X87352180Y-74055049D01*
X87352182Y-74055050D01*
X87352185Y-74055052D01*
X87541589Y-74151558D01*
X87743758Y-74217247D01*
X87953714Y-74250501D01*
X87953715Y-74250501D01*
X88166287Y-74250501D01*
X88166288Y-74250501D01*
X88376244Y-74217247D01*
X88578413Y-74151558D01*
X88767817Y-74055052D01*
X88822573Y-74015270D01*
X88939787Y-73930110D01*
X88939789Y-73930107D01*
X88939793Y-73930105D01*
X89090105Y-73779793D01*
X89090107Y-73779789D01*
X89090110Y-73779787D01*
X89175891Y-73661718D01*
X89215052Y-73607817D01*
X89219794Y-73598509D01*
X89267764Y-73547712D01*
X89335584Y-73530912D01*
X89401720Y-73553446D01*
X89440764Y-73598501D01*
X89445374Y-73607548D01*
X89484729Y-73661717D01*
X90117038Y-73029409D01*
X90134076Y-73092994D01*
X90199902Y-73207008D01*
X90292994Y-73300100D01*
X90407008Y-73365926D01*
X90470591Y-73382963D01*
X89838283Y-74015270D01*
X89838283Y-74015271D01*
X89892450Y-74054625D01*
X90081783Y-74151096D01*
X90283871Y-74216758D01*
X90493755Y-74250001D01*
X90706247Y-74250001D01*
X90916128Y-74216758D01*
X90916131Y-74216758D01*
X91118218Y-74151096D01*
X91307555Y-74054623D01*
X91361717Y-74015271D01*
X91361718Y-74015271D01*
X90729409Y-73382963D01*
X90792994Y-73365926D01*
X90907008Y-73300100D01*
X91000100Y-73207008D01*
X91065926Y-73092994D01*
X91082963Y-73029409D01*
X91715271Y-73661718D01*
X91715271Y-73661717D01*
X91754623Y-73607556D01*
X91759233Y-73598508D01*
X91807206Y-73547710D01*
X91875026Y-73530913D01*
X91941162Y-73553448D01*
X91980205Y-73598505D01*
X91984950Y-73607818D01*
X92109891Y-73779787D01*
X92260214Y-73930110D01*
X92432180Y-74055049D01*
X92432182Y-74055050D01*
X92432185Y-74055052D01*
X92621589Y-74151558D01*
X92823758Y-74217247D01*
X93033714Y-74250501D01*
X93033715Y-74250501D01*
X93246287Y-74250501D01*
X93246288Y-74250501D01*
X93456244Y-74217247D01*
X93658413Y-74151558D01*
X93847817Y-74055052D01*
X93902573Y-74015270D01*
X94019787Y-73930110D01*
X94019789Y-73930107D01*
X94019793Y-73930105D01*
X94170105Y-73779793D01*
X94170107Y-73779789D01*
X94170110Y-73779787D01*
X94295049Y-73607821D01*
X94295048Y-73607821D01*
X94295052Y-73607817D01*
X94299515Y-73599055D01*
X94347489Y-73548260D01*
X94415309Y-73531464D01*
X94481445Y-73554000D01*
X94520487Y-73599057D01*
X94524952Y-73607821D01*
X94649891Y-73779787D01*
X94800214Y-73930110D01*
X94972180Y-74055049D01*
X94972182Y-74055050D01*
X94972185Y-74055052D01*
X95161589Y-74151558D01*
X95363758Y-74217247D01*
X95573714Y-74250501D01*
X95573715Y-74250501D01*
X95786287Y-74250501D01*
X95786288Y-74250501D01*
X95996244Y-74217247D01*
X96191331Y-74153858D01*
X96261170Y-74151864D01*
X96321003Y-74187944D01*
X96346689Y-74230835D01*
X96434955Y-74483085D01*
X96552179Y-74726503D01*
X96552181Y-74726506D01*
X96695925Y-74955274D01*
X96864380Y-75166509D01*
X97055426Y-75357555D01*
X97266661Y-75526010D01*
X97495004Y-75669487D01*
X97495431Y-75669755D01*
X97617141Y-75728367D01*
X97738853Y-75786981D01*
X97993868Y-75876214D01*
X97993870Y-75876214D01*
X97993871Y-75876215D01*
X98257277Y-75936336D01*
X98525753Y-75966586D01*
X98525754Y-75966587D01*
X98525758Y-75966587D01*
X98795942Y-75966587D01*
X98795942Y-75966586D01*
X99064419Y-75936336D01*
X99327825Y-75876215D01*
X99582843Y-75786981D01*
X99826267Y-75669754D01*
X100055035Y-75526010D01*
X100266270Y-75357555D01*
X100457316Y-75166509D01*
X100625771Y-74955274D01*
X100769515Y-74726506D01*
X100886742Y-74483082D01*
X100975976Y-74228064D01*
X101036097Y-73964658D01*
X101066348Y-73696177D01*
X101066348Y-73425997D01*
X101036097Y-73157516D01*
X100975976Y-72894110D01*
X100886742Y-72639092D01*
X100769515Y-72395668D01*
X100625771Y-72166900D01*
X100457316Y-71955665D01*
X100266270Y-71764619D01*
X100261921Y-71761151D01*
X100175781Y-71692456D01*
X100055035Y-71596164D01*
X99826267Y-71452420D01*
X99826264Y-71452418D01*
X99582844Y-71335193D01*
X99327826Y-71245959D01*
X99327828Y-71245959D01*
X99130270Y-71200868D01*
X99064419Y-71185838D01*
X99064415Y-71185837D01*
X99064406Y-71185836D01*
X98795942Y-71155587D01*
X98795938Y-71155587D01*
X98525758Y-71155587D01*
X98525754Y-71155587D01*
X98257289Y-71185836D01*
X98257277Y-71185838D01*
X97993868Y-71245959D01*
X97738851Y-71335193D01*
X97495431Y-71452418D01*
X97266662Y-71596163D01*
X97055426Y-71764618D01*
X96864373Y-71955671D01*
X96853807Y-71968921D01*
X96796617Y-72009060D01*
X96726806Y-72011907D01*
X96669182Y-71979286D01*
X96559787Y-71869891D01*
X96387821Y-71744952D01*
X96198415Y-71648445D01*
X96198414Y-71648444D01*
X96198413Y-71648444D01*
X95996244Y-71582755D01*
X95996242Y-71582754D01*
X95996241Y-71582754D01*
X95834958Y-71557209D01*
X95786288Y-71549501D01*
X95573714Y-71549501D01*
X95525043Y-71557209D01*
X95363761Y-71582754D01*
X95161586Y-71648445D01*
X94972180Y-71744952D01*
X94800214Y-71869891D01*
X94649891Y-72020214D01*
X94524950Y-72192183D01*
X94520485Y-72200947D01*
X94472510Y-72251743D01*
X94404689Y-72268537D01*
X94338554Y-72245999D01*
X94299517Y-72200947D01*
X94295051Y-72192183D01*
X94170110Y-72020214D01*
X94019787Y-71869891D01*
X93847821Y-71744952D01*
X93658415Y-71648445D01*
X93658414Y-71648444D01*
X93658413Y-71648444D01*
X93456244Y-71582755D01*
X93456242Y-71582754D01*
X93456241Y-71582754D01*
X93294958Y-71557209D01*
X93246288Y-71549501D01*
X93033714Y-71549501D01*
X92985043Y-71557209D01*
X92823761Y-71582754D01*
X92621586Y-71648445D01*
X92432180Y-71744952D01*
X92260214Y-71869891D01*
X92109891Y-72020214D01*
X91984950Y-72192183D01*
X91980203Y-72201500D01*
X91932228Y-72252294D01*
X91864406Y-72269088D01*
X91798272Y-72246549D01*
X91759235Y-72201496D01*
X91754627Y-72192453D01*
X91715271Y-72138283D01*
X91715270Y-72138283D01*
X91082963Y-72770591D01*
X91065926Y-72707008D01*
X91000100Y-72592994D01*
X90907008Y-72499902D01*
X90792994Y-72434076D01*
X90729410Y-72417038D01*
X91361717Y-71784729D01*
X91307551Y-71745376D01*
X91118218Y-71648905D01*
X90916130Y-71583243D01*
X90706247Y-71550001D01*
X90493755Y-71550001D01*
X90283873Y-71583243D01*
X90283870Y-71583243D01*
X90081783Y-71648905D01*
X89892440Y-71745381D01*
X89838283Y-71784728D01*
X89838283Y-71784729D01*
X90470592Y-72417038D01*
X90407008Y-72434076D01*
X90292994Y-72499902D01*
X90199902Y-72592994D01*
X90134076Y-72707008D01*
X90117038Y-72770592D01*
X89484729Y-72138283D01*
X89484728Y-72138283D01*
X89445381Y-72192441D01*
X89445377Y-72192447D01*
X89440761Y-72201506D01*
X89392782Y-72252298D01*
X89324960Y-72269088D01*
X89258827Y-72246544D01*
X89219795Y-72201494D01*
X89215052Y-72192185D01*
X89215050Y-72192182D01*
X89215049Y-72192180D01*
X89090110Y-72020214D01*
X88939787Y-71869891D01*
X88767821Y-71744952D01*
X88578415Y-71648445D01*
X88578414Y-71648444D01*
X88578413Y-71648444D01*
X88376244Y-71582755D01*
X88376242Y-71582754D01*
X88376241Y-71582754D01*
X88214958Y-71557209D01*
X88166288Y-71549501D01*
X87953714Y-71549501D01*
X87905043Y-71557209D01*
X87743761Y-71582754D01*
X87541586Y-71648445D01*
X87352180Y-71744952D01*
X87180216Y-71869890D01*
X87066674Y-71983432D01*
X87005351Y-72016916D01*
X86935659Y-72011932D01*
X86879726Y-71970060D01*
X86862811Y-71939083D01*
X86813798Y-71807672D01*
X86813794Y-71807665D01*
X86727548Y-71692456D01*
X86727545Y-71692453D01*
X86612336Y-71606207D01*
X86612329Y-71606203D01*
X86477483Y-71555909D01*
X86477484Y-71555909D01*
X86417884Y-71549502D01*
X86417882Y-71549501D01*
X86417874Y-71549501D01*
X86417865Y-71549501D01*
X84622130Y-71549501D01*
X84622124Y-71549502D01*
X84562517Y-71555909D01*
X84427672Y-71606203D01*
X84427665Y-71606207D01*
X84312456Y-71692453D01*
X84312454Y-71692455D01*
X84292372Y-71719281D01*
X84236437Y-71761151D01*
X84166745Y-71766133D01*
X84115794Y-71741915D01*
X83998586Y-71648445D01*
X83932693Y-71595897D01*
X83703925Y-71452153D01*
X83703922Y-71452151D01*
X83460502Y-71334926D01*
X83205484Y-71245692D01*
X83205486Y-71245692D01*
X83007928Y-71200601D01*
X82942077Y-71185571D01*
X82942073Y-71185570D01*
X82942064Y-71185569D01*
X82673600Y-71155320D01*
X82673596Y-71155320D01*
X82403416Y-71155320D01*
X82403412Y-71155320D01*
X82134947Y-71185569D01*
X82134935Y-71185571D01*
X81871526Y-71245692D01*
X81616509Y-71334926D01*
X81373089Y-71452151D01*
X81144320Y-71595896D01*
X80933084Y-71764351D01*
X80742037Y-71955398D01*
X80573582Y-72166634D01*
X80429837Y-72395403D01*
X80312612Y-72638823D01*
X80223378Y-72893840D01*
X80163257Y-73157249D01*
X80163255Y-73157261D01*
X80133006Y-73425725D01*
X80133006Y-73695914D01*
X80163255Y-73964378D01*
X80163256Y-73964387D01*
X80163257Y-73964391D01*
X80169635Y-73992336D01*
X80223378Y-74227799D01*
X80312612Y-74482816D01*
X80429837Y-74726236D01*
X80429839Y-74726239D01*
X80573583Y-74955007D01*
X80699257Y-75112596D01*
X80742037Y-75166241D01*
X80933084Y-75357288D01*
X81124233Y-75509725D01*
X81164373Y-75566914D01*
X81167223Y-75636725D01*
X81131877Y-75696995D01*
X81069558Y-75728588D01*
X81066321Y-75729145D01*
X81048231Y-75732010D01*
X80853619Y-75795244D01*
X80671295Y-75888143D01*
X80626728Y-75920523D01*
X80626728Y-75920524D01*
X81306204Y-76600000D01*
X81299990Y-76600000D01*
X81198257Y-76627259D01*
X81107045Y-76679920D01*
X81032571Y-76754394D01*
X80979910Y-76845606D01*
X80952651Y-76947339D01*
X80952651Y-76953553D01*
X80273175Y-76274077D01*
X80273174Y-76274077D01*
X80240794Y-76318644D01*
X80147895Y-76500968D01*
X80084660Y-76695582D01*
X80052651Y-76897682D01*
X79005063Y-76897682D01*
X79005063Y-76578157D01*
X79005258Y-76571204D01*
X79019441Y-76318650D01*
X79041350Y-75928512D01*
X79041935Y-75921593D01*
X79114007Y-75281936D01*
X79114970Y-75275109D01*
X79222800Y-74640465D01*
X79224155Y-74633657D01*
X79258522Y-74483085D01*
X79367392Y-74006092D01*
X79369118Y-73999401D01*
X79547325Y-73380833D01*
X79549421Y-73374255D01*
X79762037Y-72766631D01*
X79764514Y-72760145D01*
X80010848Y-72165443D01*
X80013670Y-72159137D01*
X80292975Y-71579153D01*
X80296144Y-71573019D01*
X80607522Y-71009622D01*
X80611055Y-71003634D01*
X80646126Y-70947819D01*
X80953531Y-70458586D01*
X80957364Y-70452849D01*
X81329890Y-69927823D01*
X81334022Y-69922332D01*
X81735398Y-69419022D01*
X81739839Y-69413763D01*
X82168809Y-68933746D01*
X82173554Y-68928728D01*
X82398226Y-68704056D01*
X84855587Y-68704056D01*
X84855587Y-68974245D01*
X84885836Y-69242709D01*
X84885838Y-69242721D01*
X84945959Y-69506130D01*
X85035193Y-69761147D01*
X85152418Y-70004567D01*
X85152420Y-70004570D01*
X85296164Y-70233338D01*
X85421838Y-70390927D01*
X85464104Y-70443928D01*
X85464619Y-70444573D01*
X85655665Y-70635619D01*
X85866900Y-70804074D01*
X86095668Y-70947818D01*
X86339092Y-71065045D01*
X86594107Y-71154278D01*
X86594109Y-71154278D01*
X86594110Y-71154279D01*
X86857516Y-71214400D01*
X87125992Y-71244650D01*
X87125993Y-71244651D01*
X87125997Y-71244651D01*
X87396181Y-71244651D01*
X87396181Y-71244650D01*
X87664658Y-71214400D01*
X87928064Y-71154279D01*
X88183082Y-71065045D01*
X88426506Y-70947818D01*
X88655274Y-70804074D01*
X88866509Y-70635619D01*
X89057555Y-70444573D01*
X89226010Y-70233338D01*
X89369754Y-70004570D01*
X89486981Y-69761146D01*
X89576215Y-69506128D01*
X89636336Y-69242722D01*
X89666587Y-68974241D01*
X89666587Y-68704061D01*
X89666586Y-68704056D01*
X89666586Y-68704054D01*
X89666514Y-68703412D01*
X91533679Y-68703412D01*
X91533679Y-68973601D01*
X91563928Y-69242065D01*
X91563930Y-69242077D01*
X91624051Y-69505486D01*
X91713285Y-69760503D01*
X91830510Y-70003923D01*
X91830512Y-70003926D01*
X91974256Y-70232694D01*
X92142711Y-70443929D01*
X92333757Y-70634975D01*
X92544992Y-70803430D01*
X92773760Y-70947174D01*
X93017184Y-71064401D01*
X93272199Y-71153634D01*
X93272201Y-71153634D01*
X93272202Y-71153635D01*
X93535608Y-71213756D01*
X93804084Y-71244006D01*
X93804085Y-71244007D01*
X93804089Y-71244007D01*
X94074273Y-71244007D01*
X94074273Y-71244006D01*
X94342750Y-71213756D01*
X94606156Y-71153635D01*
X94861174Y-71064401D01*
X95104598Y-70947174D01*
X95333366Y-70803430D01*
X95544601Y-70634975D01*
X95735647Y-70443929D01*
X95904102Y-70232694D01*
X96047846Y-70003926D01*
X96165073Y-69760502D01*
X96254307Y-69505484D01*
X96314428Y-69242078D01*
X96344679Y-68973597D01*
X96344679Y-68703417D01*
X96314428Y-68434936D01*
X96254307Y-68171530D01*
X96165073Y-67916512D01*
X96047846Y-67673088D01*
X95904102Y-67444320D01*
X95735647Y-67233085D01*
X95544601Y-67042039D01*
X95333366Y-66873584D01*
X95104598Y-66729840D01*
X95104595Y-66729838D01*
X94861175Y-66612613D01*
X94606157Y-66523379D01*
X94606159Y-66523379D01*
X94408601Y-66478288D01*
X94342750Y-66463258D01*
X94342746Y-66463257D01*
X94342737Y-66463256D01*
X94074273Y-66433007D01*
X94074269Y-66433007D01*
X93804089Y-66433007D01*
X93804085Y-66433007D01*
X93535620Y-66463256D01*
X93535608Y-66463258D01*
X93272199Y-66523379D01*
X93017182Y-66612613D01*
X92773762Y-66729838D01*
X92544993Y-66873583D01*
X92333757Y-67042038D01*
X92142710Y-67233085D01*
X91974255Y-67444321D01*
X91830510Y-67673090D01*
X91713285Y-67916510D01*
X91624051Y-68171527D01*
X91563930Y-68434936D01*
X91563928Y-68434948D01*
X91533679Y-68703412D01*
X89666514Y-68703412D01*
X89636336Y-68435580D01*
X89576215Y-68172174D01*
X89486981Y-67917156D01*
X89369754Y-67673732D01*
X89226010Y-67444964D01*
X89057555Y-67233729D01*
X88866509Y-67042683D01*
X88865701Y-67042039D01*
X88812863Y-66999902D01*
X88655274Y-66874228D01*
X88426506Y-66730484D01*
X88426503Y-66730482D01*
X88183083Y-66613257D01*
X87928065Y-66524023D01*
X87928067Y-66524023D01*
X87730509Y-66478932D01*
X87664658Y-66463902D01*
X87664654Y-66463901D01*
X87664645Y-66463900D01*
X87396181Y-66433651D01*
X87396177Y-66433651D01*
X87125997Y-66433651D01*
X87125993Y-66433651D01*
X86857528Y-66463900D01*
X86857516Y-66463902D01*
X86594107Y-66524023D01*
X86339090Y-66613257D01*
X86095670Y-66730482D01*
X85866901Y-66874227D01*
X85655665Y-67042682D01*
X85464618Y-67233729D01*
X85296163Y-67444965D01*
X85152418Y-67673734D01*
X85035193Y-67917154D01*
X84945959Y-68172171D01*
X84885838Y-68435580D01*
X84885836Y-68435592D01*
X84855587Y-68704056D01*
X82398226Y-68704056D01*
X82628728Y-68473554D01*
X82633746Y-68468809D01*
X83113763Y-68039839D01*
X83119022Y-68035398D01*
X83622332Y-67634022D01*
X83627823Y-67629890D01*
X84152849Y-67257364D01*
X84158586Y-67253531D01*
X84703636Y-66911053D01*
X84709625Y-66907521D01*
X84769866Y-66874227D01*
X85273019Y-66596144D01*
X85279153Y-66592975D01*
X85859137Y-66313670D01*
X85865443Y-66310848D01*
X86460158Y-66064508D01*
X86466631Y-66062037D01*
X87074255Y-65849421D01*
X87080814Y-65847330D01*
X87699401Y-65669118D01*
X87706092Y-65667392D01*
X88333671Y-65524152D01*
X88340465Y-65522800D01*
X88975109Y-65414970D01*
X88981936Y-65414007D01*
X89621599Y-65341934D01*
X89628512Y-65341350D01*
X90271205Y-65305258D01*
X90278158Y-65305063D01*
X90921842Y-65305063D01*
X90928795Y-65305258D01*
G37*
%TD.AperFunction*%
%TD*%
M02*
