%TF.GenerationSoftware,KiCad,Pcbnew,8.0.7-8.0.7-0~ubuntu22.04.1*%
%TF.CreationDate,2025-01-07T12:01:05+01:00*%
%TF.ProjectId,octal_base,6f637461-6c5f-4626-9173-652e6b696361,1*%
%TF.SameCoordinates,Original*%
%TF.FileFunction,Copper,L1,Top*%
%TF.FilePolarity,Positive*%
%FSLAX46Y46*%
G04 Gerber Fmt 4.6, Leading zero omitted, Abs format (unit mm)*
G04 Created by KiCad (PCBNEW 8.0.7-8.0.7-0~ubuntu22.04.1) date 2025-01-07 12:01:05*
%MOMM*%
%LPD*%
G01*
G04 APERTURE LIST*
G04 Aperture macros list*
%AMRoundRect*
0 Rectangle with rounded corners*
0 $1 Rounding radius*
0 $2 $3 $4 $5 $6 $7 $8 $9 X,Y pos of 4 corners*
0 Add a 4 corners polygon primitive as box body*
4,1,4,$2,$3,$4,$5,$6,$7,$8,$9,$2,$3,0*
0 Add four circle primitives for the rounded corners*
1,1,$1+$1,$2,$3*
1,1,$1+$1,$4,$5*
1,1,$1+$1,$6,$7*
1,1,$1+$1,$8,$9*
0 Add four rect primitives between the rounded corners*
20,1,$1+$1,$2,$3,$4,$5,0*
20,1,$1+$1,$4,$5,$6,$7,0*
20,1,$1+$1,$6,$7,$8,$9,0*
20,1,$1+$1,$8,$9,$2,$3,0*%
%AMRotRect*
0 Rectangle, with rotation*
0 The origin of the aperture is its center*
0 $1 length*
0 $2 width*
0 $3 Rotation angle, in degrees counterclockwise*
0 Add horizontal line*
21,1,$1,$2,0,0,$3*%
G04 Aperture macros list end*
%TA.AperFunction,ComponentPad*%
%ADD10R,1.600000X1.600000*%
%TD*%
%TA.AperFunction,ComponentPad*%
%ADD11C,1.600000*%
%TD*%
%TA.AperFunction,ComponentPad*%
%ADD12RotRect,3.810000X3.810000X22.500000*%
%TD*%
%TA.AperFunction,ComponentPad*%
%ADD13C,3.810000*%
%TD*%
%TA.AperFunction,SMDPad,CuDef*%
%ADD14RoundRect,0.250000X-0.250000X-0.250000X0.250000X-0.250000X0.250000X0.250000X-0.250000X0.250000X0*%
%TD*%
%TA.AperFunction,SMDPad,CuDef*%
%ADD15RoundRect,0.237500X0.287500X0.237500X-0.287500X0.237500X-0.287500X-0.237500X0.287500X-0.237500X0*%
%TD*%
%TA.AperFunction,SMDPad,CuDef*%
%ADD16RoundRect,0.250000X0.375000X0.625000X-0.375000X0.625000X-0.375000X-0.625000X0.375000X-0.625000X0*%
%TD*%
%TA.AperFunction,SMDPad,CuDef*%
%ADD17RoundRect,0.237500X-0.250000X-0.237500X0.250000X-0.237500X0.250000X0.237500X-0.250000X0.237500X0*%
%TD*%
%TA.AperFunction,SMDPad,CuDef*%
%ADD18RoundRect,0.250000X0.325000X0.450000X-0.325000X0.450000X-0.325000X-0.450000X0.325000X-0.450000X0*%
%TD*%
%TA.AperFunction,SMDPad,CuDef*%
%ADD19RoundRect,0.250000X0.353553X0.000000X0.000000X0.353553X-0.353553X0.000000X0.000000X-0.353553X0*%
%TD*%
%TA.AperFunction,SMDPad,CuDef*%
%ADD20RoundRect,0.250000X-0.159099X0.724784X-0.724784X0.159099X0.159099X-0.724784X0.724784X-0.159099X0*%
%TD*%
%TA.AperFunction,SMDPad,CuDef*%
%ADD21RoundRect,0.250000X0.250000X0.250000X-0.250000X0.250000X-0.250000X-0.250000X0.250000X-0.250000X0*%
%TD*%
%TA.AperFunction,ComponentPad*%
%ADD22R,1.700000X1.700000*%
%TD*%
%TA.AperFunction,ComponentPad*%
%ADD23O,1.700000X1.700000*%
%TD*%
%TA.AperFunction,SMDPad,CuDef*%
%ADD24RoundRect,0.250000X-0.250000X0.250000X-0.250000X-0.250000X0.250000X-0.250000X0.250000X0.250000X0*%
%TD*%
%TA.AperFunction,ViaPad*%
%ADD25C,0.600000*%
%TD*%
%TA.AperFunction,Conductor*%
%ADD26C,0.500000*%
%TD*%
%TA.AperFunction,Conductor*%
%ADD27C,0.200000*%
%TD*%
G04 APERTURE END LIST*
D10*
%TO.P,C1,1*%
%TO.N,VCC*%
X84852651Y-77000000D03*
D11*
%TO.P,C1,2*%
%TO.N,GND*%
X81352651Y-77000000D03*
%TD*%
D12*
%TO.P,J1,1,Pin_1*%
%TO.N,unconnected-(J1-Pin_1-Pad1)*%
X98661493Y-80239180D03*
D13*
%TO.P,J1,2,Pin_2*%
%TO.N,H1*%
X98660848Y-73561087D03*
%TO.P,J1,3,Pin_3*%
%TO.N,unconnected-(J1-Pin_3-Pad3)*%
X93939179Y-68838507D03*
%TO.P,J1,4,Pin_4*%
%TO.N,AGC*%
X87261087Y-68839151D03*
%TO.P,J1,5,Pin_5*%
%TO.N,unconnected-(J1-Pin_5-Pad5)*%
X82538506Y-73560820D03*
%TO.P,J1,6,Pin_6*%
%TO.N,Net-(J1-Pin_6)*%
X82539151Y-80238913D03*
%TO.P,J1,7,Pin_7*%
%TO.N,H2*%
X87260820Y-84961494D03*
%TO.P,J1,8,Pin_8*%
%TO.N,K*%
X93938912Y-84960849D03*
%TD*%
D14*
%TO.P,D2,1,K*%
%TO.N,Net-(D2-K)*%
X98550000Y-76600000D03*
%TO.P,D2,2,A*%
%TO.N,H1*%
X101050000Y-76600000D03*
%TD*%
D15*
%TO.P,D1,1,K*%
%TO.N,EN*%
X96075000Y-75100000D03*
%TO.P,D1,2,A*%
%TO.N,GND*%
X94325000Y-75100000D03*
%TD*%
D16*
%TO.P,F1,1*%
%TO.N,Net-(D2-K)*%
X95000000Y-81200000D03*
%TO.P,F1,2*%
%TO.N,Net-(F1-Pad2)*%
X92200000Y-81200000D03*
%TD*%
D17*
%TO.P,R2,1*%
%TO.N,VCC*%
X89687500Y-87500000D03*
%TO.P,R2,2*%
%TO.N,K*%
X91512500Y-87500000D03*
%TD*%
D18*
%TO.P,FB1,1*%
%TO.N,Net-(F1-Pad2)*%
X90325000Y-81200000D03*
%TO.P,FB1,2*%
%TO.N,VCC*%
X88275000Y-81200000D03*
%TD*%
D19*
%TO.P,D4,1,K*%
%TO.N,H1*%
X98983883Y-70533883D03*
%TO.P,D4,2,A*%
%TO.N,GND*%
X97216117Y-68766117D03*
%TD*%
D20*
%TO.P,R1,1*%
%TO.N,Net-(J1-Pin_6)*%
X85696016Y-81903984D03*
%TO.P,R1,2*%
%TO.N,EN*%
X83503984Y-84096016D03*
%TD*%
D21*
%TO.P,D3,1,K*%
%TO.N,Net-(D2-K)*%
X96850000Y-77200000D03*
%TO.P,D3,2,A*%
%TO.N,H2*%
X94350000Y-77200000D03*
%TD*%
D22*
%TO.P,J2,1,Pin_1*%
%TO.N,unconnected-(J2-Pin_1-Pad1)*%
X85520001Y-72900001D03*
D23*
%TO.P,J2,2,Pin_2*%
%TO.N,VCC*%
X88060001Y-72900001D03*
%TO.P,J2,3,Pin_3*%
%TO.N,GND*%
X90600001Y-72900001D03*
%TO.P,J2,4,Pin_4*%
%TO.N,AGC*%
X93140001Y-72900001D03*
%TO.P,J2,5,Pin_5*%
%TO.N,EN*%
X95680001Y-72900001D03*
%TD*%
D24*
%TO.P,D5,1,K*%
%TO.N,H2*%
X90600000Y-83250000D03*
%TO.P,D5,2,A*%
%TO.N,GND*%
X90600000Y-85750000D03*
%TD*%
D25*
%TO.N,GND*%
X96500000Y-67800000D03*
X94700000Y-76100000D03*
X90600000Y-86900000D03*
X98100000Y-69700000D03*
X90600000Y-84600000D03*
%TO.N,VCC*%
X89200000Y-82200000D03*
X88700000Y-87100000D03*
%TD*%
D26*
%TO.N,AGC*%
X93140001Y-72900001D02*
X90540000Y-70300000D01*
X88700000Y-70300000D02*
X87300000Y-68900000D01*
X90540000Y-70300000D02*
X88700000Y-70300000D01*
%TO.N,H2*%
X88900000Y-83200000D02*
X87500000Y-84600000D01*
X93600000Y-77950000D02*
X93600000Y-81796878D01*
X87500000Y-84600000D02*
X87500000Y-84800000D01*
X92196878Y-83200000D02*
X88900000Y-83200000D01*
X93600000Y-81796878D02*
X92196878Y-83200000D01*
X94350000Y-77200000D02*
X93600000Y-77950000D01*
%TO.N,H1*%
X101000000Y-76600000D02*
X101100000Y-76600000D01*
X98660848Y-74260848D02*
X101000000Y-76600000D01*
X98660848Y-73561087D02*
X98660848Y-74260848D01*
X98983883Y-70533883D02*
X98983883Y-72266117D01*
%TO.N,GND*%
X98100000Y-69650000D02*
X98100000Y-69700000D01*
D27*
X94325001Y-75725001D02*
X94700000Y-76100000D01*
D26*
X90600000Y-85750000D02*
X90600000Y-84600000D01*
X90600000Y-85750000D02*
X90600000Y-86900000D01*
X96500000Y-68050000D02*
X96500000Y-67800000D01*
X97216117Y-68766117D02*
X98100000Y-69650000D01*
X97216117Y-68766117D02*
X96500000Y-68050000D01*
D27*
X94325001Y-75100000D02*
X94325001Y-75725001D01*
%TO.N,VCC*%
X89100000Y-87500000D02*
X89700000Y-87500000D01*
X88700000Y-87100000D02*
X89100000Y-87500000D01*
X88275000Y-81275000D02*
X89200000Y-82200000D01*
X88275000Y-81200000D02*
X88275000Y-81275000D01*
D26*
X84852651Y-78052651D02*
X87100000Y-80300000D01*
X86100000Y-75700000D02*
X84900000Y-76900000D01*
X87999999Y-72900001D02*
X86100000Y-74800000D01*
X84852651Y-77000000D02*
X84852651Y-78052651D01*
X88060001Y-72900001D02*
X87999999Y-72900001D01*
X87400000Y-80300000D02*
X88300000Y-81200000D01*
X87100000Y-80300000D02*
X87400000Y-80300000D01*
X84900000Y-76900000D02*
X84900000Y-77000000D01*
X86100000Y-74800000D02*
X86100000Y-75700000D01*
%TO.N,Net-(F1-Pad2)*%
X92200000Y-81200000D02*
X90300000Y-81200000D01*
D27*
%TO.N,EN*%
X82800000Y-84000000D02*
X81500000Y-82700000D01*
X81626346Y-70673654D02*
X84600000Y-67700000D01*
D26*
X95680001Y-72900002D02*
X95680001Y-74680001D01*
D27*
X80000000Y-79800000D02*
X80000000Y-74600000D01*
X95680001Y-72900002D02*
X95766430Y-72810299D01*
X88400000Y-66500000D02*
X89800000Y-67900000D01*
D26*
X95680001Y-74680001D02*
X96100000Y-75100000D01*
D27*
X87497056Y-66500000D02*
X88400000Y-66500000D01*
X95766430Y-72810299D02*
X95912840Y-72608782D01*
X95912840Y-72608782D02*
X96025922Y-72386842D01*
X83300000Y-84000000D02*
X82800000Y-84000000D01*
X94200000Y-71500000D02*
X95600000Y-72900000D01*
X81500000Y-82700000D02*
X80989949Y-82189950D01*
X89800000Y-67900000D02*
X89800000Y-68782183D01*
X89800000Y-68782183D02*
X92517817Y-71500000D01*
X92517817Y-71500000D02*
X94200000Y-71500000D01*
X80989949Y-82189950D02*
G75*
G02*
X80000000Y-79800000I2389951J2389950D01*
G01*
X84600000Y-67700000D02*
G75*
G02*
X87497056Y-66499982I2897100J-2897100D01*
G01*
X80000000Y-74600000D02*
G75*
G02*
X81626344Y-70673652I5552700J0D01*
G01*
D26*
%TO.N,Net-(J1-Pin_6)*%
X84492032Y-80700000D02*
X83900000Y-80700000D01*
X85696016Y-81903984D02*
X84492032Y-80700000D01*
%TO.N,K*%
X91512500Y-87500000D02*
X91512500Y-87487500D01*
X91512500Y-87487500D02*
X93700000Y-85300000D01*
%TO.N,Net-(D2-K)*%
X97500000Y-76600000D02*
X95000000Y-79100000D01*
X95000000Y-79100000D02*
X95000000Y-81300000D01*
X98550000Y-76600000D02*
X97500000Y-76600000D01*
%TD*%
%TA.AperFunction,Conductor*%
%TO.N,H2*%
G36*
X88720728Y-83032118D02*
G01*
X88721306Y-83032658D01*
X89067775Y-83379127D01*
X89071199Y-83387155D01*
X89093456Y-84450407D01*
X89090203Y-84458750D01*
X89084852Y-84461936D01*
X87278313Y-84957211D01*
X87269429Y-84956093D01*
X87263936Y-84949020D01*
X87263738Y-84943681D01*
X87622324Y-83111746D01*
X87627275Y-83104289D01*
X87633011Y-83102325D01*
X88712243Y-83029258D01*
X88720728Y-83032118D01*
G37*
%TD.AperFunction*%
%TD*%
%TA.AperFunction,Conductor*%
%TO.N,EN*%
G36*
X94822526Y-71976151D02*
G01*
X95669314Y-72049080D01*
X95677262Y-72053204D01*
X95680009Y-72060727D01*
X95680698Y-72888988D01*
X95677278Y-72897264D01*
X95669008Y-72900698D01*
X95668988Y-72900698D01*
X94839611Y-72900008D01*
X94831341Y-72896574D01*
X94828142Y-72890571D01*
X94827830Y-72888988D01*
X94676891Y-72123227D01*
X94678653Y-72114450D01*
X94680092Y-72112699D01*
X94813256Y-71979535D01*
X94821528Y-71976109D01*
X94822526Y-71976151D01*
G37*
%TD.AperFunction*%
%TD*%
%TA.AperFunction,Conductor*%
%TO.N,AGC*%
G36*
X92421798Y-71823499D02*
G01*
X93435855Y-72106490D01*
X93452579Y-72111158D01*
X93459626Y-72116682D01*
X93460703Y-72125572D01*
X93460248Y-72126893D01*
X93142563Y-72896215D01*
X93136238Y-72902554D01*
X93136215Y-72902563D01*
X92366893Y-73220248D01*
X92357938Y-73220239D01*
X92351613Y-73213900D01*
X92351158Y-73212579D01*
X92063500Y-72181801D01*
X92064577Y-72172911D01*
X92066492Y-72170387D01*
X92410384Y-71826495D01*
X92418656Y-71823069D01*
X92421798Y-71823499D01*
G37*
%TD.AperFunction*%
%TD*%
%TA.AperFunction,Conductor*%
%TO.N,EN*%
G36*
X95684485Y-72900864D02*
G01*
X96453119Y-73220221D01*
X96459444Y-73226560D01*
X96459435Y-73235515D01*
X96458822Y-73236771D01*
X95933357Y-74169046D01*
X95926310Y-74174570D01*
X95923165Y-74175001D01*
X95436837Y-74175001D01*
X95428564Y-74171574D01*
X95426645Y-74169046D01*
X94901179Y-73236771D01*
X94900102Y-73227881D01*
X94905626Y-73220834D01*
X94906871Y-73220226D01*
X95675512Y-72900865D01*
X95684467Y-72900857D01*
X95684485Y-72900864D01*
G37*
%TD.AperFunction*%
%TD*%
%TA.AperFunction,Conductor*%
%TO.N,VCC*%
G36*
X86340826Y-75610533D02*
G01*
X86344253Y-75618806D01*
X86343377Y-75623247D01*
X85656985Y-77296121D01*
X85650674Y-77302474D01*
X85641985Y-77302609D01*
X84857187Y-77002733D01*
X84850682Y-76996579D01*
X84850675Y-76996564D01*
X84500682Y-76210755D01*
X84500447Y-76201804D01*
X84506610Y-76195307D01*
X85847757Y-75608087D01*
X85852450Y-75607106D01*
X86332553Y-75607106D01*
X86340826Y-75610533D01*
G37*
%TD.AperFunction*%
%TD*%
%TA.AperFunction,Conductor*%
%TO.N,H1*%
G36*
X98677100Y-73568293D02*
G01*
X99096765Y-73764122D01*
X100361153Y-74354124D01*
X100367201Y-74360727D01*
X100367594Y-74367412D01*
X100130459Y-75372908D01*
X100127344Y-75378495D01*
X99780884Y-75724955D01*
X99772611Y-75728382D01*
X99769656Y-75728003D01*
X98700557Y-75448940D01*
X98693418Y-75443534D01*
X98691814Y-75437816D01*
X98673643Y-74360727D01*
X98660456Y-73579091D01*
X98663742Y-73570764D01*
X98671957Y-73567198D01*
X98677100Y-73568293D01*
G37*
%TD.AperFunction*%
%TD*%
%TA.AperFunction,Conductor*%
%TO.N,K*%
G36*
X93930278Y-84966179D02*
G01*
X93935720Y-84973290D01*
X93935883Y-84978622D01*
X93566248Y-86807293D01*
X93561250Y-86814723D01*
X93555480Y-86816654D01*
X92477189Y-86881302D01*
X92468726Y-86878376D01*
X92468216Y-86877896D01*
X92121746Y-86531426D01*
X92118320Y-86523307D01*
X92104291Y-85458628D01*
X92107609Y-85450311D01*
X92112974Y-85447169D01*
X93921401Y-84964999D01*
X93930278Y-84966179D01*
G37*
%TD.AperFunction*%
%TD*%
%TA.AperFunction,Conductor*%
%TO.N,AGC*%
G36*
X89120160Y-69079230D02*
G01*
X89127926Y-69083688D01*
X89130312Y-69091919D01*
X89041095Y-70049998D01*
X89041095Y-70539044D01*
X89037668Y-70547317D01*
X89030163Y-70550719D01*
X87872499Y-70626883D01*
X87864019Y-70624006D01*
X87860645Y-70618949D01*
X87837622Y-70550719D01*
X87266073Y-68856891D01*
X87266675Y-68847957D01*
X87273418Y-68842065D01*
X87278653Y-68841547D01*
X89120160Y-69079230D01*
G37*
%TD.AperFunction*%
%TD*%
%TA.AperFunction,Conductor*%
%TO.N,Net-(J1-Pin_6)*%
G36*
X84380232Y-79796281D02*
G01*
X84384345Y-79800552D01*
X84937302Y-80788315D01*
X84938353Y-80797208D01*
X84935366Y-80802303D01*
X84588912Y-81148757D01*
X84587085Y-81150248D01*
X83795227Y-81672961D01*
X83786434Y-81674659D01*
X83779939Y-81670859D01*
X82551024Y-80252723D01*
X82548196Y-80244227D01*
X82552204Y-80236219D01*
X82557112Y-80233690D01*
X84371388Y-79794895D01*
X84380232Y-79796281D01*
G37*
%TD.AperFunction*%
%TD*%
%TA.AperFunction,Conductor*%
%TO.N,H1*%
G36*
X99236074Y-71194151D02*
G01*
X99237377Y-71195702D01*
X99864603Y-72089261D01*
X99866552Y-72098001D01*
X99864053Y-72103428D01*
X98672888Y-73547489D01*
X98664980Y-73551690D01*
X98656417Y-73549070D01*
X98653169Y-73544792D01*
X97892353Y-71831164D01*
X97892127Y-71822212D01*
X97896039Y-71817047D01*
X98730767Y-71193052D01*
X98737772Y-71190724D01*
X99227801Y-71190724D01*
X99236074Y-71194151D01*
G37*
%TD.AperFunction*%
%TD*%
%TA.AperFunction,Conductor*%
%TO.N,VCC*%
G36*
X84860227Y-77007720D02*
G01*
X84861388Y-77008737D01*
X85646636Y-77793985D01*
X85650063Y-77802258D01*
X85648785Y-77807576D01*
X85417300Y-78261262D01*
X85415151Y-78264217D01*
X85071144Y-78608224D01*
X85062871Y-78611651D01*
X85054635Y-78608262D01*
X84246321Y-77807246D01*
X84242857Y-77798988D01*
X84245265Y-77791826D01*
X84843826Y-77009897D01*
X84851574Y-77005412D01*
X84860227Y-77007720D01*
G37*
%TD.AperFunction*%
%TD*%
%TA.AperFunction,Conductor*%
%TO.N,VCC*%
G36*
X87286520Y-72579600D02*
G01*
X87512267Y-72672820D01*
X88056216Y-72897439D01*
X88062553Y-72903762D01*
X88062563Y-72903786D01*
X88380055Y-73672641D01*
X88380046Y-73681596D01*
X88373707Y-73687921D01*
X88371964Y-73688486D01*
X87317550Y-73940846D01*
X87308707Y-73939439D01*
X87306554Y-73937740D01*
X86962636Y-73593822D01*
X86959209Y-73585549D01*
X86959740Y-73582065D01*
X87270888Y-72586920D01*
X87276627Y-72580049D01*
X87285546Y-72579247D01*
X87286520Y-72579600D01*
G37*
%TD.AperFunction*%
%TD*%
M02*
