%TF.GenerationSoftware,KiCad,Pcbnew,9.0.4-9.0.4-0~ubuntu24.04.1*%
%TF.CreationDate,2025-08-21T12:52:44+02:00*%
%TF.ProjectId,octal_base,6f637461-6c5f-4626-9173-652e6b696361,1*%
%TF.SameCoordinates,Original*%
%TF.FileFunction,Copper,L1,Top*%
%TF.FilePolarity,Positive*%
%FSLAX46Y46*%
G04 Gerber Fmt 4.6, Leading zero omitted, Abs format (unit mm)*
G04 Created by KiCad (PCBNEW 9.0.4-9.0.4-0~ubuntu24.04.1) date 2025-08-21 12:52:44*
%MOMM*%
%LPD*%
G01*
G04 APERTURE LIST*
G04 Aperture macros list*
%AMRoundRect*
0 Rectangle with rounded corners*
0 $1 Rounding radius*
0 $2 $3 $4 $5 $6 $7 $8 $9 X,Y pos of 4 corners*
0 Add a 4 corners polygon primitive as box body*
4,1,4,$2,$3,$4,$5,$6,$7,$8,$9,$2,$3,0*
0 Add four circle primitives for the rounded corners*
1,1,$1+$1,$2,$3*
1,1,$1+$1,$4,$5*
1,1,$1+$1,$6,$7*
1,1,$1+$1,$8,$9*
0 Add four rect primitives between the rounded corners*
20,1,$1+$1,$2,$3,$4,$5,0*
20,1,$1+$1,$4,$5,$6,$7,0*
20,1,$1+$1,$6,$7,$8,$9,0*
20,1,$1+$1,$8,$9,$2,$3,0*%
%AMRotRect*
0 Rectangle, with rotation*
0 The origin of the aperture is its center*
0 $1 length*
0 $2 width*
0 $3 Rotation angle, in degrees counterclockwise*
0 Add horizontal line*
21,1,$1,$2,0,0,$3*%
G04 Aperture macros list end*
%TA.AperFunction,ComponentPad*%
%ADD10R,1.700000X1.700000*%
%TD*%
%TA.AperFunction,ComponentPad*%
%ADD11C,1.700000*%
%TD*%
%TA.AperFunction,SMDPad,CuDef*%
%ADD12RoundRect,0.250000X0.325000X0.450000X-0.325000X0.450000X-0.325000X-0.450000X0.325000X-0.450000X0*%
%TD*%
%TA.AperFunction,SMDPad,CuDef*%
%ADD13RoundRect,0.250000X0.375000X0.625000X-0.375000X0.625000X-0.375000X-0.625000X0.375000X-0.625000X0*%
%TD*%
%TA.AperFunction,SMDPad,CuDef*%
%ADD14RoundRect,0.250000X0.250000X0.250000X-0.250000X0.250000X-0.250000X-0.250000X0.250000X-0.250000X0*%
%TD*%
%TA.AperFunction,SMDPad,CuDef*%
%ADD15RoundRect,0.250000X-0.250000X-0.250000X0.250000X-0.250000X0.250000X0.250000X-0.250000X0.250000X0*%
%TD*%
%TA.AperFunction,ComponentPad*%
%ADD16R,1.600000X1.600000*%
%TD*%
%TA.AperFunction,ComponentPad*%
%ADD17C,1.600000*%
%TD*%
%TA.AperFunction,ComponentPad*%
%ADD18RotRect,3.810000X3.810000X22.500000*%
%TD*%
%TA.AperFunction,ComponentPad*%
%ADD19C,3.810000*%
%TD*%
%TA.AperFunction,SMDPad,CuDef*%
%ADD20RoundRect,0.237500X0.287500X0.237500X-0.287500X0.237500X-0.287500X-0.237500X0.287500X-0.237500X0*%
%TD*%
%TA.AperFunction,SMDPad,CuDef*%
%ADD21RoundRect,0.237500X-0.250000X-0.237500X0.250000X-0.237500X0.250000X0.237500X-0.250000X0.237500X0*%
%TD*%
%TA.AperFunction,SMDPad,CuDef*%
%ADD22RoundRect,0.250000X-0.159099X0.724784X-0.724784X0.159099X0.159099X-0.724784X0.724784X-0.159099X0*%
%TD*%
%TA.AperFunction,SMDPad,CuDef*%
%ADD23RoundRect,0.237500X0.237500X-0.250000X0.237500X0.250000X-0.237500X0.250000X-0.237500X-0.250000X0*%
%TD*%
%TA.AperFunction,ViaPad*%
%ADD24C,0.600000*%
%TD*%
%TA.AperFunction,Conductor*%
%ADD25C,0.400000*%
%TD*%
%TA.AperFunction,Conductor*%
%ADD26C,0.500000*%
%TD*%
%TA.AperFunction,Conductor*%
%ADD27C,0.200000*%
%TD*%
G04 APERTURE END LIST*
D10*
%TO.P,J2,1,Pin_1*%
%TO.N,unconnected-(J2-Pin_1-Pad1)*%
X85520001Y-72900001D03*
D11*
%TO.P,J2,2,Pin_2*%
%TO.N,VCC*%
X88060001Y-72900001D03*
%TO.P,J2,3,Pin_3*%
%TO.N,GND*%
X90600001Y-72900001D03*
%TO.P,J2,4,Pin_4*%
%TO.N,AGC*%
X93140001Y-72900001D03*
%TO.P,J2,5,Pin_5*%
%TO.N,EN*%
X95680001Y-72900001D03*
%TD*%
D12*
%TO.P,FB1,1*%
%TO.N,Net-(F1-Pad2)*%
X90325000Y-81200000D03*
%TO.P,FB1,2*%
%TO.N,VCC*%
X88275000Y-81200000D03*
%TD*%
D13*
%TO.P,F1,1*%
%TO.N,Net-(D2-K)*%
X95000000Y-81200000D03*
%TO.P,F1,2*%
%TO.N,Net-(F1-Pad2)*%
X92200000Y-81200000D03*
%TD*%
D14*
%TO.P,D3,1,K*%
%TO.N,Net-(D2-K)*%
X96850000Y-77200000D03*
%TO.P,D3,2,A*%
%TO.N,H2*%
X94350000Y-77200000D03*
%TD*%
D15*
%TO.P,D2,1,K*%
%TO.N,Net-(D2-K)*%
X98550000Y-76600000D03*
%TO.P,D2,2,A*%
%TO.N,H1*%
X101050000Y-76600000D03*
%TD*%
D16*
%TO.P,C1,1*%
%TO.N,VCC*%
X84852651Y-77000000D03*
D17*
%TO.P,C1,2*%
%TO.N,GND*%
X81352651Y-77000000D03*
%TD*%
D18*
%TO.P,J1,1,Pin_1*%
%TO.N,unconnected-(J1-Pin_1-Pad1)*%
X98661493Y-80239180D03*
D19*
%TO.P,J1,2,Pin_2*%
%TO.N,H1*%
X98660848Y-73561087D03*
%TO.P,J1,3,Pin_3*%
%TO.N,unconnected-(J1-Pin_3-Pad3)*%
X93939179Y-68838507D03*
%TO.P,J1,4,Pin_4*%
%TO.N,AGC*%
X87261087Y-68839151D03*
%TO.P,J1,5,Pin_5*%
%TO.N,unconnected-(J1-Pin_5-Pad5)*%
X82538506Y-73560820D03*
%TO.P,J1,6,Pin_6*%
%TO.N,Net-(J1-Pin_6)*%
X82539151Y-80238913D03*
%TO.P,J1,7,Pin_7*%
%TO.N,H2*%
X87260820Y-84961494D03*
%TO.P,J1,8,Pin_8*%
%TO.N,K*%
X93938912Y-84960849D03*
%TD*%
D20*
%TO.P,D1,1,K*%
%TO.N,EN*%
X96075000Y-75100000D03*
%TO.P,D1,2,A*%
%TO.N,GND*%
X94325000Y-75100000D03*
%TD*%
D21*
%TO.P,R2,1*%
%TO.N,VCC*%
X89687500Y-87500000D03*
%TO.P,R2,2*%
%TO.N,K*%
X91512500Y-87500000D03*
%TD*%
D22*
%TO.P,R1,1*%
%TO.N,Net-(J1-Pin_6)*%
X85696016Y-81903984D03*
%TO.P,R1,2*%
%TO.N,EN*%
X83503984Y-84096016D03*
%TD*%
D23*
%TO.P,R3,2*%
%TO.N,GND*%
X90900000Y-84187500D03*
%TO.P,R3,1*%
%TO.N,K*%
X90900000Y-86012500D03*
%TD*%
D24*
%TO.N,GND*%
X94700000Y-76100000D03*
%TO.N,VCC*%
X89200000Y-82200000D03*
X88700000Y-87100000D03*
%TO.N,GND*%
X90900000Y-83350000D03*
%TD*%
D25*
%TO.N,GND*%
X90900000Y-83350000D02*
X90900000Y-83900000D01*
D26*
%TO.N,H2*%
X94350000Y-77200000D02*
X93600000Y-77950000D01*
X93600000Y-81796878D02*
X92796878Y-82600000D01*
X93600000Y-77950000D02*
X93600000Y-81796878D01*
X92796878Y-82600000D02*
X89862075Y-82600000D01*
X89862075Y-82600000D02*
X89511075Y-82951000D01*
X89149000Y-82951000D02*
X87500000Y-84600000D01*
X89511075Y-82951000D02*
X89149000Y-82951000D01*
X87500000Y-84600000D02*
X87500000Y-84800000D01*
D27*
%TO.N,GND*%
X90900000Y-84087500D02*
X90900000Y-84000000D01*
D25*
%TO.N,K*%
X90900000Y-85912500D02*
X92487500Y-85912500D01*
D26*
%TO.N,AGC*%
X93140001Y-72900001D02*
X90540000Y-70300000D01*
X88700000Y-70300000D02*
X87300000Y-68900000D01*
X90540000Y-70300000D02*
X88700000Y-70300000D01*
%TO.N,H1*%
X101000000Y-76600000D02*
X101100000Y-76600000D01*
X98660848Y-74260848D02*
X101000000Y-76600000D01*
X98660848Y-73561087D02*
X98660848Y-74260848D01*
D27*
%TO.N,GND*%
X94325001Y-75725001D02*
X94700000Y-76100000D01*
X94325001Y-75100000D02*
X94325001Y-75725001D01*
%TO.N,VCC*%
X89100000Y-87500000D02*
X89700000Y-87500000D01*
X88700000Y-87100000D02*
X89100000Y-87500000D01*
X88275000Y-81275000D02*
X89200000Y-82200000D01*
X88275000Y-81200000D02*
X88275000Y-81275000D01*
D26*
X84852651Y-78052651D02*
X87100000Y-80300000D01*
X86100000Y-75700000D02*
X84900000Y-76900000D01*
X87999999Y-72900001D02*
X86100000Y-74800000D01*
X84852651Y-77000000D02*
X84852651Y-78052651D01*
X88060001Y-72900001D02*
X87999999Y-72900001D01*
X87400000Y-80300000D02*
X88300000Y-81200000D01*
X87100000Y-80300000D02*
X87400000Y-80300000D01*
X84900000Y-76900000D02*
X84900000Y-77000000D01*
X86100000Y-74800000D02*
X86100000Y-75700000D01*
%TO.N,Net-(F1-Pad2)*%
X92200000Y-81200000D02*
X90300000Y-81200000D01*
D27*
%TO.N,EN*%
X82800000Y-84000000D02*
X81500000Y-82700000D01*
X81626346Y-70673654D02*
X84600000Y-67700000D01*
D26*
X95680001Y-72900002D02*
X95680001Y-74680001D01*
D27*
X80000000Y-79800000D02*
X80000000Y-74600000D01*
X95680001Y-72900002D02*
X95766430Y-72810299D01*
X88400000Y-66500000D02*
X89800000Y-67900000D01*
D26*
X95680001Y-74680001D02*
X96100000Y-75100000D01*
D27*
X87497056Y-66500000D02*
X88400000Y-66500000D01*
X95766430Y-72810299D02*
X95912840Y-72608782D01*
X95912840Y-72608782D02*
X96025922Y-72386842D01*
X83300000Y-84000000D02*
X82800000Y-84000000D01*
X94200000Y-71500000D02*
X95600000Y-72900000D01*
X81500000Y-82700000D02*
X80989949Y-82189950D01*
X89800000Y-67900000D02*
X89800000Y-68782183D01*
X89800000Y-68782183D02*
X92517817Y-71500000D01*
X92517817Y-71500000D02*
X94200000Y-71500000D01*
X80989949Y-82189950D02*
G75*
G02*
X80000000Y-79800000I2389951J2389950D01*
G01*
X84600000Y-67700000D02*
G75*
G02*
X87497056Y-66499982I2897100J-2897100D01*
G01*
X80000000Y-74600000D02*
G75*
G02*
X81626344Y-70673652I5552700J0D01*
G01*
D26*
%TO.N,Net-(J1-Pin_6)*%
X84492032Y-80700000D02*
X83900000Y-80700000D01*
X85696016Y-81903984D02*
X84492032Y-80700000D01*
%TO.N,K*%
X91512500Y-87500000D02*
X91512500Y-87487500D01*
X91512500Y-87487500D02*
X93700000Y-85300000D01*
%TO.N,Net-(D2-K)*%
X97500000Y-76600000D02*
X95000000Y-79100000D01*
X95000000Y-79100000D02*
X95000000Y-81300000D01*
X98550000Y-76600000D02*
X97500000Y-76600000D01*
%TD*%
%TA.AperFunction,Conductor*%
%TO.N,H2*%
G36*
X88715153Y-83037723D02*
G01*
X88715691Y-83038229D01*
X89062165Y-83384703D01*
X89065590Y-83392773D01*
X89084112Y-84460202D01*
X89080829Y-84468533D01*
X89075466Y-84471700D01*
X87278252Y-84957299D01*
X87269371Y-84956149D01*
X87263905Y-84949056D01*
X87263717Y-84943760D01*
X87356598Y-84468533D01*
X87621691Y-83112185D01*
X87626640Y-83104725D01*
X87632434Y-83102754D01*
X88706681Y-83034825D01*
X88715153Y-83037723D01*
G37*
%TD.AperFunction*%
%TD*%
%TA.AperFunction,Conductor*%
%TO.N,K*%
G36*
X93921135Y-84958378D02*
G01*
X93928891Y-84962855D01*
X93931209Y-84971504D01*
X93929299Y-84976534D01*
X92883812Y-86521815D01*
X92876338Y-86526747D01*
X92869877Y-86526162D01*
X91814917Y-86115402D01*
X91808451Y-86109207D01*
X91807462Y-86104499D01*
X91807462Y-85713899D01*
X91807792Y-85711140D01*
X92047732Y-84722405D01*
X92053012Y-84715176D01*
X92060624Y-84713567D01*
X93921135Y-84958378D01*
G37*
%TD.AperFunction*%
%TD*%
%TA.AperFunction,Conductor*%
%TO.N,AGC*%
G36*
X88717212Y-69037188D02*
G01*
X89136320Y-69094150D01*
X89144056Y-69098659D01*
X89146368Y-69107076D01*
X89038262Y-70050000D01*
X89038262Y-70539091D01*
X89034835Y-70547364D01*
X89027380Y-70550762D01*
X87876165Y-70631450D01*
X87867673Y-70628610D01*
X87864266Y-70623533D01*
X87266143Y-68857037D01*
X87266736Y-68848104D01*
X87273473Y-68842205D01*
X87278799Y-68841694D01*
X88717212Y-69037188D01*
G37*
%TD.AperFunction*%
%TD*%
%TA.AperFunction,Conductor*%
%TO.N,H1*%
G36*
X98677155Y-73568384D02*
G01*
X100367410Y-74363586D01*
X100373437Y-74370209D01*
X100373796Y-74376943D01*
X100130950Y-75373434D01*
X100127856Y-75378937D01*
X99781350Y-75725443D01*
X99773077Y-75728870D01*
X99770143Y-75728496D01*
X98702687Y-75452017D01*
X98695538Y-75446626D01*
X98693923Y-75440901D01*
X98692810Y-75378937D01*
X98660478Y-73579180D01*
X98663756Y-73570849D01*
X98671966Y-73567274D01*
X98677155Y-73568384D01*
G37*
%TD.AperFunction*%
%TD*%
%TA.AperFunction,Conductor*%
%TO.N,VCC*%
G36*
X86340826Y-75610534D02*
G01*
X86344253Y-75618807D01*
X86343377Y-75623248D01*
X85656985Y-77296120D01*
X85650674Y-77302473D01*
X85641985Y-77302608D01*
X84857187Y-77002733D01*
X84850682Y-76996579D01*
X84850675Y-76996564D01*
X84500682Y-76210755D01*
X84500447Y-76201804D01*
X84506610Y-76195307D01*
X85847757Y-75608088D01*
X85852450Y-75607107D01*
X86332553Y-75607107D01*
X86340826Y-75610534D01*
G37*
%TD.AperFunction*%
%TD*%
%TA.AperFunction,Conductor*%
%TO.N,VCC*%
G36*
X84860227Y-77007720D02*
G01*
X84861388Y-77008737D01*
X85646636Y-77793985D01*
X85650063Y-77802258D01*
X85648785Y-77807576D01*
X85417300Y-78261262D01*
X85415151Y-78264217D01*
X85071144Y-78608224D01*
X85062871Y-78611651D01*
X85054635Y-78608262D01*
X84246321Y-77807246D01*
X84242857Y-77798988D01*
X84245265Y-77791826D01*
X84843826Y-77009897D01*
X84851574Y-77005412D01*
X84860227Y-77007720D01*
G37*
%TD.AperFunction*%
%TD*%
%TA.AperFunction,Conductor*%
%TO.N,Net-(J1-Pin_6)*%
G36*
X84374011Y-79791985D02*
G01*
X84378145Y-79796260D01*
X84634368Y-80252614D01*
X84932390Y-80783414D01*
X84933452Y-80792306D01*
X84930461Y-80797415D01*
X84584011Y-81143865D01*
X84582198Y-81145347D01*
X83766499Y-81685533D01*
X83757709Y-81687244D01*
X83751076Y-81683299D01*
X83299660Y-81145347D01*
X82550533Y-80252613D01*
X82547841Y-80244074D01*
X82551976Y-80236130D01*
X82556710Y-80233730D01*
X84365161Y-79790625D01*
X84374011Y-79791985D01*
G37*
%TD.AperFunction*%
%TD*%
%TA.AperFunction,Conductor*%
%TO.N,K*%
G36*
X93930327Y-84966131D02*
G01*
X93935747Y-84973260D01*
X93935900Y-84978554D01*
X93566606Y-86807077D01*
X93561610Y-86814508D01*
X93555792Y-86816443D01*
X92481966Y-86876520D01*
X92473514Y-86873560D01*
X92473039Y-86873111D01*
X92126564Y-86526636D01*
X92123138Y-86518482D01*
X92112362Y-85450229D01*
X92115705Y-85441925D01*
X92121081Y-85438800D01*
X93921454Y-84964923D01*
X93930327Y-84966131D01*
G37*
%TD.AperFunction*%
%TD*%
M02*
