%TF.GenerationSoftware,KiCad,Pcbnew,9.0.4-9.0.4-0~ubuntu24.04.1*%
%TF.CreationDate,2025-08-21T12:52:44+02:00*%
%TF.ProjectId,octal_base,6f637461-6c5f-4626-9173-652e6b696361,1*%
%TF.SameCoordinates,Original*%
%TF.FileFunction,Legend,Bot*%
%TF.FilePolarity,Positive*%
%FSLAX46Y46*%
G04 Gerber Fmt 4.6, Leading zero omitted, Abs format (unit mm)*
G04 Created by KiCad (PCBNEW 9.0.4-9.0.4-0~ubuntu24.04.1) date 2025-08-21 12:52:44*
%MOMM*%
%LPD*%
G01*
G04 APERTURE LIST*
%ADD10C,0.100000*%
G04 APERTURE END LIST*
D10*
X94899999Y-81002699D02*
X94649999Y-81002699D01*
X94542856Y-81395556D02*
X94899999Y-81395556D01*
X94899999Y-81395556D02*
X94899999Y-80645556D01*
X94899999Y-80645556D02*
X94542856Y-80645556D01*
X94221428Y-81395556D02*
X94221428Y-80645556D01*
X94221428Y-80645556D02*
X93971428Y-81181270D01*
X93971428Y-81181270D02*
X93721428Y-80645556D01*
X93721428Y-80645556D02*
X93721428Y-81395556D01*
X93435714Y-80645556D02*
X92971428Y-80645556D01*
X92971428Y-80645556D02*
X93221428Y-80931270D01*
X93221428Y-80931270D02*
X93114285Y-80931270D01*
X93114285Y-80931270D02*
X93042857Y-80966984D01*
X93042857Y-80966984D02*
X93007142Y-81002699D01*
X93007142Y-81002699D02*
X92971428Y-81074127D01*
X92971428Y-81074127D02*
X92971428Y-81252699D01*
X92971428Y-81252699D02*
X93007142Y-81324127D01*
X93007142Y-81324127D02*
X93042857Y-81359842D01*
X93042857Y-81359842D02*
X93114285Y-81395556D01*
X93114285Y-81395556D02*
X93328571Y-81395556D01*
X93328571Y-81395556D02*
X93399999Y-81359842D01*
X93399999Y-81359842D02*
X93435714Y-81324127D01*
X92328571Y-80895556D02*
X92328571Y-81395556D01*
X92507142Y-80609842D02*
X92685713Y-81145556D01*
X92685713Y-81145556D02*
X92221428Y-81145556D01*
X91471427Y-80645556D02*
X91042856Y-80645556D01*
X91257141Y-81395556D02*
X91257141Y-80645556D01*
X90471427Y-80895556D02*
X90471427Y-81395556D01*
X90792855Y-80895556D02*
X90792855Y-81288413D01*
X90792855Y-81288413D02*
X90757141Y-81359842D01*
X90757141Y-81359842D02*
X90685712Y-81395556D01*
X90685712Y-81395556D02*
X90578569Y-81395556D01*
X90578569Y-81395556D02*
X90507141Y-81359842D01*
X90507141Y-81359842D02*
X90471427Y-81324127D01*
X90114284Y-81395556D02*
X90114284Y-80645556D01*
X90114284Y-80931270D02*
X90042856Y-80895556D01*
X90042856Y-80895556D02*
X89899998Y-80895556D01*
X89899998Y-80895556D02*
X89828570Y-80931270D01*
X89828570Y-80931270D02*
X89792856Y-80966984D01*
X89792856Y-80966984D02*
X89757141Y-81038413D01*
X89757141Y-81038413D02*
X89757141Y-81252699D01*
X89757141Y-81252699D02*
X89792856Y-81324127D01*
X89792856Y-81324127D02*
X89828570Y-81359842D01*
X89828570Y-81359842D02*
X89899998Y-81395556D01*
X89899998Y-81395556D02*
X90042856Y-81395556D01*
X90042856Y-81395556D02*
X90114284Y-81359842D01*
X89149999Y-81359842D02*
X89221427Y-81395556D01*
X89221427Y-81395556D02*
X89364285Y-81395556D01*
X89364285Y-81395556D02*
X89435713Y-81359842D01*
X89435713Y-81359842D02*
X89471427Y-81288413D01*
X89471427Y-81288413D02*
X89471427Y-81002699D01*
X89471427Y-81002699D02*
X89435713Y-80931270D01*
X89435713Y-80931270D02*
X89364285Y-80895556D01*
X89364285Y-80895556D02*
X89221427Y-80895556D01*
X89221427Y-80895556D02*
X89149999Y-80931270D01*
X89149999Y-80931270D02*
X89114285Y-81002699D01*
X89114285Y-81002699D02*
X89114285Y-81074127D01*
X89114285Y-81074127D02*
X89471427Y-81145556D01*
X87971427Y-81002699D02*
X87864284Y-81038413D01*
X87864284Y-81038413D02*
X87828570Y-81074127D01*
X87828570Y-81074127D02*
X87792856Y-81145556D01*
X87792856Y-81145556D02*
X87792856Y-81252699D01*
X87792856Y-81252699D02*
X87828570Y-81324127D01*
X87828570Y-81324127D02*
X87864284Y-81359842D01*
X87864284Y-81359842D02*
X87935713Y-81395556D01*
X87935713Y-81395556D02*
X88221427Y-81395556D01*
X88221427Y-81395556D02*
X88221427Y-80645556D01*
X88221427Y-80645556D02*
X87971427Y-80645556D01*
X87971427Y-80645556D02*
X87899999Y-80681270D01*
X87899999Y-80681270D02*
X87864284Y-80716984D01*
X87864284Y-80716984D02*
X87828570Y-80788413D01*
X87828570Y-80788413D02*
X87828570Y-80859842D01*
X87828570Y-80859842D02*
X87864284Y-80931270D01*
X87864284Y-80931270D02*
X87899999Y-80966984D01*
X87899999Y-80966984D02*
X87971427Y-81002699D01*
X87971427Y-81002699D02*
X88221427Y-81002699D01*
X87149999Y-81395556D02*
X87149999Y-81002699D01*
X87149999Y-81002699D02*
X87185713Y-80931270D01*
X87185713Y-80931270D02*
X87257141Y-80895556D01*
X87257141Y-80895556D02*
X87399999Y-80895556D01*
X87399999Y-80895556D02*
X87471427Y-80931270D01*
X87149999Y-81359842D02*
X87221427Y-81395556D01*
X87221427Y-81395556D02*
X87399999Y-81395556D01*
X87399999Y-81395556D02*
X87471427Y-81359842D01*
X87471427Y-81359842D02*
X87507141Y-81288413D01*
X87507141Y-81288413D02*
X87507141Y-81216984D01*
X87507141Y-81216984D02*
X87471427Y-81145556D01*
X87471427Y-81145556D02*
X87399999Y-81109842D01*
X87399999Y-81109842D02*
X87221427Y-81109842D01*
X87221427Y-81109842D02*
X87149999Y-81074127D01*
X86828570Y-81359842D02*
X86757142Y-81395556D01*
X86757142Y-81395556D02*
X86614285Y-81395556D01*
X86614285Y-81395556D02*
X86542856Y-81359842D01*
X86542856Y-81359842D02*
X86507142Y-81288413D01*
X86507142Y-81288413D02*
X86507142Y-81252699D01*
X86507142Y-81252699D02*
X86542856Y-81181270D01*
X86542856Y-81181270D02*
X86614285Y-81145556D01*
X86614285Y-81145556D02*
X86721428Y-81145556D01*
X86721428Y-81145556D02*
X86792856Y-81109842D01*
X86792856Y-81109842D02*
X86828570Y-81038413D01*
X86828570Y-81038413D02*
X86828570Y-81002699D01*
X86828570Y-81002699D02*
X86792856Y-80931270D01*
X86792856Y-80931270D02*
X86721428Y-80895556D01*
X86721428Y-80895556D02*
X86614285Y-80895556D01*
X86614285Y-80895556D02*
X86542856Y-80931270D01*
X85899999Y-81359842D02*
X85971427Y-81395556D01*
X85971427Y-81395556D02*
X86114285Y-81395556D01*
X86114285Y-81395556D02*
X86185713Y-81359842D01*
X86185713Y-81359842D02*
X86221427Y-81288413D01*
X86221427Y-81288413D02*
X86221427Y-81002699D01*
X86221427Y-81002699D02*
X86185713Y-80931270D01*
X86185713Y-80931270D02*
X86114285Y-80895556D01*
X86114285Y-80895556D02*
X85971427Y-80895556D01*
X85971427Y-80895556D02*
X85899999Y-80931270D01*
X85899999Y-80931270D02*
X85864285Y-81002699D01*
X85864285Y-81002699D02*
X85864285Y-81074127D01*
X85864285Y-81074127D02*
X86221427Y-81145556D01*
X96685713Y-82603014D02*
X96685713Y-81853014D01*
X96685713Y-81853014D02*
X96507142Y-81853014D01*
X96507142Y-81853014D02*
X96399999Y-81888728D01*
X96399999Y-81888728D02*
X96328570Y-81960157D01*
X96328570Y-81960157D02*
X96292856Y-82031585D01*
X96292856Y-82031585D02*
X96257142Y-82174442D01*
X96257142Y-82174442D02*
X96257142Y-82281585D01*
X96257142Y-82281585D02*
X96292856Y-82424442D01*
X96292856Y-82424442D02*
X96328570Y-82495871D01*
X96328570Y-82495871D02*
X96399999Y-82567300D01*
X96399999Y-82567300D02*
X96507142Y-82603014D01*
X96507142Y-82603014D02*
X96685713Y-82603014D01*
X95578570Y-82603014D02*
X95935713Y-82603014D01*
X95935713Y-82603014D02*
X95935713Y-81853014D01*
X95364284Y-81924442D02*
X95328570Y-81888728D01*
X95328570Y-81888728D02*
X95257142Y-81853014D01*
X95257142Y-81853014D02*
X95078570Y-81853014D01*
X95078570Y-81853014D02*
X95007142Y-81888728D01*
X95007142Y-81888728D02*
X94971427Y-81924442D01*
X94971427Y-81924442D02*
X94935713Y-81995871D01*
X94935713Y-81995871D02*
X94935713Y-82067300D01*
X94935713Y-82067300D02*
X94971427Y-82174442D01*
X94971427Y-82174442D02*
X95399999Y-82603014D01*
X95399999Y-82603014D02*
X94935713Y-82603014D01*
X94685713Y-81853014D02*
X94507141Y-82603014D01*
X94507141Y-82603014D02*
X94364284Y-82067300D01*
X94364284Y-82067300D02*
X94221427Y-82603014D01*
X94221427Y-82603014D02*
X94042856Y-81853014D01*
X93792855Y-82388728D02*
X93435713Y-82388728D01*
X93864284Y-82603014D02*
X93614284Y-81853014D01*
X93614284Y-81853014D02*
X93364284Y-82603014D01*
X92721427Y-81888728D02*
X92792856Y-81853014D01*
X92792856Y-81853014D02*
X92899998Y-81853014D01*
X92899998Y-81853014D02*
X93007141Y-81888728D01*
X93007141Y-81888728D02*
X93078570Y-81960157D01*
X93078570Y-81960157D02*
X93114284Y-82031585D01*
X93114284Y-82031585D02*
X93149998Y-82174442D01*
X93149998Y-82174442D02*
X93149998Y-82281585D01*
X93149998Y-82281585D02*
X93114284Y-82424442D01*
X93114284Y-82424442D02*
X93078570Y-82495871D01*
X93078570Y-82495871D02*
X93007141Y-82567300D01*
X93007141Y-82567300D02*
X92899998Y-82603014D01*
X92899998Y-82603014D02*
X92828570Y-82603014D01*
X92828570Y-82603014D02*
X92721427Y-82567300D01*
X92721427Y-82567300D02*
X92685713Y-82531585D01*
X92685713Y-82531585D02*
X92685713Y-82281585D01*
X92685713Y-82281585D02*
X92828570Y-82281585D01*
X91792855Y-82603014D02*
X91792855Y-81853014D01*
X91792855Y-81853014D02*
X91542855Y-82388728D01*
X91542855Y-82388728D02*
X91292855Y-81853014D01*
X91292855Y-81853014D02*
X91292855Y-82603014D01*
X90614284Y-82603014D02*
X90614284Y-82210157D01*
X90614284Y-82210157D02*
X90649998Y-82138728D01*
X90649998Y-82138728D02*
X90721426Y-82103014D01*
X90721426Y-82103014D02*
X90864284Y-82103014D01*
X90864284Y-82103014D02*
X90935712Y-82138728D01*
X90614284Y-82567300D02*
X90685712Y-82603014D01*
X90685712Y-82603014D02*
X90864284Y-82603014D01*
X90864284Y-82603014D02*
X90935712Y-82567300D01*
X90935712Y-82567300D02*
X90971426Y-82495871D01*
X90971426Y-82495871D02*
X90971426Y-82424442D01*
X90971426Y-82424442D02*
X90935712Y-82353014D01*
X90935712Y-82353014D02*
X90864284Y-82317300D01*
X90864284Y-82317300D02*
X90685712Y-82317300D01*
X90685712Y-82317300D02*
X90614284Y-82281585D01*
X90257141Y-82603014D02*
X90257141Y-82103014D01*
X90257141Y-82245871D02*
X90221427Y-82174442D01*
X90221427Y-82174442D02*
X90185713Y-82138728D01*
X90185713Y-82138728D02*
X90114284Y-82103014D01*
X90114284Y-82103014D02*
X90042855Y-82103014D01*
X89899998Y-82103014D02*
X89614284Y-82103014D01*
X89792855Y-81853014D02*
X89792855Y-82495871D01*
X89792855Y-82495871D02*
X89757141Y-82567300D01*
X89757141Y-82567300D02*
X89685712Y-82603014D01*
X89685712Y-82603014D02*
X89614284Y-82603014D01*
X89364284Y-82603014D02*
X89364284Y-82103014D01*
X89364284Y-81853014D02*
X89399998Y-81888728D01*
X89399998Y-81888728D02*
X89364284Y-81924442D01*
X89364284Y-81924442D02*
X89328570Y-81888728D01*
X89328570Y-81888728D02*
X89364284Y-81853014D01*
X89364284Y-81853014D02*
X89364284Y-81924442D01*
X89007141Y-82103014D02*
X89007141Y-82603014D01*
X89007141Y-82174442D02*
X88971427Y-82138728D01*
X88971427Y-82138728D02*
X88899998Y-82103014D01*
X88899998Y-82103014D02*
X88792855Y-82103014D01*
X88792855Y-82103014D02*
X88721427Y-82138728D01*
X88721427Y-82138728D02*
X88685713Y-82210157D01*
X88685713Y-82210157D02*
X88685713Y-82603014D01*
X87828570Y-81853014D02*
X87649998Y-82603014D01*
X87649998Y-82603014D02*
X87507141Y-82067300D01*
X87507141Y-82067300D02*
X87364284Y-82603014D01*
X87364284Y-82603014D02*
X87185713Y-81853014D01*
X86578570Y-82603014D02*
X86578570Y-82210157D01*
X86578570Y-82210157D02*
X86614284Y-82138728D01*
X86614284Y-82138728D02*
X86685712Y-82103014D01*
X86685712Y-82103014D02*
X86828570Y-82103014D01*
X86828570Y-82103014D02*
X86899998Y-82138728D01*
X86578570Y-82567300D02*
X86649998Y-82603014D01*
X86649998Y-82603014D02*
X86828570Y-82603014D01*
X86828570Y-82603014D02*
X86899998Y-82567300D01*
X86899998Y-82567300D02*
X86935712Y-82495871D01*
X86935712Y-82495871D02*
X86935712Y-82424442D01*
X86935712Y-82424442D02*
X86899998Y-82353014D01*
X86899998Y-82353014D02*
X86828570Y-82317300D01*
X86828570Y-82317300D02*
X86649998Y-82317300D01*
X86649998Y-82317300D02*
X86578570Y-82281585D01*
X85899999Y-82103014D02*
X85899999Y-82710157D01*
X85899999Y-82710157D02*
X85935713Y-82781585D01*
X85935713Y-82781585D02*
X85971427Y-82817300D01*
X85971427Y-82817300D02*
X86042856Y-82853014D01*
X86042856Y-82853014D02*
X86149999Y-82853014D01*
X86149999Y-82853014D02*
X86221427Y-82817300D01*
X85899999Y-82567300D02*
X85971427Y-82603014D01*
X85971427Y-82603014D02*
X86114284Y-82603014D01*
X86114284Y-82603014D02*
X86185713Y-82567300D01*
X86185713Y-82567300D02*
X86221427Y-82531585D01*
X86221427Y-82531585D02*
X86257141Y-82460157D01*
X86257141Y-82460157D02*
X86257141Y-82245871D01*
X86257141Y-82245871D02*
X86221427Y-82174442D01*
X86221427Y-82174442D02*
X86185713Y-82138728D01*
X86185713Y-82138728D02*
X86114284Y-82103014D01*
X86114284Y-82103014D02*
X85971427Y-82103014D01*
X85971427Y-82103014D02*
X85899999Y-82138728D01*
X85542856Y-82103014D02*
X85542856Y-82603014D01*
X85542856Y-82174442D02*
X85507142Y-82138728D01*
X85507142Y-82138728D02*
X85435713Y-82103014D01*
X85435713Y-82103014D02*
X85328570Y-82103014D01*
X85328570Y-82103014D02*
X85257142Y-82138728D01*
X85257142Y-82138728D02*
X85221428Y-82210157D01*
X85221428Y-82210157D02*
X85221428Y-82603014D01*
X84578571Y-82567300D02*
X84649999Y-82603014D01*
X84649999Y-82603014D02*
X84792857Y-82603014D01*
X84792857Y-82603014D02*
X84864285Y-82567300D01*
X84864285Y-82567300D02*
X84899999Y-82495871D01*
X84899999Y-82495871D02*
X84899999Y-82210157D01*
X84899999Y-82210157D02*
X84864285Y-82138728D01*
X84864285Y-82138728D02*
X84792857Y-82103014D01*
X84792857Y-82103014D02*
X84649999Y-82103014D01*
X84649999Y-82103014D02*
X84578571Y-82138728D01*
X84578571Y-82138728D02*
X84542857Y-82210157D01*
X84542857Y-82210157D02*
X84542857Y-82281585D01*
X84542857Y-82281585D02*
X84899999Y-82353014D01*
X84221428Y-82603014D02*
X84221428Y-82103014D01*
X84221428Y-82245871D02*
X84185714Y-82174442D01*
X84185714Y-82174442D02*
X84150000Y-82138728D01*
X84150000Y-82138728D02*
X84078571Y-82103014D01*
X84078571Y-82103014D02*
X84007142Y-82103014D01*
M02*
